<svg width="16" height="16" viewBox="0 0 16 16" xmlns="http://www.w3.org/2000/svg">
<path d="M2.66602 5.59967H2.16602C2.16602 5.87582 2.38987 6.09967 2.66602 6.09967V5.59967ZM13.9993 5.59967V6.09967C14.2755 6.09967 14.4993 5.87582 14.4993 5.59967H13.9993ZM13.9993 3.33301H14.4993C14.4993 3.05687 14.2755 2.83301 13.9993 2.83301V3.33301ZM2.66602 3.33301V2.83301C2.38987 2.83301 2.16602 3.05687 2.16602 3.33301H2.66602ZM3.42157 13.1552H2.92157C2.92157 13.4314 3.14543 13.6552 3.42157 13.6552V13.1552ZM13.2438 13.1552V13.6552C13.5199 13.6552 13.7438 13.4314 13.7438 13.1552H13.2438ZM6.82157 7.36634C6.54543 7.36634 6.32157 7.5902 6.32157 7.86634C6.32157 8.14248 6.54543 8.36634 6.82157 8.36634V7.36634ZM9.84379 8.36634C10.1199 8.36634 10.3438 8.14248 10.3438 7.86634C10.3438 7.5902 10.1199 7.36634 9.84379 7.36634V8.36634ZM14.4993 5.59967V3.33301H13.4993V5.59967H14.4993ZM13.9993 2.83301H2.66602V3.83301H13.9993V2.83301ZM2.16602 3.33301V5.59967H3.16602V3.33301H2.16602ZM2.66602 6.09967H3.42157V5.09967H2.66602V6.09967ZM2.92157 5.59967V13.1552H3.92157V5.59967H2.92157ZM3.42157 13.6552H13.2438V12.6552H3.42157V13.6552ZM3.42157 6.09967H13.2438V5.09967H3.42157V6.09967ZM13.2438 6.09967H13.9993V5.09967H13.2438V6.09967ZM13.7438 13.1552V5.59967H12.7438V13.1552H13.7438ZM6.82157 8.36634H9.84379V7.36634H6.82157V8.36634Z"/>
</svg>
