<svg width="20" height="20" viewBox="0 0 20 20" fill="none" xmlns="http://www.w3.org/2000/svg">
<g clip-path="url(#clip0_3858_158823)">
<path d="M14.734 2.68814L13.5387 4.54935C10.4623 2.57353 6.34476 3.4705 4.36894 6.54691C2.39312 9.62333 3.29009 13.7408 6.3665 15.7166C9.44292 17.6925 13.5604 16.7955 15.5362 13.7191C16.3212 12.4969 16.6467 11.1103 16.5683 9.75903L15.1156 10.0755C15.1262 11.0493 14.8632 12.0381 14.2954 12.9222C12.7503 15.328 9.56924 16.021 7.16341 14.4758C4.75758 12.9307 4.06461 9.74965 5.60975 7.34382C7.15489 4.93799 10.3359 4.24502 12.7418 5.79016L11.5464 7.65138L16.2422 7.16203L14.734 2.68814Z" fill="currentColor"/>
</g>
<defs>
<clipPath id="clip0_3858_158823">
<rect width="20" height="20" fill="white"/>
</clipPath>
</defs>
</svg>
