<svg width="20" height="20" viewBox="0 0 20 20" fill="none" xmlns="http://www.w3.org/2000/svg">
<path d="M0 10C0 4.47715 4.47715 0 10 0C15.5228 0 20 4.47715 20 10C20 15.5228 15.5228 20 10 20C4.47715 20 0 15.5228 0 10Z" fill="#1A86D0" fill-opacity="0.1"/>
<path d="M10.0109 15.448C9.16292 15.448 8.39092 15.312 7.69492 15.04C6.99892 14.768 6.39892 14.384 5.89492 13.888C5.39092 13.392 5.00292 12.812 4.73092 12.148C4.45892 11.476 4.32292 10.744 4.32292 9.952C4.32292 9.16 4.45892 8.432 4.73092 7.768C5.00292 7.104 5.39092 6.528 5.89492 6.04C6.40692 5.552 7.01492 5.172 7.71892 4.9C8.42292 4.628 9.20292 4.492 10.0589 4.492C10.8829 4.492 11.6389 4.624 12.3269 4.888C13.0149 5.144 13.6069 5.508 14.1029 5.98C14.6069 6.444 14.9949 6.996 15.2669 7.636C15.5469 8.276 15.6869 8.98 15.6869 9.748C15.6869 10.436 15.5949 11.032 15.4109 11.536C15.2269 12.032 14.9629 12.412 14.6189 12.676C14.2829 12.94 13.8709 13.072 13.3829 13.072C12.8869 13.072 12.4909 12.924 12.1949 12.628C11.9069 12.332 11.7629 11.904 11.7629 11.344V10.66L11.8109 9.976L11.7029 8.416V7.048H13.0349V11.128C13.0349 11.432 13.0949 11.648 13.2149 11.776C13.3429 11.896 13.4909 11.956 13.6589 11.956C13.8749 11.956 14.0589 11.872 14.2109 11.704C14.3629 11.536 14.4749 11.288 14.5469 10.96C14.6269 10.632 14.6669 10.236 14.6669 9.772C14.6669 9.132 14.5549 8.548 14.3309 8.02C14.1149 7.492 13.7989 7.04 13.3829 6.664C12.9749 6.28 12.4869 5.988 11.9189 5.788C11.3589 5.58 10.7389 5.476 10.0589 5.476C9.36292 5.476 8.73092 5.588 8.16292 5.812C7.59492 6.028 7.10692 6.336 6.69892 6.736C6.29092 7.136 5.97492 7.612 5.75092 8.164C5.53492 8.708 5.42692 9.304 5.42692 9.952C5.42692 10.616 5.53492 11.224 5.75092 11.776C5.96692 12.328 6.27492 12.8 6.67492 13.192C7.08292 13.592 7.56692 13.9 8.12692 14.116C8.68692 14.34 9.31492 14.452 10.0109 14.452C10.3789 14.452 10.7669 14.408 11.1749 14.32C11.5829 14.24 11.9709 14.108 12.3389 13.924L12.6629 14.884C12.2949 15.068 11.8709 15.208 11.3909 15.304C10.9109 15.4 10.4509 15.448 10.0109 15.448ZM9.69892 13.072C9.14692 13.072 8.65492 12.944 8.22292 12.688C7.79092 12.424 7.44692 12.064 7.19092 11.608C6.94292 11.144 6.81892 10.612 6.81892 10.012C6.81892 9.42 6.94292 8.896 7.19092 8.44C7.43892 7.976 7.77892 7.616 8.21092 7.36C8.65092 7.104 9.14692 6.976 9.69892 6.976C10.2349 6.976 10.7029 7.096 11.1029 7.336C11.5029 7.568 11.8149 7.908 12.0389 8.356C12.2629 8.804 12.3749 9.356 12.3749 10.012C12.3749 10.668 12.2669 11.224 12.0509 11.68C11.8349 12.136 11.5269 12.484 11.1269 12.724C10.7269 12.956 10.2509 13.072 9.69892 13.072ZM9.95092 11.908C10.2949 11.908 10.5989 11.836 10.8629 11.692C11.1269 11.54 11.3349 11.32 11.4869 11.032C11.6469 10.744 11.7269 10.404 11.7269 10.012C11.7269 9.612 11.6469 9.276 11.4869 9.004C11.3349 8.724 11.1269 8.512 10.8629 8.368C10.5989 8.216 10.2949 8.14 9.95092 8.14C9.59892 8.14 9.28692 8.216 9.01492 8.368C8.75092 8.52 8.54292 8.736 8.39092 9.016C8.24692 9.296 8.17492 9.628 8.17492 10.012C8.17492 10.404 8.24692 10.74 8.39092 11.02C8.54292 11.3 8.75092 11.52 9.01492 11.68C9.28692 11.832 9.59892 11.908 9.95092 11.908Z" fill="#1A86D0"/>
</svg>
