<svg width="40" height="25" viewBox="0 0 40 25" fill="none" xmlns="http://www.w3.org/2000/svg">
<path fill-rule="evenodd" clip-rule="evenodd" d="M0 12.5L10.5923 23.5613C12.181 25 13.2481 25 14.8292 25H36.8224C38.4111 25 40 23.5613 40 22.1228V2.88181C40 1.43862 38.4111 0 36.8224 0H14.8292C13.2351 0 12.181 8.76539e-08 10.5923 1.43862L0 12.5ZM21.5264 7.30838C21.0924 6.87765 20.389 6.87765 19.9551 7.30838C19.5212 7.73912 19.5212 8.43735 19.9551 8.86809L23.6138 12.5L19.9551 16.1319C19.5212 16.5626 19.5212 17.2609 19.9551 17.6916C20.389 18.1224 21.0924 18.1224 21.5264 17.6916L25.1852 14.0599L28.844 17.6916C29.2779 18.1224 29.9813 18.1224 30.4153 17.6916C30.8492 17.2609 30.8492 16.5626 30.4153 16.1319L26.7566 12.5L30.4153 8.86809C30.8492 8.43735 30.8492 7.73912 30.4153 7.30838C29.9813 6.87765 29.2779 6.87765 28.844 7.30838L25.1852 10.9401L21.5264 7.30838Z" fill="#C1CCD3"/>
</svg>
