<svg width="16" height="16" viewBox="0 0 16 16" xmlns="http://www.w3.org/2000/svg">
    <path fill-rule="evenodd" clip-rule="evenodd" d="M7.9974 3.26641C6.24903 3.26641 4.86406 4.63525 4.86406 6.28451V8.86887C4.86406 9.2121 4.78274 9.53425 4.63877 9.81948H11.356C11.212 9.53425 11.1307 9.2121 11.1307 8.86887V6.28451C11.1307 4.63525 9.74576 3.26641 7.9974 3.26641ZM13.3307 9.81948C12.7606 9.81948 12.3307 9.37629 12.3307 8.86887V6.28451C12.3307 3.93732 10.3728 2.06641 7.9974 2.06641C5.62203 2.06641 3.66406 3.93732 3.66406 6.28451V8.86887C3.66406 9.37629 3.23422 9.81948 2.66406 9.81948V11.0195H13.3307V9.81948ZM5.59072 12.1396L6.13497 11.287H9.8601L10.4044 12.1396L10.0087 12.9922C9.66895 13.7243 8.94864 14.3513 7.99754 14.3513C7.04643 14.3513 6.32612 13.7243 5.98637 12.9922L5.59072 12.1396ZM7.07487 12.487H8.9202C8.72822 12.9007 8.37554 13.1513 7.99754 13.1513C7.61954 13.1513 7.26686 12.9007 7.07487 12.487Z" fill=""/>
</svg>
