<svg width="32" height="32" viewBox="0 0 32 32" fill="none" xmlns="http://www.w3.org/2000/svg">
    <path d="M16 5C9.88889 5 5 9.88889 5 16C5 18.2 5.73333 20.4 6.95556 22.2333L5.24444 25.1667C5 25.5333 5 26.0222 5.24444 26.3889C5.48889 26.7556 5.73333 27 6.22222 27H16C22.1111 27 27 22.1111 27 16C27 9.88889 22.1111 5 16 5ZM16 24.5556H8.42222L9.52222 22.7222C9.76667 22.2333 9.76667 21.7444 9.4 21.3778C8.17778 19.9111 7.44444 17.9556 7.44444 16C7.44444 11.2333 11.2333 7.44444 16 7.44444C20.7667 7.44444 24.5556 11.2333 24.5556 16C24.5556 20.7667 20.7667 24.5556 16 24.5556Z" fill="currentColor"/>
    <path d="M18.2973 11.2272C17.5883 10.6863 16.7891 10.5 15.7759 10.5C15.0076 10.5 14.3502 10.6579 13.8294 11.0098C13.0611 11.5351 12.7002 12.4176 12.7002 13.8124H14.6802C14.6802 13.4398 14.6441 13.0387 14.8607 12.6945C15.0772 12.3503 15.3789 12.0863 15.8971 12.0863C16.423 12.0863 16.6937 12.239 16.9489 12.5547C17.1655 12.8239 17.248 13.1448 17.248 13.4864C17.248 13.7814 17.0985 14.0531 16.9206 14.2989C16.8226 14.4438 16.6937 14.5732 16.5313 14.6975C16.5313 14.6975 15.4614 15.3366 15.085 15.9422C14.8039 16.3925 14.7034 16.9566 14.6802 17.632C14.6776 17.6812 14.6957 17.7821 14.8658 17.7821C15.0334 17.7821 16.3096 17.7821 16.4591 17.7821C16.6086 17.7821 16.6396 17.6683 16.6421 17.6217C16.6525 17.3759 16.6834 16.998 16.7272 16.8557C16.8123 16.5866 16.9773 16.3511 17.2351 16.1492L17.7688 15.7792C18.2509 15.4013 18.635 15.0934 18.8052 14.8501C19.0965 14.4516 19.3002 13.9599 19.3002 13.3777C19.3002 12.4279 18.9521 11.7266 18.2973 11.2272ZM15.6393 18.8121C14.9715 18.7914 14.4198 19.2572 14.3966 19.9844C14.376 20.7142 14.8993 21.1929 15.5696 21.2136C16.2657 21.2343 16.8046 20.784 16.8252 20.0568C16.8458 19.3297 16.3354 18.8328 15.6393 18.8121Z" fill="currentColor"/>
</svg>