<svg width="40" height="40" viewBox="0 0 40 40" fill="none" xmlns="http://www.w3.org/2000/svg">
    <rect width="40" height="40" rx="20" fill="#EAF0F6"/>
    <path d="M27 27H13V16H27V27ZM27 11H26V9H24V11H16V9H14V11H13C11.89 11 11 11.9 11 13V27C11 27.5304 11.2107 28.0391 11.5858 28.4142C11.9609 28.7893 12.4696 29 13 29H27C27.5304 29 28.0391 28.7893 28.4142 28.4142C28.7893 28.0391 29 27.5304 29 27V13C29 12.4696 28.7893 11.9609 28.4142 11.5858C28.0391 11.2107 27.5304 11 27 11ZM24.53 19.06L23.47 18L18.59 22.88L16.47 20.76L15.41 21.82L18.59 25L24.53 19.06Z" fill="#005792"/>
</svg>
