<svg width="40" height="40" viewBox="0 0 40 40" fill="none" xmlns="http://www.w3.org/2000/svg">
    <rect width="40" height="40" rx="20" fill="#EAF0F6"/>
    <path d="M17 18V20H15V18H17ZM21 18V20H19V18H21ZM25 18V20H23V18H25ZM27 11C27.5304 11 28.0391 11.2107 28.4142 11.5858C28.7893 11.9609 29 12.4696 29 13V27C29 27.5304 28.7893 28.0391 28.4142 28.4142C28.0391 28.7893 27.5304 29 27 29H13C11.89 29 11 28.1 11 27V13C11 12.4696 11.2107 11.9609 11.5858 11.5858C11.9609 11.2107 12.4696 11 13 11H14V9H16V11H24V9H26V11H27ZM27 27V16H13V27H27ZM17 22V24H15V22H17ZM21 22V24H19V22H21ZM25 22V24H23V22H25Z" fill="#005792"/>
</svg>
