<svg width="18" height="20" viewBox="0 0 18 20" fill="none" xmlns="http://www.w3.org/2000/svg">
<path d="M13.9088 0H15.5451C15.7742 0 15.9679 0.0806225 16.1262 0.241868C16.2845 0.403112 16.3636 0.600398 16.3636 0.833724V1.66682H17.1815C17.4106 1.66682 17.6043 1.74745 17.7626 1.90869C17.9209 2.06994 18 2.26722 18 2.50055V5.00047H0.00245424V2.50055C0.00245424 2.26722 0.0816034 2.06994 0.239902 1.90869C0.3982 1.74745 0.591881 1.66682 0.820943 1.66682H1.63882V0.833724C1.63882 0.600398 1.71797 0.403112 1.87627 0.241868C2.03456 0.0806225 2.22824 0 2.45731 0H4.09367C4.32273 0 4.51641 0.0806225 4.67471 0.241868C4.83301 0.403112 4.91216 0.600398 4.91216 0.833724V1.66682H13.0928V0.833724C13.0928 0.600398 13.1719 0.403112 13.3302 0.241868C13.4885 0.0806225 13.6822 0 13.9112 0H13.9088ZM17.9988 6.66667V19.1663C17.9988 19.3996 17.9196 19.5969 17.7613 19.7581C17.603 19.9194 17.4093 20 17.1803 20H0.818489C0.589426 20 0.395746 19.9194 0.237448 19.7581C0.0791492 19.5969 0 19.3996 0 19.1663V6.66667H17.9975H17.9988ZM1.63759 9.99969V11.6665H3.27395V9.99969H1.63759ZM4.9097 9.99969V11.6665H6.54607V9.99969H4.9097ZM8.18182 9.99969V11.6665H9.81818V9.99969H8.18182ZM11.4545 9.99969V11.6665H13.0909V9.99969H11.4545ZM14.7267 9.99969V11.6665H16.363V9.99969H14.7267ZM1.63759 13.3327V14.9995H3.27395V13.3327H1.63759ZM4.9097 13.3327V14.9995H6.54607V13.3327H4.9097ZM8.18182 13.3327V14.9995H9.81818V13.3327H8.18182ZM11.4545 13.3327V14.9995H13.0909V13.3327H11.4545ZM14.7267 13.3327V14.9995H16.363V13.3327H14.7267ZM1.63759 16.6664V18.3332H3.27395V16.6664H1.63759ZM4.9097 16.6664V18.3332H6.54607V16.6664H4.9097ZM8.18182 16.6664V18.3332H9.81818V16.6664H8.18182ZM11.4545 16.6664V18.3332H13.0909V16.6664H11.4545ZM14.7267 16.6664V18.3332H16.363V16.6664H14.7267Z" fill="#C1CCD3"/>
</svg>
