<svg width="24" height="24" viewBox="0 0 24 24" fill="none" xmlns="http://www.w3.org/2000/svg">
<path d="M15.2725 5.3335H16.3634C16.5161 5.3335 16.6453 5.38724 16.7508 5.49474C16.8563 5.60224 16.9091 5.73376 16.9091 5.88931V6.44471H17.4543C17.607 6.44471 17.7362 6.49846 17.8417 6.60596C17.9472 6.71345 18 6.84498 18 7.00053V8.66714H6.00164V7.00053C6.00164 6.84498 6.0544 6.71345 6.15993 6.60596C6.26547 6.49846 6.39459 6.44471 6.5473 6.44471H7.09255V5.88931C7.09255 5.73376 7.14531 5.60224 7.25084 5.49474C7.35638 5.38724 7.4855 5.3335 7.6382 5.3335H8.72911C8.88182 5.3335 9.01094 5.38724 9.11647 5.49474C9.22201 5.60224 9.27477 5.73376 9.27477 5.88931V6.44471H14.7285V5.88931C14.7285 5.73376 14.7813 5.60224 14.8868 5.49474C14.9923 5.38724 15.1215 5.3335 15.2742 5.3335H15.2725ZM17.9992 9.77794V18.111C17.9992 18.2666 17.9464 18.3981 17.8409 18.5056C17.7354 18.6131 17.6062 18.6668 17.4535 18.6668H6.54566C6.39295 18.6668 6.26383 18.6131 6.1583 18.5056C6.05277 18.3981 6 18.2666 6 18.111V9.77794H17.9984H17.9992ZM7.09173 12V13.1112H8.18264V12H7.09173ZM9.27314 12V13.1112H10.364V12H9.27314ZM11.4545 12V13.1112H12.5455V12H11.4545ZM13.6364 12V13.1112H14.7273V12H13.6364ZM15.8178 12V13.1112H16.9087V12H15.8178ZM7.09173 14.222V15.3332H8.18264V14.222H7.09173ZM9.27314 14.222V15.3332H10.364V14.222H9.27314ZM11.4545 14.222V15.3332H12.5455V14.222H11.4545ZM13.6364 14.222V15.3332H14.7273V14.222H13.6364ZM15.8178 14.222V15.3332H16.9087V14.222H15.8178ZM7.09173 16.4444V17.5556H8.18264V16.4444H7.09173ZM9.27314 16.4444V17.5556H10.364V16.4444H9.27314ZM11.4545 16.4444V17.5556H12.5455V16.4444H11.4545ZM13.6364 16.4444V17.5556H14.7273V16.4444H13.6364ZM15.8178 16.4444V17.5556H16.9087V16.4444H15.8178Z" fill="#C1CCD3"/>
<rect x="0.5" y="0.5" width="23" height="23" rx="7.5" stroke="#C1CCD3"/>
</svg>
