<svg width="24" height="24" viewBox="0 0 24 24" fill="none" xmlns="http://www.w3.org/2000/svg">
    <path d="M12 24C18.6155 24 24 18.6179 24 12.0006C24 5.38344 18.6194 0 12 0C5.38315 0 0 5.38344 0 12.0006C0 18.6179 5.38056 24 12 24ZM12 2.09169C17.4622 2.09169 21.9084 6.53945 21.9084 12.0006C21.9084 17.4618 17.4609 21.9096 12 21.9096C6.5352 21.9096 2.09158 17.4618 2.09158 12.0006C2.09158 6.53815 6.5352 2.09169 12 2.09169Z" fill="currentColor"/>
    <path d="M8.77103 11.5971C9.02763 11.8944 9.39623 12.1671 9.87555 12.4204C10.351 12.6699 10.9892 12.8573 11.7863 12.9762C12.013 13.0137 12.2396 13.0615 12.4649 13.1249C12.6968 13.183 12.9052 13.2658 13.0979 13.3679C13.2881 13.4713 13.447 13.5954 13.5681 13.7388C13.6906 13.8797 13.7518 14.0516 13.7518 14.2468C13.7518 14.4795 13.6346 14.6656 13.4001 14.8129C13.1605 14.9564 12.8713 15.0275 12.5118 15.0275C12.2396 15.0275 11.996 15.0068 11.7837 14.9642C11.5779 14.9241 11.3812 14.8582 11.2119 14.7703C11.04 14.6824 10.8707 14.5712 10.7052 14.4342C10.5424 14.2998 10.3744 14.1408 10.2038 13.9547H8.23701V16.8836H10.2038V16.4467C10.2976 16.4945 10.3939 16.5398 10.4968 16.5811C10.5906 16.6238 10.6922 16.6664 10.7951 16.713V17.8569H12.7619V16.9766C13.1839 16.9495 13.576 16.8603 13.9341 16.7117C14.2949 16.5656 14.6088 16.3679 14.8706 16.1262C15.1324 15.8857 15.3382 15.604 15.4893 15.2834C15.6404 14.9629 15.716 14.6165 15.716 14.2455C15.716 14.0516 15.6834 13.7983 15.6092 13.4855C15.5401 13.1753 15.3773 12.8573 15.1259 12.5368C14.8771 12.2162 14.5046 11.9202 14.024 11.6462C13.5408 11.3709 12.8921 11.1744 12.0781 11.0529C10.7652 10.8591 10.1113 10.4597 10.1113 9.85604C10.1113 9.64148 10.2129 9.44243 10.4239 9.25501C10.6349 9.07018 10.9397 8.97712 11.3291 8.97712C11.6014 8.97712 11.8384 9.00038 12.039 9.04562C12.2396 9.09345 12.4258 9.16195 12.5939 9.24726C12.7619 9.33515 12.9221 9.44631 13.0719 9.58332C13.2217 9.71774 13.3741 9.87414 13.5343 10.0499H15.5141V7.12103H13.5499V7.53852C13.3155 7.39763 13.051 7.28648 12.7619 7.20246V6.14258H10.7964V7.06416C10.4122 7.11974 10.0618 7.2309 9.73879 7.39246C9.41577 7.55403 9.13573 7.75825 8.89738 8.00642C8.65641 8.25071 8.47276 8.53378 8.34121 8.84916C8.20705 9.16454 8.14453 9.49801 8.14453 9.85346C8.14453 10.0939 8.18491 10.3705 8.26436 10.682C8.34642 10.9922 8.51444 11.2998 8.77103 11.5971Z" fill="currentColor"/>
</svg>
