<svg width="24" height="24" viewBox="0 0 24 24" xmlns="http://www.w3.org/2000/svg">
<path d="M12 3C13.2167 3 14.3813 3.23651 15.4939 3.70954C16.6065 4.18257 17.5658 4.82211 18.3718 5.62817C19.1779 6.43423 19.8174 7.39354 20.2905 8.50611C20.7635 9.61868 21 10.7833 21 12C21 13.2167 20.7635 14.3813 20.2905 15.4939C19.8174 16.6065 19.1779 17.5658 18.3718 18.3718C17.5658 19.1779 16.6065 19.8174 15.4939 20.2905C14.3813 20.7635 13.2167 21 12 21C10.7833 21 9.61868 20.7635 8.50611 20.2905C7.39354 19.8174 6.43423 19.1779 5.62817 18.3718C4.82211 17.5658 4.18257 16.6065 3.70954 15.4939C3.23651 14.3813 3 13.2167 3 12C3 10.7833 3.23651 9.61868 3.70954 8.50611C4.18257 7.39354 4.82211 6.43423 5.62817 5.62817C6.43423 4.82211 7.39354 4.18257 8.50611 3.70954C9.61868 3.23651 10.7833 3 12 3ZM12 5.33979C10.7938 5.33979 9.67854 5.63616 8.6541 6.22891C7.62966 6.82166 6.82107 7.63025 6.22832 8.65469C5.63558 9.67912 5.3392 10.7944 5.3392 12.0006C5.3392 13.2485 5.67711 14.4184 6.35292 15.5103L15.5091 6.35409C14.4172 5.67828 13.2473 5.34037 11.9994 5.34037L12 5.33979ZM17.6933 8.58449L8.58391 17.6939C9.66528 18.3385 10.804 18.6608 12 18.6608C13.2062 18.6608 14.3215 18.3644 15.3459 17.7717C16.3703 17.1789 17.1789 16.3703 17.7717 15.3459C18.3644 14.3215 18.6608 13.2062 18.6608 12C18.6608 10.804 18.3385 9.66528 17.6939 8.58391L17.6933 8.58449Z" fill="currentColor"/>
</svg>
