<svg width="16" height="16" viewBox="0 0 16 16" fill="none" xmlns="http://www.w3.org/2000/svg">
    <path fill-rule="evenodd" clip-rule="evenodd" d="M14.591 1.40902C12.7123 -0.469674 9.6662 -0.469674 7.78752 1.40902L5.73245 3.4641L6.86621 4.59789L8.92129 2.54281C10.1745 1.28955 12.2032 1.28955 13.4572 2.54281C14.7073 3.79368 14.7073 5.82789 13.4572 7.07875L11.4022 9.13403L12.5359 10.2678L14.591 8.21254C16.4697 6.33384 16.4697 3.28772 14.591 1.40902ZM7.07871 13.4567C6.47333 14.0629 5.6675 14.3963 4.81116 14.3963C3.95481 14.3963 3.14895 14.0629 2.54358 13.4567C1.29273 12.2066 1.29273 10.1716 2.54358 8.92153L4.59866 6.86625L3.46409 5.73168L1.40901 7.78676C-0.469669 9.66546 -0.469669 12.7118 1.40901 14.5913C2.34874 15.5302 3.57955 16 4.81116 16C6.04276 16 7.27354 15.5302 8.21328 14.5913L10.2684 12.5362L9.13379 11.4016L7.07871 13.4567ZM9.81052 5.0559L10.9443 6.18969L6.17744 10.9565L5.04368 9.8227L9.81052 5.0559Z" fill="currentColor"/>
</svg>
