<svg width="20" height="20" viewBox="0 0 20 20" fill="none" xmlns="http://www.w3.org/2000/svg">
<path fill-rule="evenodd" clip-rule="evenodd" d="M16.6655 10C16.6655 13.6813 13.6813 16.6655 10 16.6655C6.31873 16.6655 3.33447 13.6813 3.33447 10C3.33447 6.31873 6.31873 3.33447 10 3.33447C13.6813 3.33447 16.6655 6.31873 16.6655 10ZM8.0156 6.9844C7.73084 6.69964 7.26916 6.69964 6.9844 6.9844C6.69964 7.26916 6.69964 7.73084 6.9844 8.0156L8.9688 10L6.9844 11.9844C6.69964 12.2692 6.69964 12.7308 6.9844 13.0156C7.26916 13.3004 7.73084 13.3004 8.0156 13.0156L10 11.0312L11.9844 13.0156C12.2692 13.3004 12.7308 13.3004 13.0156 13.0156C13.3004 12.7308 13.3004 12.2692 13.0156 11.9844L11.0312 10L13.0156 8.0156C13.3004 7.73084 13.3004 7.26916 13.0156 6.9844C12.7308 6.69964 12.2692 6.69964 11.9844 6.9844L10 8.9688L8.0156 6.9844Z" fill="#9DA8AF"/>
</svg>
