<svg width="24" height="24" viewBox="0 0 24 24" fill="none" xmlns="http://www.w3.org/2000/svg">
<path d="M16.8141 4.02117C15.7292 4.14605 15.2219 4.24318 14.5362 4.46056C13.2023 4.88607 12.2348 5.57059 11.8309 6.37998C11.6571 6.72224 11.6477 6.76849 11.629 7.25413L11.6149 7.76751L11.1828 7.82301C10.6943 7.88314 10.1307 8.02189 9.75029 8.17452C9.48728 8.27627 9.48728 8.27627 9.20548 8.19302C8.33659 7.93864 7.35499 7.81839 6.12916 7.81376C3.22192 7.81376 0.873581 8.76191 0.150294 10.2373L0 10.538V13.8958V17.249L0.178474 17.6051C0.497847 18.2434 1.1319 18.7845 2.04775 19.2054C3.9499 20.0842 6.83836 20.2507 9.14912 19.6217L9.51546 19.5199L9.94755 19.6633C10.7131 19.9177 11.0935 19.9732 12 19.9732C12.9065 19.9732 13.2869 19.9177 14.0524 19.6633L14.4845 19.5199L14.8509 19.6217C17.1616 20.2507 20.0501 20.0842 21.9523 19.2054C22.8681 18.7845 23.5022 18.2434 23.8215 17.6051L24 17.249V11.9949V6.74074L23.8215 6.3846C23.5022 5.74634 22.8681 5.2052 21.9523 4.78432C21.1585 4.41431 20.0783 4.14143 19.0262 4.0443C18.5566 3.99805 17.1523 3.98417 16.8141 4.02117ZM19.2188 4.84907C21.9335 5.19133 23.7229 6.50486 23.1311 7.72126C22.9808 8.02652 22.4783 8.51216 22.0744 8.74341C20.8485 9.44643 18.9511 9.81644 17.1992 9.69156L16.5088 9.64531L16.227 9.3863C15.2971 8.53991 14.0196 7.95252 12.7937 7.81376C12.5495 7.78139 12.5307 7.77214 12.4744 7.61951C12.0423 6.44473 13.8082 5.19133 16.3679 4.85369C17.0489 4.76582 18.5284 4.76119 19.2188 4.84907ZM13.0333 8.64166C13.5405 8.74341 13.9397 8.88216 14.4188 9.11342C14.9871 9.39093 15.3722 9.66843 15.8513 10.1448C17.4622 11.7451 17.8802 14.1825 16.8845 16.1806C16.1096 17.7392 14.6771 18.8169 12.9675 19.1407C12.4932 19.2285 11.5068 19.2285 11.0325 19.1407C9.32759 18.8215 7.93268 17.7716 7.13425 16.2083C6.47202 14.9087 6.39687 13.3269 6.93229 11.9949C7.4818 10.6397 8.39295 9.67768 9.75029 9.03017C10.6849 8.58153 11.9953 8.4289 13.0333 8.64166ZM7.88571 8.70641C8.19569 8.76191 8.45401 8.81279 8.46341 8.82204C8.4728 8.83129 8.33659 8.94229 8.16282 9.07179C6.9135 9.98757 5.98826 11.6249 5.82387 13.2113L5.791 13.5258L5.38708 13.498C2.4047 13.2853 0.26771 11.9162 0.859491 10.5935C0.976908 10.3298 1.36673 9.91819 1.71429 9.68231C2.52211 9.14117 3.74325 8.75729 5.09589 8.61853C5.75812 8.54916 7.24697 8.60003 7.88571 8.70641ZM23.2532 9.13192C23.2016 9.63143 22.9104 10.0569 22.3609 10.4408C21.4074 11.1115 19.975 11.5092 18.2184 11.5971L17.791 11.6202L17.6783 11.3797C17.6172 11.2502 17.481 10.9958 17.373 10.8108L17.1804 10.4778L17.946 10.4732C18.9605 10.4732 19.8434 10.3622 20.6888 10.1402C21.6141 9.89506 22.5722 9.43718 23.0841 8.99317C23.1734 8.91916 23.2579 8.85441 23.2673 8.84979C23.2767 8.84979 23.272 8.97929 23.2532 9.13192ZM23.2532 11.0328C23.211 11.4398 23.0419 11.7729 22.7131 12.0827C21.9147 12.8366 20.3601 13.3731 18.6176 13.498L18.209 13.5258L18.1761 13.1974C18.1573 13.0124 18.1151 12.7534 18.0822 12.6146L18.0258 12.3649H18.3358C18.7632 12.3649 19.6791 12.2539 20.2427 12.1336C21.2947 11.907 22.2857 11.4907 22.9198 11.0051C23.1029 10.8663 23.2579 10.7507 23.2673 10.7507C23.2767 10.7461 23.272 10.8756 23.2532 11.0328ZM1.1319 12.9754C1.25871 13.0725 1.54051 13.2436 1.76125 13.3546C2.83209 13.9004 3.79961 14.1455 5.48102 14.2889L5.79569 14.312L5.82387 14.5757C5.84266 14.7191 5.88493 14.9734 5.91781 15.1353L5.97887 15.4313L5.5045 15.3989C3.58356 15.2741 2.01487 14.7144 1.20705 13.8727C0.915851 13.5674 0.789041 13.3176 0.746771 12.9384C0.709198 12.6285 0.666928 12.6239 1.1319 12.9754ZM23.2532 12.9523C23.211 13.3176 23.0841 13.572 22.793 13.8727C21.9851 14.7144 20.4164 15.2741 18.4955 15.3989L18.0211 15.4313L18.0822 15.1353C18.1151 14.9734 18.1573 14.7191 18.1761 14.5757L18.2043 14.312L18.519 14.2843C19.5992 14.1918 20.1393 14.1039 20.8438 13.905C21.7127 13.6645 22.5722 13.2436 23.0748 12.8181C23.1593 12.7488 23.2391 12.6886 23.2579 12.6886C23.272 12.6886 23.272 12.8089 23.2532 12.9523ZM0.892368 14.6774C0.939335 14.7283 1.11781 14.8624 1.29159 14.9734C2.39061 15.6903 3.80431 16.0742 5.71115 16.1852L6.25597 16.213L6.3593 16.4535C6.41096 16.583 6.54247 16.8235 6.6411 16.99L6.82427 17.2906L6.56125 17.323C6.26067 17.36 5.40587 17.3322 4.83757 17.2629C2.91663 17.027 1.31507 16.2592 0.873581 15.3527C0.765558 15.1353 0.685714 14.5849 0.760861 14.5849C0.784344 14.5849 0.845401 14.6266 0.892368 14.6774ZM23.2532 14.8717C23.2391 15.0289 23.1828 15.2463 23.1264 15.3527C22.6849 16.2592 21.0834 17.027 19.1624 17.2629C18.5941 17.3322 17.7393 17.36 17.4387 17.323L17.1757 17.2906L17.3589 16.99C17.4575 16.8235 17.589 16.583 17.6407 16.4535L17.744 16.213L18.2888 16.1852C20.2051 16.0742 21.6047 15.6903 22.7084 14.9734C22.8822 14.8624 23.0607 14.7283 23.1076 14.6774C23.2532 14.5202 23.2861 14.5664 23.2532 14.8717ZM1.36673 16.953C1.95851 17.3276 2.80391 17.656 3.65871 17.8456C4.60274 18.0538 5.19452 18.1046 6.38748 18.0908L7.46771 18.0769L7.7683 18.3544C7.93268 18.507 8.17221 18.7059 8.29902 18.7984L8.52916 18.9695L8.28024 19.025C7.37378 19.2193 5.80509 19.2702 4.75773 19.136C3.28767 18.951 1.99609 18.4469 1.31507 17.7994C0.962818 17.4617 0.784344 17.138 0.742074 16.7495L0.713894 16.4581L0.944031 16.6477C1.07084 16.7495 1.25871 16.8836 1.36673 16.953ZM23.2579 16.7587C23.1593 17.6884 22.0791 18.4885 20.346 18.9279C19.0074 19.2702 17.0442 19.3072 15.7198 19.025L15.4708 18.9695L15.701 18.803C15.8278 18.7059 16.0673 18.507 16.2364 18.3544L16.5417 18.0769L17.6172 18.0908C18.8055 18.1046 19.3973 18.0538 20.3413 17.8456C21.4403 17.6005 22.4877 17.138 23.0841 16.6246C23.1734 16.5506 23.2579 16.4858 23.2673 16.4812C23.2767 16.4812 23.272 16.6061 23.2579 16.7587Z" fill="currentColor"/>
<path d="M11.7426 9.50157C11.6299 9.58945 11.6205 9.62645 11.6205 9.91783C11.6205 10.2277 11.6158 10.237 11.4937 10.2647C10.3994 10.5052 9.69959 11.1296 9.56339 11.9714C9.4037 12.9473 10.1505 13.9139 11.2683 14.1729C11.3998 14.2007 11.5313 14.2331 11.5642 14.2423C11.6064 14.2562 11.6205 14.5429 11.6205 15.4865C11.6205 16.8694 11.6534 16.7769 11.226 16.6196C10.7423 16.4392 10.3853 16.0276 10.3196 15.5697C10.282 15.2968 10.1364 15.1396 9.91564 15.1396C9.75125 15.1396 9.59157 15.2645 9.53521 15.4448C9.48824 15.5928 9.58687 16.0137 9.74186 16.3282C9.90624 16.6566 10.2867 17.022 10.653 17.207C10.9536 17.3596 11.3669 17.4984 11.5125 17.4984C11.6158 17.4984 11.6205 17.5123 11.6205 17.8036C11.6205 17.9701 11.6393 18.1459 11.6675 18.1921C11.7755 18.391 12.217 18.391 12.325 18.1921C12.3532 18.1459 12.372 17.9701 12.372 17.8036C12.372 17.5123 12.3767 17.4984 12.48 17.4984C12.5411 17.4984 12.7055 17.4614 12.8464 17.4105C13.9595 17.0359 14.5747 16.2126 14.4385 15.2783C14.3211 14.4689 13.5884 13.7659 12.6444 13.5624L12.372 13.5069V12.2674V11.0279L12.6162 11.1019C13.1563 11.2591 13.5509 11.6384 13.6448 12.0963C13.7152 12.4339 13.7716 12.5356 13.9219 12.5958C14.152 12.6883 14.3916 12.568 14.4526 12.3275C14.4949 12.1518 14.4057 11.717 14.2648 11.4487C14.0957 11.1204 13.7012 10.7411 13.316 10.5468C13.0342 10.3988 12.898 10.3526 12.5035 10.2647C12.3767 10.237 12.372 10.2277 12.372 9.91783C12.372 9.62645 12.3626 9.58945 12.2499 9.50157C12.1794 9.44607 12.0667 9.40444 11.9963 9.40444C11.9258 9.40444 11.8131 9.44607 11.7426 9.50157ZM11.6205 12.2443V13.4653L11.4139 13.4052C11.0757 13.3034 10.855 13.1739 10.6295 12.9334C10.3571 12.6513 10.2679 12.3691 10.3477 12.0593C10.4745 11.5597 10.8832 11.2267 11.6111 11.0279C11.6158 11.0232 11.6205 11.5736 11.6205 12.2443ZM12.8323 14.4504C13.5321 14.7464 13.8468 15.4078 13.5556 15.9536C13.4194 16.2126 13.0718 16.504 12.7665 16.6196C12.3391 16.7769 12.372 16.8647 12.372 15.5096V14.3071L12.5035 14.3348C12.574 14.3533 12.7196 14.4042 12.8323 14.4504Z" fill="currentColor"/>
</svg>
