<svg width="24" height="25" viewBox="0 0 24 25" fill="none" xmlns="http://www.w3.org/2000/svg">
    <path d="M12 3.5C13.2167 3.5 14.3813 3.73651 15.4939 4.20954C16.6065 4.68257 17.5658 5.32211 18.3718 6.12817C19.1779 6.93423 19.8174 7.89354 20.2905 9.00611C20.7635 10.1187 21 11.2833 21 12.5C21 13.7167 20.7635 14.8813 20.2905 15.9939C19.8174 17.1065 19.1779 18.0658 18.3718 18.8718C17.5658 19.6779 16.6065 20.3174 15.4939 20.7905C14.3813 21.2635 13.2167 21.5 12 21.5C10.7833 21.5 9.61868 21.2635 8.50611 20.7905C7.39354 20.3174 6.43423 19.6779 5.62817 18.8718C4.82211 18.0658 4.18257 17.1065 3.70954 15.9939C3.23651 14.8813 3 13.7167 3 12.5C3 11.2833 3.23651 10.1187 3.70954 9.00611C4.18257 7.89354 4.82211 6.93423 5.62817 6.12817C6.43423 5.32211 7.39354 4.68257 8.50611 4.20954C9.61868 3.73651 10.7833 3.5 12 3.5ZM12 5.83979C10.7938 5.83979 9.67854 6.13616 8.6541 6.72891C7.62966 7.32166 6.82107 8.13025 6.22832 9.15469C5.63558 10.1791 5.3392 11.2944 5.3392 12.5006C5.3392 13.7485 5.67711 14.9184 6.35292 16.0103L15.5091 6.85409C14.4172 6.17828 13.2473 5.84037 11.9994 5.84037L12 5.83979ZM17.6933 9.08449L8.58391 18.1939C9.66528 18.8385 10.804 19.1608 12 19.1608C13.2062 19.1608 14.3215 18.8644 15.3459 18.2717C16.3703 17.6789 17.1789 16.8703 17.7717 15.8459C18.3644 14.8215 18.6608 13.7062 18.6608 12.5C18.6608 11.304 18.3385 10.1653 17.6939 9.08391L17.6933 9.08449Z" fill="#FD5F00"/>
</svg>
