<svg width="20" height="20" viewBox="0 0 20 20" fill="none" xmlns="http://www.w3.org/2000/svg">
    <path d="M9.50626 17V3H10.6798V17H9.50626ZM9.94991 15.3617C9.16756 15.3617 8.4186 15.2475 7.70304 15.0191C6.98748 14.7809 6.4198 14.478 6 14.1106L6.64401 12.6064C7.04472 12.934 7.54085 13.2071 8.13238 13.4255C8.72391 13.644 9.32976 13.7532 9.94991 13.7532C10.4747 13.7532 10.8992 13.6936 11.2236 13.5745C11.548 13.4553 11.7865 13.2965 11.9392 13.0979C12.0918 12.8894 12.1682 12.656 12.1682 12.3979C12.1682 12.0801 12.0584 11.827 11.839 11.6383C11.6196 11.4397 11.3333 11.2858 10.9803 11.1766C10.6369 11.0574 10.2504 10.9482 9.82111 10.8489C9.40131 10.7496 8.97674 10.6355 8.54741 10.5064C8.12761 10.3674 7.7412 10.1936 7.38819 9.98511C7.04472 9.76667 6.76327 9.47872 6.54383 9.12128C6.32439 8.76383 6.21467 8.30709 6.21467 7.75106C6.21467 7.18511 6.35778 6.66879 6.64401 6.20213C6.93977 5.72553 7.38342 5.34823 7.97496 5.07021C8.57603 4.78227 9.33453 4.6383 10.2504 4.6383C10.8515 4.6383 11.4478 4.71773 12.0394 4.8766C12.6309 5.03546 13.1461 5.26383 13.585 5.5617L12.9982 7.06596C12.5498 6.78794 12.0871 6.5844 11.61 6.45532C11.133 6.31631 10.675 6.24681 10.2361 6.24681C9.72093 6.24681 9.30113 6.31135 8.97674 6.44043C8.6619 6.5695 8.42815 6.7383 8.27549 6.94681C8.13238 7.15532 8.06082 7.39362 8.06082 7.6617C8.06082 7.97943 8.16577 8.23759 8.37567 8.43617C8.59511 8.62482 8.87657 8.77376 9.22004 8.88298C9.57305 8.9922 9.96422 9.10142 10.3936 9.21064C10.8229 9.30993 11.2475 9.42411 11.6673 9.55319C12.0966 9.68227 12.483 9.85106 12.8265 10.0596C13.1795 10.2681 13.4609 10.5511 13.6708 10.9085C13.8903 11.266 14 11.7177 14 12.2638C14 12.8199 13.8521 13.3362 13.5564 13.8128C13.2701 14.2794 12.8265 14.6567 12.2254 14.9447C11.6243 15.2227 10.8658 15.3617 9.94991 15.3617Z" fill="currentColor"/>
</svg>
