<svg width="16" height="16" viewBox="0 0 16 16" fill="none" xmlns="http://www.w3.org/2000/svg">
<g clip-path="url(#clip0_6069_62395)">
<rect x="0.5" y="0.5" width="15" height="15" rx="7.5" fill="#E9F7F4"/>
<path d="M7.35992 13.44V2.16003H8.34392V13.44H7.35992ZM7.73192 12.12C7.07592 12.12 6.44792 12.028 5.84792 11.844C5.24792 11.652 4.77192 11.408 4.41992 11.112L4.95992 9.90003C5.29592 10.164 5.71192 10.384 6.20792 10.56C6.70392 10.736 7.21192 10.824 7.73192 10.824C8.17192 10.824 8.52792 10.776 8.79992 10.68C9.07192 10.584 9.27192 10.456 9.39992 10.296C9.52792 10.128 9.59192 9.94003 9.59192 9.73203C9.59192 9.47603 9.49992 9.27203 9.31592 9.12003C9.13192 8.96003 8.89192 8.83603 8.59592 8.74803C8.30792 8.65203 7.98392 8.56403 7.62392 8.48403C7.27192 8.40403 6.91592 8.31203 6.55592 8.20803C6.20392 8.09603 5.87992 7.95603 5.58392 7.78803C5.29592 7.61203 5.05992 7.38003 4.87592 7.09203C4.69192 6.80403 4.59992 6.43603 4.59992 5.98803C4.59992 5.53203 4.71992 5.11603 4.95992 4.74003C5.20792 4.35603 5.57992 4.05203 6.07592 3.82803C6.57992 3.59603 7.21592 3.48003 7.98392 3.48003C8.48792 3.48003 8.98792 3.54403 9.48392 3.67203C9.97992 3.80003 10.4119 3.98403 10.7799 4.22403L10.2879 5.43603C9.91192 5.21203 9.52392 5.04803 9.12392 4.94403C8.72392 4.83203 8.33992 4.77603 7.97192 4.77603C7.53992 4.77603 7.18792 4.82803 6.91592 4.93203C6.65192 5.03603 6.45592 5.17203 6.32792 5.34003C6.20792 5.50803 6.14792 5.70003 6.14792 5.91603C6.14792 6.17203 6.23592 6.38003 6.41192 6.54003C6.59592 6.69203 6.83192 6.81203 7.11992 6.90003C7.41592 6.98803 7.74392 7.07603 8.10392 7.16403C8.46392 7.24403 8.81992 7.33603 9.17192 7.44003C9.53192 7.54403 9.85592 7.68003 10.1439 7.84803C10.4399 8.01604 10.6759 8.24403 10.8519 8.53203C11.0359 8.82003 11.1279 9.18403 11.1279 9.62403C11.1279 10.072 11.0039 10.488 10.7559 10.872C10.5159 11.248 10.1439 11.552 9.63992 11.784C9.13592 12.008 8.49992 12.12 7.73192 12.12Z" fill="#21AE8C"/>
<rect x="0.5" y="0.5" width="15" height="15" rx="7.5" stroke="#21AE8C"/>
</g>
<defs>
<clipPath id="clip0_6069_62395">
<rect width="16" height="16" fill="white"/>
</clipPath>
</defs>
</svg>
