<svg width="24" height="24" viewBox="0 0 24 24" fill="none" xmlns="http://www.w3.org/2000/svg">
    <path d="M21.9817 18.2685C21.9926 18.2349 22 18.1994 22 18.162V5.83606C22 5.79848 21.9926 5.76275 21.9814 5.72888C21.9798 5.72424 21.9789 5.71959 21.977 5.71495C21.9622 5.67528 21.9404 5.63955 21.913 5.60823C21.9111 5.60614 21.9109 5.60359 21.9091 5.6015C21.9079 5.60034 21.9065 5.59988 21.9053 5.59872C21.8761 5.56763 21.8415 5.54257 21.8028 5.52378C21.7998 5.52239 21.7975 5.52053 21.7944 5.51914C21.7578 5.50267 21.7179 5.49339 21.6759 5.4906C21.6717 5.49037 21.6678 5.48944 21.6636 5.48944C21.6596 5.48921 21.6562 5.48828 21.6522 5.48828H2.34824C2.3443 5.48828 2.34058 5.48921 2.33664 5.48944C2.33293 5.48967 2.32922 5.49037 2.3255 5.4906C2.28305 5.49339 2.24245 5.5029 2.20532 5.5196C2.203 5.52053 2.20115 5.52215 2.19883 5.52308C2.15939 5.54188 2.12435 5.5674 2.09489 5.59895C2.09373 5.60011 2.09234 5.60034 2.09118 5.6015C2.08932 5.60336 2.08909 5.60591 2.08723 5.608C2.05986 5.63932 2.03782 5.67528 2.02297 5.71495C2.02111 5.71959 2.02018 5.72424 2.01856 5.72911C2.00742 5.76298 2 5.79871 2 5.8363V18.1625C2 18.2006 2.00766 18.2368 2.01902 18.2711C2.02065 18.2757 2.02158 18.2801 2.0232 18.2848C2.03828 18.3247 2.06055 18.3606 2.08816 18.392C2.08979 18.3938 2.09025 18.3961 2.09187 18.398C2.09327 18.3996 2.09512 18.4005 2.09675 18.4022C2.10811 18.414 2.12064 18.4244 2.13363 18.4347C2.13944 18.4391 2.14454 18.4444 2.15057 18.4486C2.16588 18.4592 2.18236 18.4678 2.19929 18.4757C2.20347 18.4776 2.20718 18.4806 2.21136 18.4822C2.25335 18.5001 2.29952 18.5103 2.34801 18.5103H21.6518C21.7003 18.5103 21.7464 18.5003 21.7884 18.4822C21.7949 18.4794 21.8009 18.4753 21.8072 18.472C21.8216 18.4648 21.836 18.4574 21.8492 18.4483C21.8562 18.4435 21.8624 18.4372 21.8692 18.4319C21.881 18.4224 21.8926 18.4128 21.9028 18.4019C21.9046 18.4001 21.9067 18.3987 21.9086 18.3968C21.9104 18.3947 21.9109 18.392 21.9128 18.3899C21.9399 18.3588 21.9617 18.3231 21.9766 18.2836C21.9789 18.2785 21.98 18.2736 21.9817 18.2685ZM2.69625 6.62536L8.55368 11.9757L2.69625 17.3688V6.62536ZM14.7016 11.7136C14.6775 11.7293 14.6519 11.7426 14.6318 11.7648C14.6241 11.7732 14.6215 11.7841 14.6148 11.7929L12.0001 14.1812L3.24517 6.18408H20.7551L14.7016 11.7136ZM9.06966 12.4469L11.7653 14.9093C11.8319 14.9701 11.9159 15.0004 12.0001 15.0004C12.0843 15.0004 12.1683 14.9701 12.2347 14.9093L14.8969 12.4776L20.7534 17.8143H3.24007L9.06966 12.4469ZM15.4131 12.0061L21.304 6.62536V17.3744L15.4131 12.0061Z" fill="currentColor" stroke="currentColor" stroke-width="0.5"/>
</svg>