<svg width="24" height="24" viewBox="0 0 24 24" fill="none" xmlns="http://www.w3.org/2000/svg">
    <path d="M12.0006 5C12.8603 5 13.7015 5.11388 14.5242 5.34163C15.3469 5.56939 16.0806 5.86794 16.7252 6.23728C17.3699 6.60663 17.9805 7.02418 18.5572 7.48994C19.1338 7.9557 19.6291 8.43646 20.043 8.9322C20.457 9.42795 20.8133 9.90871 21.112 10.3745C21.4108 10.8402 21.6335 11.2578 21.7801 11.6271C21.9267 11.9965 22 12.2874 22 12.5C22 12.7126 21.9267 13.0035 21.7801 13.3729C21.6335 13.7422 21.408 14.1598 21.1038 14.6255C20.7995 15.0913 20.4404 15.572 20.0265 16.0678C19.6126 16.5635 19.1173 17.0443 18.5407 17.5101C17.964 17.9758 17.3534 18.3934 16.7087 18.7627C16.0641 19.1321 15.3304 19.4306 14.5077 19.6584C13.6849 19.8861 12.8491 20 12 20C11.1509 20 10.3151 19.8861 9.49234 19.6584C8.66962 19.4306 7.93593 19.1321 7.29127 18.7627C6.64662 18.3934 6.03597 17.9758 5.45932 17.5101C4.88267 17.0443 4.38738 16.5635 3.97347 16.0678C3.55955 15.572 3.20047 15.0913 2.89623 14.6255C2.59198 14.1598 2.36655 13.7422 2.21993 13.3729C2.07331 13.0035 2 12.7126 2 12.5C2 12.2874 2.07331 11.9965 2.21993 11.6271C2.36655 11.2578 2.58923 10.8402 2.88797 10.3745C3.18671 9.90871 3.54304 9.42795 3.95696 8.9322C4.37087 8.43646 4.86616 7.9557 5.44281 7.48994C6.01946 7.02418 6.63011 6.60663 7.27476 6.23728C7.91942 5.86794 8.65311 5.56939 9.47583 5.34163C10.2985 5.11388 11.1397 5 11.9994 5H12.0006ZM16.5289 9.02331C16.3717 8.87147 16.2773 8.81074 16.2459 8.8411C16.2144 8.87147 16.2406 8.98288 16.3243 9.17533C16.5865 9.75232 16.7176 10.3545 16.7176 10.982C16.7176 12.2373 16.2563 13.3102 15.3337 14.2008C14.4112 15.0913 13.3001 15.5367 12.0006 15.5371C10.7011 15.5375 9.59002 15.0921 8.66745 14.2008C7.74489 13.3095 7.28361 12.2366 7.28361 10.982C7.28361 10.3849 7.40409 9.80793 7.64505 9.25106C7.72877 9.05861 7.75236 8.9472 7.7158 8.91683C7.67925 8.88646 7.58746 8.9472 7.44045 9.09904C6.70656 9.79749 5.86792 10.7288 4.92453 11.893C4.78813 12.0551 4.70951 12.2601 4.68868 12.508C4.66785 12.7558 4.71502 12.9709 4.83019 13.1531C5.06093 13.5175 5.30719 13.8768 5.56899 14.2309C5.83078 14.5851 6.19772 15.0002 6.66981 15.4762C7.1419 15.9522 7.62677 16.3622 8.12441 16.7061C8.62205 17.05 9.21423 17.3461 9.90094 17.5943C10.5877 17.8426 11.2873 17.9665 12 17.9661C12.7127 17.9658 13.4123 17.8443 14.0991 17.6017C14.7858 17.3592 15.3779 17.0631 15.8756 16.7135C16.3732 16.3639 16.8581 15.9515 17.3302 15.4762C17.8023 15.0009 18.1692 14.5885 18.431 14.2389C18.6928 13.8893 18.9391 13.5325 19.1698 13.1685C19.285 12.9863 19.3322 12.7712 19.3113 12.5233C19.2905 12.2755 19.2172 12.0654 19.0914 11.893C18.148 10.7087 17.2936 9.75213 16.5283 9.02331H16.5289ZM9.61085 10.572L9.06073 11.1187C8.9035 11.2705 8.8013 11.4654 8.75413 11.7034C8.70696 11.9414 8.73054 12.1515 8.82488 12.3337C9.21285 13.0219 9.70028 13.609 10.2871 14.0949C10.455 14.2266 10.6568 14.2822 10.8927 14.2617C11.1285 14.2412 11.3198 14.1552 11.4664 14.0038L12.0165 13.4873C12.1631 13.3355 12.2286 13.166 12.2129 12.9789C12.1971 12.7917 12.1107 12.6222 11.9534 12.4704C11.4923 12.0251 11.0259 11.433 10.5542 10.6939C10.4391 10.5117 10.2923 10.4105 10.1138 10.3904C9.93534 10.3703 9.76769 10.431 9.61085 10.5726V10.572Z" fill="#1A86D0"/>
</svg>
