<svg width="24" height="24" viewBox="0 0 24 24" fill="none" xmlns="http://www.w3.org/2000/svg">
    <path d="M0 12C0 5.37258 5.37258 0 12 0C18.6274 0 24 5.37258 24 12C24 18.6274 18.6274 24 12 24C5.37258 24 0 18.6274 0 12Z" fill="#E8F3FA"/>
    <path fill-rule="evenodd" clip-rule="evenodd" d="M14.5534 8.24219H9.44663C8.5249 8.24874 7.64378 8.59731 6.99733 9.21111C6.35088 9.82491 5.99214 10.6536 6.00013 11.5146V14.7342C5.9873 16.5248 7.52983 17.9866 9.44663 18.0002H14.5534C15.4745 17.9937 16.3551 17.6456 17.0014 17.0325C17.6478 16.4193 18.0069 15.5915 17.9999 14.731V11.5146C18.0079 10.6536 17.6491 9.82491 17.0027 9.21111C16.3562 8.59731 15.4751 8.24874 14.5534 8.24219Z" fill="#1A86D0" stroke="#1A86D0" stroke-width="1.25" stroke-linecap="round" stroke-linejoin="round"/>
    <path d="M12.6283 11.2451C12.6283 10.8999 12.3484 10.6201 12.0033 10.6201C11.6581 10.6201 11.3783 10.8999 11.3783 11.2451H12.6283ZM11.3783 12.7464C11.3783 13.0916 11.6581 13.3714 12.0033 13.3714C12.3484 13.3714 12.6283 13.0916 12.6283 12.7464H11.3783ZM12.6283 12.7464C12.6283 12.4012 12.3484 12.1214 12.0033 12.1214C11.6581 12.1214 11.3783 12.4012 11.3783 12.7464H12.6283ZM11.3783 14.2477C11.3783 14.5929 11.6581 14.8727 12.0033 14.8727C12.3484 14.8727 12.6283 14.5929 12.6283 14.2477H11.3783ZM12.0026 13.3714C12.3478 13.3714 12.6276 13.0916 12.6276 12.7464C12.6276 12.4012 12.3478 12.1214 12.0026 12.1214V13.3714ZM10.4023 12.1214C10.0572 12.1214 9.77734 12.4012 9.77734 12.7464C9.77734 13.0916 10.0572 13.3714 10.4023 13.3714V12.1214ZM12.0029 12.1214C11.6578 12.1214 11.3779 12.4012 11.3779 12.7464C11.3779 13.0916 11.6578 13.3714 12.0029 13.3714V12.1214ZM13.6032 13.3714C13.9484 13.3714 14.2282 13.0916 14.2282 12.7464C14.2282 12.4012 13.9484 12.1214 13.6032 12.1214V13.3714ZM11.3783 11.2451V12.7464H12.6283V11.2451H11.3783ZM11.3783 12.7464V14.2477H12.6283V12.7464H11.3783ZM12.0026 12.1214H10.4023V13.3714H12.0026V12.1214ZM12.0029 13.3714H13.6032V12.1214H12.0029V13.3714Z" fill="white"/>
    <path d="M8.97656 8.24194C8.97656 8.58712 9.25638 8.86694 9.60156 8.86694C9.94674 8.86694 10.2266 8.58712 10.2266 8.24194H8.97656ZM13.7765 8.24194C13.7765 8.58712 14.0563 8.86694 14.4015 8.86694C14.7466 8.86694 15.0265 8.58712 15.0265 8.24194H13.7765ZM10.2266 8.24194C10.2266 7.38834 10.9805 6.625 12.0015 6.625V5.375C10.3717 5.375 8.97656 6.61916 8.97656 8.24194H10.2266ZM12.0015 6.625C13.0226 6.625 13.7765 7.38834 13.7765 8.24194H15.0265C15.0265 6.61916 13.6314 5.375 12.0015 5.375V6.625Z" fill="#1A86D0"/>
</svg>
