<svg width="24" height="25" viewBox="0 0 24 25" fill="none" xmlns="http://www.w3.org/2000/svg">
<path fill-rule="evenodd" clip-rule="evenodd" d="M5.05545 6.30191C5.15349 6.0398 5.38745 5.82584 5.65839 5.75047C5.75683 5.72307 6.28367 5.71282 7.66979 5.71131C9.7478 5.70907 9.77009 5.71086 10.0243 5.8993C10.1174 5.96837 10.3094 6.21756 10.6862 6.75877L11.217 7.52096L16.9355 7.53892L17.085 7.60872C17.2603 7.69056 17.4452 7.87664 17.5415 8.06816C17.6093 8.20295 17.6101 8.2155 17.6183 9.37612L17.6266 10.548L18.1608 10.5489C18.836 10.5501 19.0834 10.5822 19.3129 10.6983C19.4879 10.7869 19.711 10.9916 19.8253 11.1686C19.9068 11.2947 20 11.618 20 11.7745C20 11.8468 19.9851 11.9776 19.9669 12.0652C19.9503 12.1449 19.6479 12.7994 19.1206 13.8983L18.3145 13.5296C18.7959 12.5223 19.1208 11.8199 19.1206 11.7827C19.12 11.6607 18.9954 11.5286 18.8437 11.4892C18.6739 11.4451 8.83677 11.4467 8.67607 11.4909C8.61727 11.507 8.5427 11.5499 8.51038 11.5861C8.46355 11.6385 6.12903 16.7445 6.12903 16.7945C6.12903 16.802 8.5149 16.8081 11.431 16.8081H13V17.7109C12.4758 17.7106 11.9212 17.7098 11.349 17.7089L5.70381 17.7002L5.53798 17.6201C5.34223 17.5254 5.16208 17.344 5.0678 17.1466L5 17.0047V11.7274C5 6.62368 5.00182 6.44534 5.05545 6.30191ZM10.6003 8.15858C10.5524 8.10738 10.2889 7.74288 10.0147 7.34858L9.51613 6.63167L5.8651 6.61609L5.86628 10.9031C5.86727 14.554 5.87343 15.1788 5.90768 15.1139C5.92982 15.0719 6.33264 14.1874 6.80284 13.1481C7.27302 12.1089 7.69812 11.1974 7.74751 11.1226C7.94645 10.8211 8.24956 10.6375 8.64598 10.5784C8.76387 10.5608 10.4122 10.549 12.7933 10.5486L16.7449 10.548V8.43251L11.0117 8.41594L10.8496 8.3338C10.7604 8.28862 10.6482 8.20978 10.6003 8.15858Z" fill="currentColor"/>
<path d="M18.65 14.8741C18.8222 14.5186 18.9795 14.1925 19.1206 13.8983M17.927 14.3358C18.0642 14.0518 18.1942 13.7812 18.3145 13.5296M18.3145 13.5296C18.7959 12.5223 19.1208 11.8199 19.1206 11.7827C19.12 11.6607 18.9954 11.5286 18.8437 11.4892C18.6739 11.4451 8.83677 11.4467 8.67607 11.4909C8.61727 11.507 8.5427 11.5499 8.51038 11.5861C8.46355 11.6385 6.12903 16.7445 6.12903 16.7945C6.12903 16.802 8.5149 16.8081 11.431 16.8081H13V17.7109C12.4758 17.7106 11.9212 17.7098 11.349 17.7089L5.70381 17.7002L5.53798 17.6201C5.34223 17.5254 5.16208 17.344 5.0678 17.1466L5 17.0047V11.7274C5 6.62368 5.00182 6.44534 5.05545 6.30191C5.15349 6.0398 5.38745 5.82584 5.65839 5.75047C5.75683 5.72307 6.28367 5.71282 7.66979 5.71131C9.7478 5.70907 9.77009 5.71086 10.0243 5.8993C10.1174 5.96837 10.3094 6.21756 10.6862 6.75877L11.217 7.52096L16.9355 7.53892L17.085 7.60872C17.2603 7.69056 17.4452 7.87664 17.5415 8.06816C17.6093 8.20295 17.6101 8.2155 17.6183 9.37612L17.6266 10.548L18.1608 10.5489C18.836 10.5501 19.0834 10.5822 19.3129 10.6983C19.4879 10.7869 19.711 10.9916 19.8253 11.1686C19.9068 11.2947 20 11.618 20 11.7745C20 11.8468 19.9851 11.9776 19.9669 12.0652C19.9503 12.1449 19.6479 12.7994 19.1206 13.8983M18.3145 13.5296L19.1206 13.8983M10.0147 7.34858C10.2889 7.74288 10.5524 8.10738 10.6003 8.15858C10.6482 8.20978 10.7604 8.28862 10.8496 8.3338L11.0117 8.41594L16.7449 8.43251V10.548L12.7933 10.5486C10.4122 10.549 8.76387 10.5608 8.64598 10.5784C8.24956 10.6375 7.94645 10.8211 7.74751 11.1226C7.69812 11.1974 7.27302 12.1089 6.80284 13.1481C6.33264 14.1874 5.92982 15.0719 5.90768 15.1139C5.87343 15.1788 5.86727 14.554 5.86628 10.9031L5.8651 6.61609L9.51613 6.63167L10.0147 7.34858Z" stroke="currentColor" stroke-width="0.5"/>
<path fill-rule="evenodd" clip-rule="evenodd" d="M19.7083 17.2109C19.7083 18.9829 18.2719 20.4193 16.5 20.4193C14.7281 20.4193 13.2917 18.9829 13.2917 17.2109C13.2917 15.439 14.7281 14.0026 16.5 14.0026C18.2719 14.0026 19.7083 15.439 19.7083 17.2109ZM20.625 17.2109C20.625 19.4891 18.7782 21.3359 16.5 21.3359C14.2218 21.3359 12.375 19.4891 12.375 17.2109C12.375 14.9328 14.2218 13.0859 16.5 13.0859C18.7782 13.0859 20.625 14.9328 20.625 17.2109ZM15.4491 15.5118C15.2701 15.3329 14.9799 15.3329 14.8009 15.5118C14.6219 15.6908 14.6219 15.981 14.8009 16.16L15.8518 17.2109L14.8009 18.2618C14.6219 18.4408 14.6219 18.731 14.8009 18.91C14.9799 19.089 15.2701 19.089 15.4491 18.91L16.5 17.8591L17.5509 18.91C17.7299 19.089 18.0201 19.089 18.1991 18.91C18.3781 18.731 18.3781 18.4408 18.1991 18.2618L17.1482 17.2109L18.1991 16.16C18.3781 15.981 18.3781 15.6908 18.1991 15.5118C18.0201 15.3329 17.7299 15.3329 17.5509 15.5118L16.5 16.5628L15.4491 15.5118Z" fill="currentColor"/>
<path d="M15.4491 15.5118L15.6259 15.3351L15.4491 15.5118ZM14.8009 16.16L14.9777 15.9833L14.8009 16.16ZM15.8518 17.2109L16.0286 17.3877L16.2054 17.2109L16.0286 17.0342L15.8518 17.2109ZM14.8009 18.2618L14.6241 18.0851L14.8009 18.2618ZM14.8009 18.91L14.6241 19.0868L14.8009 18.91ZM15.4491 18.91L15.2723 18.7333V18.7333L15.4491 18.91ZM16.5 17.8591L16.6768 17.6823L16.5 17.5056L16.3232 17.6823L16.5 17.8591ZM17.5509 18.91L17.7277 18.7333L17.5509 18.91ZM18.1991 18.91L18.3759 19.0868H18.3759L18.1991 18.91ZM18.1991 18.2618L18.3759 18.0851V18.0851L18.1991 18.2618ZM17.1482 17.2109L16.9714 17.0342L16.7946 17.2109L16.9714 17.3877L17.1482 17.2109ZM18.1991 16.16L18.0223 15.9833H18.0223L18.1991 16.16ZM18.1991 15.5118L18.3759 15.3351L18.1991 15.5118ZM17.5509 15.5118L17.3741 15.3351L17.5509 15.5118ZM16.5 16.5628L16.3232 16.7395L16.5 16.9163L16.6768 16.7395L16.5 16.5628ZM16.5 20.6693C18.41 20.6693 19.9583 19.1209 19.9583 17.2109H19.4583C19.4583 18.8448 18.1338 20.1693 16.5 20.1693V20.6693ZM13.0417 17.2109C13.0417 19.1209 14.59 20.6693 16.5 20.6693V20.1693C14.8662 20.1693 13.5417 18.8448 13.5417 17.2109H13.0417ZM16.5 13.7526C14.59 13.7526 13.0417 15.301 13.0417 17.2109H13.5417C13.5417 15.5771 14.8662 14.2526 16.5 14.2526V13.7526ZM19.9583 17.2109C19.9583 15.301 18.41 13.7526 16.5 13.7526V14.2526C18.1338 14.2526 19.4583 15.5771 19.4583 17.2109H19.9583ZM16.5 21.5859C18.9162 21.5859 20.875 19.6272 20.875 17.2109H20.375C20.375 19.351 18.6401 21.0859 16.5 21.0859V21.5859ZM12.125 17.2109C12.125 19.6272 14.0838 21.5859 16.5 21.5859V21.0859C14.3599 21.0859 12.625 19.351 12.625 17.2109H12.125ZM16.5 12.8359C14.0838 12.8359 12.125 14.7947 12.125 17.2109H12.625C12.625 15.0708 14.3599 13.3359 16.5 13.3359V12.8359ZM20.875 17.2109C20.875 14.7947 18.9162 12.8359 16.5 12.8359V13.3359C18.6401 13.3359 20.375 15.0708 20.375 17.2109H20.875ZM14.9777 15.6886C15.059 15.6073 15.191 15.6073 15.2723 15.6886L15.6259 15.3351C15.3492 15.0584 14.9008 15.0584 14.6241 15.3351L14.9777 15.6886ZM14.9777 15.9833C14.8963 15.9019 14.8963 15.77 14.9777 15.6886L14.6241 15.3351C14.3475 15.6117 14.3475 16.0602 14.6241 16.3368L14.9777 15.9833ZM16.0286 17.0342L14.9777 15.9833L14.6241 16.3368L15.675 17.3877L16.0286 17.0342ZM14.9777 18.4386L16.0286 17.3877L15.675 17.0342L14.6241 18.0851L14.9777 18.4386ZM14.9777 18.7333C14.8963 18.6519 14.8963 18.52 14.9777 18.4386L14.6241 18.0851C14.3475 18.3617 14.3475 18.8102 14.6241 19.0868L14.9777 18.7333ZM15.2723 18.7333C15.191 18.8146 15.059 18.8146 14.9777 18.7333L14.6241 19.0868C14.9008 19.3634 15.3492 19.3634 15.6259 19.0868L15.2723 18.7333ZM16.3232 17.6823L15.2723 18.7333L15.6259 19.0868L16.6768 18.0359L16.3232 17.6823ZM17.7277 18.7333L16.6768 17.6823L16.3232 18.0359L17.3741 19.0868L17.7277 18.7333ZM18.0223 18.7333C17.941 18.8146 17.809 18.8146 17.7277 18.7333L17.3741 19.0868C17.6508 19.3634 18.0992 19.3634 18.3759 19.0868L18.0223 18.7333ZM18.0223 18.4386C18.1037 18.52 18.1037 18.6519 18.0223 18.7333L18.3759 19.0868C18.6525 18.8102 18.6525 18.3617 18.3759 18.0851L18.0223 18.4386ZM16.9714 17.3877L18.0223 18.4386L18.3759 18.0851L17.325 17.0342L16.9714 17.3877ZM18.0223 15.9833L16.9714 17.0342L17.325 17.3877L18.3759 16.3368L18.0223 15.9833ZM18.0223 15.6886C18.1037 15.77 18.1037 15.9019 18.0223 15.9833L18.3759 16.3368C18.6525 16.0602 18.6525 15.6117 18.3759 15.3351L18.0223 15.6886ZM17.7277 15.6886C17.809 15.6073 17.941 15.6073 18.0223 15.6886L18.3759 15.3351C18.0992 15.0584 17.6508 15.0584 17.3741 15.3351L17.7277 15.6886ZM16.6768 16.7395L17.7277 15.6886L17.3741 15.3351L16.3232 16.386L16.6768 16.7395ZM15.2723 15.6886L16.3232 16.7395L16.6768 16.386L15.6259 15.3351L15.2723 15.6886Z" fill="currentColor"/>
</svg>
