<svg width="136" height="135" viewBox="0 0 136 135" fill="none" xmlns="http://www.w3.org/2000/svg">
<g clip-path="url(#clip0)">
<path d="M83.75 78.75H81.275C80.3441 78.7517 79.5113 78.1709 79.1915 77.2965C78.917 76.5765 78.6223 75.8722 78.305 75.1747C77.9107 74.3265 78.0907 73.3222 78.755 72.6637L80.519 70.8975C83.1377 68.2557 83.1329 63.9953 80.5077 61.3597L74.1493 55.0012C71.5103 52.3777 67.2482 52.3777 64.6093 55.0012L62.8452 56.763C62.1854 57.4248 61.1828 57.6045 60.3343 57.213C59.6367 56.8957 58.9325 56.601 58.2103 56.313C57.3313 55.9955 56.7466 55.1596 56.75 54.225V51.75C56.75 48.022 53.728 45 50 45H41C37.272 45 34.25 48.022 34.25 51.75V54.225C34.2517 55.1559 33.6709 55.9887 32.7965 56.3085C32.0765 56.583 31.3723 56.8778 30.6748 57.195C29.8262 57.5873 28.8233 57.4076 28.1637 56.745L26.3975 54.981C23.7588 52.3592 19.4984 52.3592 16.8597 54.981L10.5013 61.3597C7.87775 63.9987 7.87775 68.2608 10.5013 70.8997L12.263 72.6637C12.9273 73.3222 13.1073 74.3265 12.713 75.1747C12.3958 75.8722 12.101 76.5765 11.8243 77.2987C11.5022 78.1782 10.6616 78.7596 9.725 78.75H7.25C3.52203 78.75 0.5 81.772 0.5 85.5V94.5C0.5 98.228 3.52203 101.25 7.25 101.25H9.725C10.6559 101.248 11.4887 101.829 11.8085 102.703C12.083 103.424 12.3778 104.128 12.695 104.825C13.0893 105.674 12.9093 106.678 12.245 107.336L10.481 109.103C7.85919 111.741 7.85919 116.002 10.481 118.64L16.8395 124.999C19.4785 127.622 23.7405 127.622 26.3795 124.999L28.1435 123.237C28.8033 122.575 29.806 122.396 30.6545 122.787C31.352 123.104 32.0562 123.399 32.7785 123.687C33.6619 124.001 34.2517 124.838 34.25 125.775V128.25C34.25 131.978 37.272 135 41 135H50C53.728 135 56.75 131.978 56.75 128.25V125.775C56.7483 124.844 57.3291 124.011 58.2035 123.691C58.9235 123.417 59.6278 123.122 60.3253 122.805C61.1738 122.413 62.1767 122.592 62.8363 123.255L64.6025 125.019C67.2448 127.637 71.5041 127.632 74.1403 125.008L80.4987 118.649C83.1223 116.01 83.1223 111.748 80.4987 109.109L78.737 107.345C78.0727 106.687 77.8927 105.682 78.287 104.834C78.6042 104.137 78.899 103.432 79.187 102.71C79.5045 101.831 80.3404 101.247 81.275 101.25H83.75C87.478 101.25 90.5 98.228 90.5 94.5V85.5C90.5 81.772 87.478 78.75 83.75 78.75ZM86 94.5C86 95.7426 84.9926 96.75 83.75 96.75H81.275C78.478 96.7604 75.9748 98.4892 74.975 101.101C74.7365 101.731 74.4786 102.352 74.201 102.962C73.0442 105.516 73.5808 108.519 75.551 110.513L77.3105 112.275C78.1897 113.153 78.1905 114.578 77.3122 115.457C77.3116 115.458 77.3111 115.458 77.3105 115.459L70.952 121.817C70.0734 122.696 68.6491 122.696 67.7705 121.817L66.0065 120.056C64.0127 118.084 61.009 117.547 58.4555 118.705C57.8457 118.982 57.2248 119.241 56.5993 119.479C53.989 120.479 52.2612 122.98 52.25 125.775V128.25C52.25 129.493 51.2426 130.5 50 130.5H41C39.7574 130.5 38.75 129.493 38.75 128.25V125.775C38.7396 122.978 37.0107 120.475 34.3985 119.475C33.7685 119.236 33.1483 118.979 32.5378 118.701C29.984 117.545 26.9817 118.082 24.9868 120.051L23.225 121.811C22.3469 122.69 20.9221 122.691 20.0429 121.812C20.0424 121.812 20.0418 121.811 20.0413 121.811L13.6828 115.459C12.8044 114.58 12.8044 113.156 13.6828 112.277L15.4445 110.513C17.4147 108.519 17.9513 105.516 16.7945 102.962C16.5177 102.353 16.259 101.732 16.0205 101.106C15.0232 98.4929 12.5217 96.7624 9.725 96.75H7.25C6.00744 96.75 5 95.7426 5 94.5V85.5C5 84.2574 6.00744 83.25 7.25 83.25H9.725C12.522 83.2396 15.0252 81.5108 16.025 78.8985C16.2635 78.2685 16.5214 77.6483 16.799 77.0377C17.9558 74.484 17.4189 71.4814 15.449 69.4867L13.6805 67.725C12.8013 66.8469 12.8005 65.4221 13.6788 64.5429C13.6794 64.5424 13.6799 64.5418 13.6805 64.5412L20.039 58.1827C20.9176 57.3044 22.3419 57.3044 23.2205 58.1827L24.9845 59.9445C26.9783 61.9163 29.982 62.4533 32.5355 61.2945C33.1452 61.0178 33.7663 60.759 34.3918 60.5205C37.0057 59.524 38.7373 57.0223 38.75 54.225V51.75C38.75 50.5074 39.7574 49.5 41 49.5H50C51.2426 49.5 52.25 50.5074 52.25 51.75V54.225C52.2604 57.022 53.9893 59.5252 56.6015 60.525C57.2315 60.7635 57.8517 61.0214 58.4622 61.299C61.0157 62.4577 64.0195 61.9208 66.0133 59.949L67.775 58.1895C68.657 57.3171 70.0768 57.3171 70.9587 58.1895L77.3172 64.548C78.1956 65.4266 78.1956 66.8509 77.3172 67.7295L75.5555 69.4935C73.5856 71.4881 73.0487 74.4908 74.2055 77.0445C74.4822 77.6543 74.741 78.2753 74.9795 78.9008C75.9791 81.511 78.4799 83.2388 81.275 83.25H83.75C84.9926 83.25 86 84.2574 86 85.5V94.5Z" fill="#2B81BC"/>
<path d="M65.7069 89.1001C65.6844 88.5601 65.6462 88.0224 65.5809 87.4869C65.5089 86.9109 65.4234 86.3394 65.3042 85.7791C65.2254 85.4124 65.1219 85.0501 65.0229 84.6856C64.8969 84.2221 64.7552 83.7654 64.5977 83.3154C64.4874 83.0026 64.3727 82.6921 64.2556 82.3839C63.966 81.6633 63.6347 80.9599 63.2634 80.2779C63.2341 80.2261 63.2162 80.1699 63.1869 80.1181C62.6016 79.0764 61.9238 78.0889 61.1619 77.1684C61.0966 77.0873 61.0224 77.0109 60.9549 76.9321C60.6444 76.5654 60.3249 76.2099 59.9897 75.8701C59.8142 75.6878 59.6297 75.5168 59.4452 75.3413C59.2202 75.1321 58.9952 74.9251 58.7702 74.7271C58.4971 74.49 58.2189 74.2605 57.9354 74.0386L57.5664 73.7641C54.0848 71.1563 49.8517 69.7478 45.5019 69.7501C45.2769 69.7501 45.0519 69.7838 44.8269 69.7928C44.3477 69.8063 43.8662 69.8333 43.3824 69.8828C43.1282 69.9098 42.8717 69.9391 42.6174 69.9751C41.8839 70.0716 41.156 70.2077 40.4372 70.3823C29.6031 73.1819 23.0899 84.2345 25.8895 95.0685C27.7345 102.208 33.3122 107.781 40.4529 109.62C40.4889 109.62 40.5272 109.631 40.5654 109.64C41.3425 109.834 42.1297 109.985 42.9234 110.09C43.4477 110.156 43.9719 110.169 44.4984 110.194C44.8494 110.212 45.1734 110.264 45.5402 110.264C46.1814 110.264 46.8474 110.221 47.5269 110.153C47.5989 110.153 47.6709 110.133 47.7519 110.124C48.2987 110.063 48.8522 109.982 49.4169 109.87C49.6419 109.827 49.8512 109.771 50.0672 109.721C50.4632 109.629 50.8569 109.532 51.2619 109.413C51.5769 109.319 51.8829 109.208 52.1912 109.1C52.4994 108.992 52.8189 108.875 53.1384 108.754C53.4579 108.632 53.7257 108.493 54.0159 108.358C54.3939 108.185 54.7697 108.014 55.1409 107.811H55.1544C57.2542 106.687 59.1937 105.286 60.9212 103.646C61.3877 103.211 61.7936 102.714 62.1272 102.17C63.8833 99.355 65.037 96.2065 65.5157 92.9229C65.5787 92.4886 65.6349 92.0544 65.6687 91.6111C65.7002 91.2039 65.7227 90.7989 65.7317 90.3939C65.7317 90.2656 65.7497 90.1441 65.7497 90.0159C65.7519 89.6986 65.7204 89.4061 65.7069 89.1001ZM61.2227 90.5739C61.2227 90.7606 61.2069 90.9474 61.1957 91.1319C61.1552 91.6764 61.0854 92.2209 60.9932 92.7676C60.1522 97.4456 57.2477 101.496 53.0867 103.793C52.8077 103.939 52.5332 104.076 52.2587 104.202L52.0719 104.292C50.7647 104.886 49.3848 105.303 47.9679 105.534C47.8689 105.55 47.7677 105.568 47.6664 105.581C47.3852 105.622 47.1084 105.656 46.8339 105.68C46.4717 105.712 46.1072 105.73 45.7359 105.737C45.5784 105.737 45.4232 105.737 45.2657 105.737C44.7332 105.73 44.2017 105.698 43.6727 105.638L43.4027 105.606C42.7839 105.525 42.1702 105.41 41.5644 105.26C33.1376 103.103 28.0548 94.5229 30.2115 86.0961C31.6366 80.5279 35.9819 76.1781 41.5487 74.7473V74.7451C42.8413 74.4191 44.1688 74.2526 45.5019 74.2501C46.1451 74.2538 46.7878 74.2973 47.4257 74.3806C47.5967 74.4008 47.7654 74.4323 47.9342 74.4571C48.4202 74.5336 48.9017 74.6303 49.3764 74.7518C49.5317 74.7923 49.6869 74.8283 49.8399 74.8711C51.0363 75.2165 52.1881 75.7013 53.2712 76.3156C53.4444 76.4168 53.6132 76.5226 53.7842 76.6283C54.1397 76.8533 54.4839 77.0783 54.8237 77.3348C55.0059 77.4676 55.1904 77.5981 55.3659 77.7398C55.8075 78.0925 56.2302 78.468 56.6327 78.8648C56.7924 79.0268 56.9387 79.2046 57.0939 79.3734C57.3527 79.6546 57.6047 79.9426 57.8454 80.2464C58.0119 80.4556 58.1717 80.6716 58.3292 80.8899C58.5542 81.2139 58.7792 81.5513 58.9817 81.8933C59.0942 82.0801 59.2067 82.2624 59.3214 82.4536C59.6117 82.9877 59.8701 83.5384 60.0954 84.1029C60.1854 84.3279 60.2619 84.5529 60.3429 84.7779C60.4892 85.1919 60.6152 85.6104 60.7254 86.0334C60.7817 86.2584 60.8447 86.4586 60.8919 86.6769C61.0232 87.2849 61.1186 87.9003 61.1777 88.5196C61.1912 88.6839 61.1912 88.8504 61.2024 89.0146C61.2339 89.5321 61.2429 90.0519 61.2227 90.5739Z" fill="#2B81BC"/>
<path d="M128.751 47.25H121.674C120.731 47.2596 119.887 46.6653 119.577 45.774C118.88 43.684 118.035 41.6455 117.051 39.6742C116.633 38.8229 116.807 37.7994 117.483 37.134L122.5 32.1097C125.134 29.4742 125.134 25.2031 122.5 22.5675L112.933 13.0162C110.298 10.3826 106.027 10.3826 103.391 13.0162L98.3757 18.0292C97.7112 18.7048 96.6891 18.8797 95.8378 18.4635C93.8662 17.4738 91.8271 16.625 89.7357 15.9232C88.8408 15.617 88.2423 14.7721 88.2508 13.8262V6.75C88.2508 3.02203 85.2287 0 81.5007 0H68.0007C64.2728 0 61.2507 3.02203 61.2507 6.75V13.8262C61.2603 14.7698 60.6663 15.6139 59.7747 15.9232C57.6845 16.6247 55.646 17.4729 53.675 18.4612C52.8236 18.8806 51.7996 18.7065 51.1347 18.0292L46.1105 13.0117C43.4718 10.3857 39.2069 10.3857 36.5682 13.0117L27.0192 22.5607C24.3842 25.1966 24.3842 29.4694 27.0192 32.1052L34.397 39.4965C35.2894 40.3611 36.7139 40.3386 37.5785 39.4459C38.422 38.5751 38.4239 37.1925 37.583 36.3195L30.2007 28.9305C29.3224 28.0519 29.3224 26.6276 30.2007 25.749L39.7497 16.2C40.6284 15.3217 42.0526 15.3217 42.9312 16.2L47.9577 21.2175C49.9915 23.2633 53.1077 23.7746 55.6887 22.4865C57.471 21.5941 59.3138 20.828 61.2035 20.1937C63.9311 19.2704 65.7626 16.706 65.7507 13.8262V6.75C65.7507 5.50744 66.7582 4.5 68.0007 4.5H81.5007C82.7433 4.5 83.7508 5.50744 83.7508 6.75V13.8262C83.7392 16.7054 85.5707 19.269 88.298 20.1915C90.1886 20.826 92.0322 21.5927 93.815 22.4865C96.3966 23.7679 99.5086 23.256 101.544 21.2152L106.57 16.2C107.449 15.3217 108.873 15.3217 109.752 16.2L119.301 25.7512C120.178 26.6296 120.178 28.0522 119.301 28.9305L114.283 33.957C112.239 35.9918 111.728 39.1067 113.014 41.688C113.907 43.4703 114.673 45.313 115.307 47.2027C116.23 49.9309 118.794 51.7624 121.674 51.75H128.751C129.993 51.75 131.001 52.7574 131.001 54V67.5C131.001 68.7426 129.993 69.75 128.751 69.75H121.674C118.795 69.7385 116.232 71.57 115.309 74.2972C114.675 76.1878 113.908 78.0314 113.014 79.8142C111.731 82.3956 112.243 85.5087 114.285 87.543L119.303 92.5695C120.181 93.4481 120.181 94.8724 119.303 95.751L109.749 105.3C108.871 106.177 107.449 106.177 106.57 105.3L99.1767 97.9222C98.3122 97.0295 96.8877 97.0071 95.9953 97.8716C95.1026 98.7362 95.0801 100.161 95.9446 101.053C95.9626 101.072 95.9812 101.09 95.9997 101.108L103.391 108.486C106.027 111.12 110.298 111.12 112.933 108.486L122.482 98.9392C125.117 96.3034 125.117 92.0306 122.482 89.3947L117.471 84.375C116.797 83.7101 116.622 82.6883 117.037 81.837C118.027 79.8654 118.876 77.8264 119.577 75.735C119.884 74.8401 120.729 74.2416 121.674 74.25H128.751C132.479 74.25 135.501 71.228 135.501 67.5V54C135.501 50.272 132.479 47.25 128.751 47.25Z" fill="#005792"/>
<path d="M95.4311 40.068C84.0016 28.6625 65.4965 28.6625 54.0671 40.068C53.2039 40.9618 53.2286 42.3864 54.1225 43.2495C54.9943 44.0916 56.3767 44.0916 57.2486 43.2495C66.849 33.5194 82.5194 33.4145 92.2496 43.015C101.98 52.6154 102.085 68.2858 92.4841 78.016C92.4065 78.0947 92.3283 78.1729 92.2496 78.2505C91.3558 79.114 91.331 80.5382 92.1945 81.432C93.0579 82.3258 94.4821 82.3506 95.3759 81.4872C95.3945 81.4692 95.4131 81.4506 95.4311 81.432C106.837 70.0026 106.837 51.4975 95.4311 40.068Z" fill="#005792"/>
</g>
<defs>
<clipPath id="clip0">
<rect width="135" height="135" fill="white" transform="translate(0.5)"/>
</clipPath>
</defs>
</svg>
