<svg width="24" height="25" viewBox="0 0 24 25" fill="none" xmlns="http://www.w3.org/2000/svg">
<path d="M12.8754 19.104C12.6088 18.9806 12.3014 18.9806 12.0348 19.104L9.65351 20.207C9.08204 20.4717 8.41111 20.1486 8.26175 19.5368L7.63939 16.9873C7.56971 16.7019 7.37805 16.4616 7.11529 16.3301L4.76825 15.1561C4.20499 14.8743 4.03929 14.1483 4.42451 13.6501L6.02972 11.5739C6.20942 11.3415 6.27783 11.0418 6.21676 10.7544L5.67133 8.18741C5.54043 7.57137 6.00473 6.98915 6.63446 6.97969L9.25848 6.94023C9.55224 6.93582 9.8292 6.80244 10.0158 6.57552L11.6827 4.54858C12.0827 4.06214 12.8274 4.06214 13.2274 4.54858L14.8943 6.57552C15.081 6.80244 15.3579 6.93582 15.6517 6.94023L18.2757 6.97969C18.9054 6.98915 19.3697 7.57137 19.2388 8.18741L18.6934 10.7544C18.6323 11.0418 18.7007 11.3415 18.8804 11.5739L20.4856 13.6501C20.8709 14.1483 20.7052 14.8743 20.1419 15.1561L17.7949 16.3301C17.5321 16.4616 17.3404 16.7019 17.2708 16.9873L16.6484 19.5368C16.4991 20.1486 15.8281 20.4717 15.2566 20.207L12.8754 19.104Z" stroke="currentColor"/>
<path d="M12.4557 15.2551C13.9176 15.2551 15.1027 14.0699 15.1027 12.608C15.1027 11.1461 13.9176 9.96094 12.4557 9.96094C10.9937 9.96094 9.80859 11.1461 9.80859 12.608C9.80859 14.0699 10.9937 15.2551 12.4557 15.2551Z" stroke="currentColor"/>
</svg>
