<svg width="24" height="24" viewBox="0 0 24 24" fill="none" xmlns="http://www.w3.org/2000/svg">
    <path fill-rule="evenodd" clip-rule="evenodd" d="M12.658 3.03315C12.4656 3.01085 12.2489 3 12 3C10.4342 3 6.99999 4.57418 6.99999 9.24999C6.99999 13.5117 5.51081 14.7417 5.49999 14.75C5.38917 14.8333 5.32667 14.9658 5.33331 15.1042C5.34081 15.2433 5.41581 15.3683 5.53499 15.44C5.58499 15.47 6.70749 16.1333 8.92331 16.5033L8.73913 17.2391L5.54667 18.0375C3.45832 18.56 2 20.4283 2 22.5833C2 22.8133 2.18668 23 2.41668 23H21.5833C21.8133 23 22 22.8116 22 22.5816C22 20.4283 20.5416 18.56 18.4525 18.0375L15.26 17.2392L15.0758 16.5017C17.2783 16.1308 18.4116 15.4708 18.4616 15.4417C18.5799 15.3725 18.6533 15.2467 18.6633 15.11C18.6725 14.9733 18.6116 14.8392 18.5041 14.7533C18.4947 14.746 17.9011 14.2559 17.4625 12.8306C14.3361 12.13 12 9.3378 12 6C12 4.93943 12.2359 3.93395 12.658 3.03315Z" fill="currentColor"/>
    <path d="M16.4965 5.32245C16.6998 5.55803 16.9919 5.77415 17.3718 5.97491C17.7485 6.1726 18.2543 6.32112 18.8859 6.41535C19.0655 6.44506 19.2451 6.48295 19.4237 6.53314C19.6074 6.57923 19.7726 6.64479 19.9253 6.72571C20.076 6.80765 20.202 6.90598 20.298 7.01967C20.395 7.13132 20.4435 7.26755 20.4435 7.42221C20.4435 7.60658 20.3506 7.75408 20.1648 7.87085C19.9749 7.98454 19.7457 8.04088 19.4609 8.04088C19.2451 8.04088 19.0521 8.02449 18.8839 7.99069C18.7208 7.95894 18.5649 7.9067 18.4308 7.83705C18.2945 7.7674 18.1603 7.67931 18.0292 7.57073C17.9002 7.46421 17.7671 7.33822 17.6319 7.19073H16.0733V9.51174H17.6319V9.16553C17.7062 9.20343 17.7826 9.23928 17.8641 9.27206C17.9384 9.30586 18.0189 9.33966 18.1005 9.37653V10.283H19.659V9.58549C19.9935 9.56398 20.3041 9.4933 20.588 9.37551C20.8739 9.25977 21.1227 9.10305 21.3301 8.91151C21.5376 8.721 21.7007 8.49771 21.8204 8.24368C21.9401 7.98966 22 7.71516 22 7.42119C22 7.26755 21.9742 7.06679 21.9154 6.81892C21.8607 6.57309 21.7316 6.32112 21.5324 6.0671C21.3353 5.81308 21.0401 5.57852 20.6592 5.36137C20.2763 5.1432 19.7623 4.98751 19.1172 4.89123C18.0767 4.73759 17.5586 4.42108 17.5586 3.94275C17.5586 3.77272 17.6391 3.61498 17.8063 3.46646C17.9735 3.31999 18.215 3.24624 18.5237 3.24624C18.7394 3.24624 18.9272 3.26468 19.0862 3.30053C19.2451 3.33842 19.3927 3.39271 19.5259 3.46031C19.659 3.52996 19.786 3.61805 19.9047 3.72662C20.0234 3.83315 20.1442 3.95709 20.2711 4.09639H21.84V1.77538H20.2835V2.10622C20.0977 1.99457 19.8882 1.90648 19.659 1.83991V1H18.1015V1.73031C17.797 1.77435 17.5194 1.86244 17.2634 1.99048C17.0074 2.11851 16.7855 2.28035 16.5966 2.47701C16.4056 2.6706 16.2601 2.89491 16.1559 3.14484C16.0495 3.39476 16 3.65902 16 3.9407C16 4.13121 16.032 4.35041 16.095 4.59726C16.16 4.84309 16.2931 5.08686 16.4965 5.32245Z" fill="currentColor"/>
</svg>
