<svg width="24" height="24" viewBox="0 0 24 24" xmlns="http://www.w3.org/2000/svg">
<path fill-rule="evenodd" clip-rule="evenodd" d="M6 6.64628V7.29334H12.2098L19.058 7.26291V6.61586V5.9688L12.2098 5.99922H6V6.64628ZM6 11.058V11.766L12.1808 11.7356L19 11.6747V11.0276V10.3806L12.1808 10.3805L6 10.35V11.058ZM15.8661 13.8816V14.8228H14.9375H14.0089V15.4698V16.1169H14.9375H15.8661V17.058V17.9992H16.5045H17.1429V17.058V16.1169H18.0714H19V15.4698V14.8228H18.0714H17.1429V13.8816V12.9404H16.5045H15.8661V13.8816ZM6 15.4698V16.1169H9.13393H12.2679V15.4698V14.8228H9.13393H6V15.4698Z"/>
</svg>
