<svg width="25" height="25" viewBox="0 0 25 25" fill="none" xmlns="http://www.w3.org/2000/svg">
<path fill-rule="evenodd" clip-rule="evenodd" d="M13.6312 17.2467L14.7562 16.1223H12.5H10.2438L11.3687 17.2467C11.9875 17.8651 12.4965 18.3711 12.5 18.3711C12.5035 18.3711 13.0125 17.8651 13.6312 17.2467ZM18.5 13.8734V13.1238H12.5L6.5 13.1238V13.8734V14.623L12.5 14.623H18.5V13.8734ZM18.5 10.875V10.1254H12.5L6.5 10.1254L6.5 10.875V11.6246L12.5 11.6246H18.5V10.875ZM13.6281 7.49863L12.5 6.37109L11.3719 7.49863L10.2438 8.62616L12.5 8.62616H14.7562L13.6281 7.49863Z" fill="#9DA8AF"/>
</svg>
