<svg width="24" height="24" viewBox="0 0 24 24" xmlns="http://www.w3.org/2000/svg">
<path fill-rule="evenodd" clip-rule="evenodd" d="M11.7299 6.00776C9.75232 6.12331 8.07835 7.72007 7.75954 9.79501C7.74178 9.91049 7.72006 10.1251 7.71125 10.2719L7.69523 10.5389H7.63189C7.50339 10.5389 7.19072 10.6408 6.97384 10.7533C6.78287 10.8523 6.71842 10.9032 6.52658 11.1066C6.27967 11.3683 6.15577 11.5832 6.05417 11.9263C6.00438 12.0944 5.99923 12.1569 6.00008 12.5829C6.00095 13.0277 6.00449 13.0645 6.06453 13.2518C6.17008 13.581 6.29782 13.7956 6.53884 14.0484C6.72798 14.2469 6.78569 14.2908 6.99951 14.3995C7.27344 14.5388 7.5049 14.602 7.74178 14.6022L7.90156 14.6023L8.32433 15.314C8.76085 16.049 8.87589 16.2159 9.12595 16.477C9.39541 16.7584 9.82069 17.0323 10.2033 17.1708C10.4217 17.2499 10.8569 17.3273 11.0831 17.3273H11.2655L11.3397 17.4864C11.6775 18.2102 12.6458 18.1576 12.9185 17.4007C12.9704 17.2566 12.9771 16.9929 12.9326 16.8442C12.8547 16.5837 12.6875 16.3832 12.4504 16.2659C12.337 16.2099 12.2855 16.2 12.1057 16.2C11.9253 16.2 11.8745 16.2098 11.7596 16.2666C11.5881 16.3514 11.4156 16.533 11.3342 16.7147L11.2705 16.8566H11.0742C10.8672 16.8566 10.526 16.7924 10.3084 16.7125C9.90923 16.566 9.50773 16.2669 9.24075 15.9173C9.13387 15.7773 8.43002 14.6452 8.43002 14.6133C8.43002 14.6071 8.48549 14.602 8.55332 14.602C8.70507 14.602 8.81426 14.5462 8.90983 14.4201L8.98195 14.3249L8.98902 12.6239C8.99377 11.4797 8.98794 10.8934 8.97122 10.8327C8.94034 10.7206 8.79218 10.5758 8.67242 10.5407C8.62305 10.5262 8.48493 10.5144 8.36543 10.5143L8.14818 10.5141V10.3653C8.14818 10.1806 8.2048 9.77554 8.26751 9.51168C8.50165 8.5265 9.14472 7.60159 9.96213 7.07433C10.6008 6.66237 11.2474 6.4709 12 6.4709C12.5092 6.4709 12.9286 6.55038 13.3923 6.73471C14.5258 7.18527 15.4364 8.26586 15.7325 9.51168C15.7952 9.77554 15.8518 10.1806 15.8518 10.3653V10.5141L15.6346 10.5143C15.5151 10.5144 15.3769 10.5262 15.3276 10.5407C15.2078 10.5758 15.0597 10.7206 15.0288 10.8327C15.0121 10.8934 15.0062 11.4797 15.011 12.6239L15.018 14.3249L15.0902 14.4201C15.2223 14.5945 15.2542 14.602 15.8707 14.602C16.5222 14.602 16.6456 14.5799 17.0005 14.3995C17.2143 14.2908 17.272 14.2469 17.4612 14.0484C17.7022 13.7956 17.8299 13.581 17.9355 13.2518C17.9955 13.0645 17.9991 13.0277 17.9999 12.5829C18.0008 12.1569 17.9956 12.0944 17.9458 11.9263C17.8442 11.5832 17.7203 11.3683 17.4734 11.1066C17.2816 10.9032 17.2171 10.8523 17.0262 10.7533C16.8093 10.6408 16.4966 10.5389 16.3681 10.5389H16.3048L16.2885 10.285C16.2144 9.12794 15.7905 8.1237 15.044 7.33632C14.1508 6.39415 13.0016 5.93346 11.7299 6.00776ZM8.54745 12.5705V14.1561H8.20041C7.57886 14.1561 7.30225 14.0894 7.00529 13.8681C6.74752 13.6761 6.55004 13.3738 6.47087 13.05C6.42073 12.845 6.42016 12.2886 6.46988 12.0872C6.59913 11.5638 7.01903 11.1361 7.51403 11.0235C7.61195 11.0012 7.82462 10.9881 8.10707 10.9868L8.54745 10.9849V12.5705ZM16.4742 11.0221C16.9791 11.134 17.3994 11.5579 17.5301 12.0872C17.5798 12.2886 17.5793 12.845 17.5291 13.05C17.45 13.3738 17.2525 13.6761 16.9947 13.8681C16.6977 14.0894 16.4211 14.1561 15.7996 14.1561H15.4525V12.5705V10.9849L15.8812 10.9853C16.1665 10.9856 16.3648 10.9979 16.4742 11.0221ZM12.3043 16.7073C12.4642 16.7934 12.5484 16.9844 12.5155 17.1865C12.4764 17.4267 12.2285 17.5904 12.0014 17.5259C11.8094 17.4714 11.6947 17.3078 11.6947 17.0887C11.6947 16.7667 12.0276 16.5584 12.3043 16.7073Z" stroke-width="0.5"/>
</svg>
