<svg width="17" height="16" viewBox="0 0 17 16" fill="none" xmlns="http://www.w3.org/2000/svg">
    <path fill-rule="evenodd" clip-rule="evenodd" d="M8.29555 2.0161C8.12429 2.05624 8.02327 2.1001 7.91058 2.18321C7.87677 2.20814 7.036 2.95905 6.0422 3.8519C5.0484 4.74474 3.63413 6.015 2.89938 6.67468C2.10237 7.39028 1.55434 7.88915 1.54082 7.9114C1.50952 7.96289 1.49495 8.03363 1.50157 8.1019C1.51189 8.20824 1.49752 8.18619 1.86313 8.6571C2.09869 8.96048 2.12952 8.99575 2.18851 9.02928C2.25534 9.06728 2.36072 9.06745 2.43548 9.02969C2.474 9.01024 3.28657 8.28576 5.49054 6.30586C7.14195 4.82233 8.49623 3.60852 8.50004 3.60852C8.50386 3.60852 9.85886 4.82302 11.5111 6.30741C13.2975 7.91225 14.5341 9.01641 14.5617 9.03125C14.6004 9.05207 14.6211 9.05615 14.6868 9.05595C14.7538 9.05575 14.7724 9.05178 14.8118 9.02933C14.8373 9.01484 14.8773 8.98126 14.9008 8.95474C14.9953 8.84797 15.465 8.23169 15.4786 8.1966C15.5132 8.10745 15.5051 7.98646 15.4596 7.91158C15.4463 7.88976 15.0383 7.51678 14.4693 7.00639L13.5015 6.13832L13.4991 4.17999C13.4968 2.30335 13.496 2.22027 13.4797 2.18816C13.4579 2.14514 13.3917 2.07384 13.3518 2.05036C13.3222 2.033 13.2746 2.03209 12.3899 2.03209C11.3404 2.03209 11.4379 2.02458 11.3571 2.11165C11.2766 2.19831 11.2838 2.10045 11.2786 3.18169L11.2739 4.14172L10.2029 3.1767C9.61388 2.64594 9.10752 2.19452 9.07768 2.17354C8.99033 2.11213 8.89202 2.06649 8.77801 2.03444C8.68581 2.00852 8.65157 2.00401 8.52331 2.00096C8.40402 1.99813 8.3596 2.00108 8.29555 2.0161ZM6.15177 6.5031C4.86339 7.64789 3.73945 8.64688 3.65413 8.72309L3.499 8.86164L3.49934 11.1739C3.49969 13.6472 3.49757 13.531 3.5443 13.6422C3.59271 13.7572 3.71426 13.8902 3.82198 13.946C3.92948 14.0016 3.84879 13.9993 5.68701 13.9997L7.38879 14V12.2041V10.4081H8.50016H9.61152V12.2041V14L11.3133 13.9997C13.1297 13.9993 13.0684 14.0009 13.1691 13.9514C13.3214 13.8765 13.4595 13.694 13.4909 13.5261C13.4995 13.48 13.5015 12.9339 13.4994 11.1616L13.4967 8.85691L13.177 8.57243C12.9111 8.33578 11.0688 6.69862 8.9685 4.83254C8.71417 4.60657 8.50342 4.42168 8.50018 4.42168C8.49693 4.42168 7.44015 5.35832 6.15177 6.5031Z" fill="#005792"/>
</svg>
