<svg width="15" height="16" viewBox="0 0 15 16" fill="none" xmlns="http://www.w3.org/2000/svg">
    <path d="M14.5 13.7143V16H0.5V13.7143C0.5 13.7143 0.5 9.14286 7.5 9.14286C14.5 9.14286 14.5 13.7143 14.5 13.7143ZM11 3.42857C11 2.75046 10.7947 2.08759 10.4101 1.52376C10.0256 0.959935 9.47893 0.520486 8.83939 0.260986C8.19985 0.00148555 7.49612 -0.0664116 6.81718 0.0658806C6.13825 0.198173 5.51461 0.524712 5.02513 1.00421C4.53564 1.4837 4.2023 2.09461 4.06725 2.75969C3.9322 3.42477 4.00151 4.11414 4.26642 4.74063C4.53133 5.36712 4.97993 5.90259 5.5555 6.27932C6.13108 6.65606 6.80777 6.85714 7.5 6.85714C8.42826 6.85714 9.3185 6.49592 9.97487 5.85294C10.6313 5.20996 11 4.33789 11 3.42857Z" fill="#9DA8AF"/>
</svg>
