<svg width="24" height="16" viewBox="0 0 24 16" fill="none" xmlns="http://www.w3.org/2000/svg">
<path d="M1.0005 -0.000610352H3.00075C3.28075 -0.000610352 3.5175 0.0961397 3.711 0.28964C3.9045 0.48314 4.00125 0.71989 4.00125 0.99989V3.00014C4.00125 3.28014 3.9045 3.51689 3.711 3.71039C3.5175 3.90389 3.28075 4.00064 3.00075 4.00064H1.0005C0.7205 4.00064 0.48375 3.90389 0.29025 3.71039C0.09675 3.51689 0 3.28014 0 3.00014V0.99989C0 0.71989 0.09675 0.48314 0.29025 0.28964C0.48375 0.0961397 0.7205 -0.000610352 1.0005 -0.000610352ZM7.0005 -0.000610352H23.0002C23.2803 -0.000610352 23.517 0.0961397 23.7105 0.28964C23.904 0.48314 24.0007 0.71989 24.0007 0.99989V3.00014C24.0007 3.28014 23.904 3.51689 23.7105 3.71039C23.517 3.90389 23.2803 4.00064 23.0002 4.00064H7.0005C6.7205 4.00064 6.48375 3.90389 6.29025 3.71039C6.09675 3.51689 6 3.28014 6 3.00014V0.99989C6 0.71989 6.09675 0.48314 6.29025 0.28964C6.48375 0.0961397 6.7205 -0.000610352 7.0005 -0.000610352ZM1.0005 5.99939H3.00075C3.28075 5.99939 3.5175 6.09614 3.711 6.28964C3.9045 6.48314 4.00125 6.71989 4.00125 6.99989V9.00014C4.00125 9.28014 3.9045 9.51689 3.711 9.71039C3.5175 9.90389 3.28075 10.0006 3.00075 10.0006H1.0005C0.7205 10.0006 0.48375 9.90389 0.29025 9.71039C0.09675 9.51689 0 9.28014 0 9.00014V6.99989C0 6.71989 0.09675 6.48314 0.29025 6.28964C0.48375 6.09614 0.7205 5.99939 1.0005 5.99939ZM7.0005 5.99939H23.0002C23.2803 5.99939 23.517 6.09614 23.7105 6.28964C23.904 6.48314 24.0007 6.71989 24.0007 6.99989V9.00014C24.0007 9.28014 23.904 9.51689 23.7105 9.71039C23.517 9.90389 23.2803 10.0006 23.0002 10.0006H7.0005C6.7205 10.0006 6.48375 9.90389 6.29025 9.71039C6.09675 9.51689 6 9.28014 6 9.00014V6.99989C6 6.71989 6.09675 6.48314 6.29025 6.28964C6.48375 6.09614 6.7205 5.99939 7.0005 5.99939ZM1.0005 11.9994H3.00075C3.28075 11.9994 3.5175 12.0961 3.711 12.2896C3.9045 12.4831 4.00125 12.7199 4.00125 12.9999V15.0001C4.00125 15.2801 3.9045 15.5169 3.711 15.7104C3.5175 15.9039 3.28075 16.0006 3.00075 16.0006H1.0005C0.7205 16.0006 0.48375 15.9039 0.29025 15.7104C0.09675 15.5169 0 15.2801 0 15.0001V12.9999C0 12.7199 0.09675 12.4831 0.29025 12.2896C0.48375 12.0961 0.7205 11.9994 1.0005 11.9994ZM7.0005 11.9994H23.0002C23.2803 11.9994 23.517 12.0961 23.7105 12.2896C23.904 12.4831 24.0007 12.7199 24.0007 12.9999V15.0001C24.0007 15.2801 23.904 15.5169 23.7105 15.7104C23.517 15.9039 23.2803 16.0006 23.0002 16.0006H7.0005C6.7205 16.0006 6.48375 15.9039 6.29025 15.7104C6.09675 15.5169 6 15.2801 6 15.0001V12.9999C6 12.7199 6.09675 12.4831 6.29025 12.2896C6.48375 12.0961 6.7205 11.9994 7.0005 11.9994Z" fill="#C1CCD3"/>
</svg>
