<svg width="16" height="16" viewBox="0 0 16 16" fill="none" xmlns="http://www.w3.org/2000/svg">
<path d="M8.00025 0C9.10255 0 10.0447 0.391167 10.8267 1.1735C11.6086 1.95583 11.9998 2.898 12.0001 4V7.3335C12.0001 7.7425 11.8623 8.178 11.5866 8.64C11.311 9.102 11.0043 9.33317 10.6667 9.3335V10.3335C10.6667 10.4225 10.6933 10.518 10.7467 10.62C10.8 10.722 10.8667 10.7998 10.9467 10.8535L15.72 13.92C15.8 13.9643 15.8667 14.0377 15.92 14.14C15.9733 14.2423 16 14.3378 16 14.4265V15.6665C16 15.7555 15.9667 15.8333 15.9 15.9C15.8333 15.9667 15.7555 16 15.6665 16H0.33349C0.244492 16 0.166661 15.9667 0.0999969 15.9C0.0333323 15.8333 0 15.7555 0 15.6665V14.4265C0 14.3375 0.0266658 14.242 0.0799975 14.14C0.133329 14.038 0.199994 13.9647 0.279991 13.92L5.05334 10.8535C5.13334 10.8002 5.2 10.7223 5.25334 10.62C5.30667 10.5177 5.33333 10.4222 5.33333 10.3335V9.3335C4.99568 9.3335 4.68902 9.10233 4.41336 8.64C4.1377 8.17767 3.99988 7.74217 3.99988 7.3335V4C3.99988 2.89767 4.39103 1.9555 5.17334 1.1735C5.95565 0.3915 6.89779 0.000333333 7.99975 0H8.00025Z" fill="#C1CCD3"/>
</svg>
