<svg width="40" height="40" viewBox="0 0 40 40" fill="none" xmlns="http://www.w3.org/2000/svg">
    <rect width="40" height="40" rx="20" fill="#EAF0F6"/>
    <g clip-path="url(#clip0_12089_1812)">
        <path d="M25.53 22.1409C26.2691 22.1409 26.9191 22.5096 27.302 23.0697H21.4981C20.8698 23.0697 20.2673 23.3143 19.823 23.7498C19.3788 24.1852 19.1292 24.7758 19.1292 25.3916V29.1068C19.1292 29.2563 19.1434 29.404 19.1718 29.5452C16.3869 29.3724 14.3051 28.3842 12.9842 26.5666C12.6694 26.1339 12.5001 25.6157 12.5 25.0842V24.2297C12.5 23.6757 12.7245 23.1444 13.1242 22.7527C13.5238 22.3609 14.0659 22.1409 14.6311 22.1409H25.53ZM20.0768 11C20.6989 11 21.315 11.1201 21.8898 11.3535C22.4647 11.5869 22.987 11.929 23.4269 12.3602C23.8669 12.7914 24.2158 13.3034 24.4539 13.8668C24.692 14.4302 24.8146 15.0341 24.8146 15.644C24.8146 16.2538 24.692 16.8577 24.4539 17.4211C24.2158 17.9846 23.8669 18.4965 23.4269 18.9277C22.987 19.359 22.4647 19.701 21.8898 19.9344C21.315 20.1678 20.6989 20.2879 20.0768 20.2879C18.8202 20.2879 17.6151 19.7987 16.7266 18.9277C15.8381 18.0568 15.3389 16.8756 15.3389 15.644C15.3389 14.4123 15.8381 13.2311 16.7266 12.3602C17.6151 11.4893 18.8202 11 20.0768 11ZM20.0768 25.3916C20.0768 25.0221 20.2265 24.6678 20.4931 24.4065C20.7596 24.1452 21.1211 23.9985 21.4981 23.9985H29.0786C29.4556 23.9985 29.8171 24.1452 30.0837 24.4065C30.3503 24.6678 30.5 25.0221 30.5 25.3916V29.1068C30.5 29.4763 30.3503 29.8307 30.0837 30.0919C29.8171 30.3532 29.4556 30.5 29.0786 30.5H21.4981C21.1211 30.5 20.7596 30.3532 20.4931 30.0919C20.2265 29.8307 20.0768 29.4763 20.0768 29.1068V25.3916ZM29.5524 25.856C29.3011 25.856 29.0601 25.7582 28.8824 25.584C28.7047 25.4098 28.6049 25.1736 28.6049 24.9272H27.6573C27.6573 25.4199 27.857 25.8924 28.2124 26.2408C28.5678 26.5891 29.0498 26.7848 29.5524 26.7848V25.856ZM29.5524 27.7136C29.0498 27.7136 28.5678 27.9093 28.2124 28.2577C27.857 28.6061 27.6573 29.0785 27.6573 29.5712H28.6049C28.6049 29.3249 28.7047 29.0886 28.8824 28.9145C29.0601 28.7403 29.3011 28.6424 29.5524 28.6424V27.7136ZM21.9719 24.9272C21.9719 25.1736 21.8721 25.4098 21.6944 25.584C21.5166 25.7582 21.2756 25.856 21.0243 25.856V26.7848C21.5269 26.7848 22.009 26.5891 22.3644 26.2408C22.7198 25.8924 22.9195 25.4199 22.9195 24.9272H21.9719ZM22.9195 29.5712C22.9195 29.0785 22.7198 28.6061 22.3644 28.2577C22.009 27.9093 21.5269 27.7136 21.0243 27.7136V28.6424C21.2756 28.6424 21.5166 28.7403 21.6944 28.9145C21.8721 29.0886 21.9719 29.3249 21.9719 29.5712H22.9195ZM26.9466 27.2492C26.9466 26.8181 26.7719 26.4047 26.4609 26.0999C26.15 25.7951 25.7282 25.6238 25.2884 25.6238C24.8486 25.6238 24.4268 25.7951 24.1158 26.0999C23.8048 26.4047 23.6301 26.8181 23.6301 27.2492C23.6301 27.6803 23.8048 28.0937 24.1158 28.3985C24.4268 28.7034 24.8486 28.8746 25.2884 28.8746C25.7282 28.8746 26.15 28.7034 26.4609 28.3985C26.7719 28.0937 26.9466 27.6803 26.9466 27.2492Z" fill="#005792"/>
    </g>
    <defs>
        <clipPath id="clip0_12089_1812">
            <rect width="24" height="24" fill="white" transform="translate(8 8)"/>
        </clipPath>
    </defs>
</svg>
