<svg width="40" height="40" viewBox="0 0 40 40" fill="none" xmlns="http://www.w3.org/2000/svg">
    <rect width="40" height="40" rx="20" fill="#EAF0F6"/>
    <path d="M28.625 10.625C28.5359 10.625 28.4445 10.6414 28.3531 10.6789L14.8437 16.107H11C10.7937 16.107 10.625 16.2805 10.625 16.4961V23.5039C10.625 23.7195 10.7937 23.893 11 23.893H13.3812C13.2945 24.1648 13.25 24.4531 13.25 24.7461C13.25 26.2906 14.5109 27.5469 16.0625 27.5469C17.3609 27.5469 18.4555 26.6656 18.7789 25.475L28.3555 29.3234C28.4469 29.3586 28.5383 29.3773 28.6273 29.3773C29.0234 29.3773 29.3773 29.0445 29.3773 28.5992V11.4031C29.375 10.9578 29.0234 10.625 28.625 10.625ZM16.0625 25.8664C15.4414 25.8664 14.9375 25.3648 14.9375 24.7461C14.9375 24.4836 15.0289 24.2328 15.1953 24.0336L17.1852 24.8328C17.1383 25.4094 16.6531 25.8664 16.0625 25.8664Z" fill="#005792"/>
</svg>
