<svg width="20" height="20" viewBox="0 0 20 20" fill="none" xmlns="http://www.w3.org/2000/svg">
<path d="M5.00565 10.5301C5.22578 14.2782 5.00565 15.093 3 16.0708C5.67094 17.5951 8.10788 16.9065 8.99249 16.3716C9.39199 16.1711 10.1812 15.4816 10.1421 14.3283C10.1029 13.1751 9.32676 12.9369 8.94357 12.962C8.65821 12.9828 7.9701 13.0246 7.50048 13.0246C7.03087 12.9143 7.01945 12.5357 7.07245 12.3602C7.10506 12.2474 7.24366 11.9967 6.93792 11.8588C6.74225 11.7442 6.86047 11.5371 6.93792 11.4577C6.75203 11.3474 6.77078 11.2112 6.8034 11.1568C6.92569 11.0398 7.07734 10.7507 6.70556 10.5301C6.33378 10.3094 6.44466 10.0203 6.54658 9.90328C6.75448 9.76539 7.17028 9.39183 7.17028 9.00072C6.91591 7.67697 7.27627 6.40169 7.48825 5.92952C7.46379 6.70672 8.04103 8.65474 10.5456 10.2292C13.0503 11.8037 14.5325 14.3367 14.9605 15.4064C16.265 14.1654 18.2772 10.693 15.89 6.73179C13.5028 2.77056 9.81187 2.58253 7.98966 3.37227C6.54658 4.08679 4.88335 5.82923 5.00565 10.5301Z" fill="currentColor"/>
</svg>
