<svg width="20" height="20" viewBox="0 0 20 20" fill="none" xmlns="http://www.w3.org/2000/svg">
    <circle cx="10" cy="10" r="10" fill="#1A86D0" fill-opacity="0.1"/>
    <path d="M6.25424 10.3975C6.41934 13.2086 6.25424 13.8197 4.75 14.5531C6.7532 15.6963 8.58091 15.1799 9.24437 14.7787C9.54399 14.6283 10.1359 14.1112 10.1066 13.2462C10.0772 12.3813 9.49507 12.2027 9.20768 12.2215C8.99366 12.2371 8.47757 12.2685 8.12536 12.2685C7.77315 12.1857 7.76459 11.9018 7.80434 11.7702C7.82879 11.6856 7.93275 11.4975 7.70344 11.3941C7.55669 11.3082 7.64535 11.1528 7.70344 11.0933C7.56402 11.0105 7.57809 10.9084 7.60255 10.8676C7.69427 10.7799 7.808 10.563 7.52917 10.3975C7.25034 10.2321 7.3335 10.0152 7.40993 9.92746C7.56586 9.82404 7.87771 9.54387 7.87771 9.25054C7.68693 8.25773 7.95721 7.30127 8.11619 6.94714C8.09785 7.53004 8.53077 8.99106 10.4092 10.1719C12.2877 11.3528 13.3994 13.2525 13.7204 14.0548C14.6988 13.124 16.2079 10.5198 14.4175 7.54884C12.6271 4.57792 9.8589 4.4369 8.49225 5.0292C7.40993 5.5651 6.16252 6.87192 6.25424 10.3975Z" fill="#1A86D0"/>
</svg>
