<svg width="14" height="14" viewBox="0 0 14 14" fill="none" xmlns="http://www.w3.org/2000/svg">
<path fill-rule="evenodd" clip-rule="evenodd" d="M12.0799 6.99992C12.0799 9.80553 9.80553 12.0799 6.99992 12.0799C4.19432 12.0799 1.91992 9.80553 1.91992 6.99992C1.91992 4.19432 4.19432 1.91992 6.99992 1.91992C9.80553 1.91992 12.0799 4.19432 12.0799 6.99992ZM13.0799 6.99992C13.0799 10.3578 10.3578 13.0799 6.99992 13.0799C3.64203 13.0799 0.919922 10.3578 0.919922 6.99992C0.919922 3.64203 3.64203 0.919922 6.99992 0.919922C10.3578 0.919922 13.0799 3.64203 13.0799 6.99992ZM7.37971 8.2607L10.1859 4.98686L9.42661 4.33606L6.93501 7.24293L4.97397 5.6741L4.34927 6.45497L6.68774 8.32574L7.06516 8.62768L7.37971 8.2607Z" fill="currentColor"/>
</svg>
