<svg width="24" height="24" viewBox="0 0 24 24" fill="none" xmlns="http://www.w3.org/2000/svg">
    <path d="M0 12C0 5.37258 5.37258 0 12 0C18.6274 0 24 5.37258 24 12C24 18.6274 18.6274 24 12 24C5.37258 24 0 18.6274 0 12Z" fill="#E9F7F4"/>
    <path d="M10.482 19H12.6649C12.6649 19 13.6499 15.8894 13.5167 13.8609C13.4212 12.4048 12.6649 10.217 12.6649 10.217C12.6649 10.217 13.7503 11.4694 14.3055 12.4079C14.7693 13.192 15.0251 14.4453 15.3269 14.5827C15.6288 14.7202 16.4939 12.7225 16.1788 11.5233C15.8656 10.3316 13.9427 9.23735 13.9427 9.23735C13.9427 9.23735 15.0746 9.21976 15.7528 9.42641C16.6935 9.71302 17.3676 10.7499 17.8647 10.7671C18.3618 10.7842 17.4192 8.30885 16.1788 7.6217C15.0417 6.99183 12.8246 7.6217 12.8246 7.6217C12.8246 7.6217 12.7296 6.50625 12.2922 5.98886C11.7595 5.35871 10.4641 4.69979 10.3223 5.14666C10.1805 5.59352 10.7379 5.87299 10.8547 6.38418C10.9419 6.7657 10.9435 7.38107 10.9435 7.38107C10.9435 7.38107 9.45646 6.69105 8.49441 6.86543C7.32194 7.07796 5.932 8.30921 6.11619 8.72171C6.30037 9.13422 7.21375 8.62145 7.80779 8.58599C8.28337 8.5576 9.02681 8.63577 9.02681 8.63577C9.02681 8.63577 7.53183 9.08009 6.91494 9.77124C6.38137 10.3691 5.779 11.4546 6.08084 11.6264C6.38268 11.7983 6.75531 11.2006 7.29552 10.8438C7.68594 10.586 8.37018 10.4577 8.37018 10.4577C8.37018 10.4577 8.02816 11.9978 8.19271 12.9671C8.35307 13.9117 8.70737 15.2874 9.15104 15.2359C9.59471 15.1843 9.3285 13.3968 9.9319 11.8929C10.5353 10.3889 11.3339 10.4577 11.3339 10.4577C11.3339 10.4577 11.5787 11.9822 11.6001 12.9671C11.6522 15.3602 10.482 19 10.482 19Z" fill="#21AE8C"/>
</svg>
