<svg width="20" height="20" viewBox="0 0 20 20" fill="none" xmlns="http://www.w3.org/2000/svg">
<rect x="0.5" y="0.5" width="19" height="19" rx="9.5" fill="#E9F3FB"/>
<path d="M6.37303 14.0737L12.181 5.92661H13.627L7.81895 14.0737H6.37303ZM7.11422 10.326C6.70109 10.326 6.33657 10.2368 6.02066 10.0584C5.70474 9.87214 5.45362 9.6122 5.26731 9.27856C5.0891 8.93716 5 8.53756 5 8.07977C5 7.62198 5.0891 7.22626 5.26731 6.89262C5.45362 6.55898 5.70474 6.29905 6.02066 6.11283C6.33657 5.92661 6.70109 5.8335 7.11422 5.8335C7.52734 5.8335 7.89186 5.92661 8.20778 6.11283C8.52369 6.29905 8.77076 6.55898 8.94897 6.89262C9.12718 7.22626 9.21628 7.62198 9.21628 8.07977C9.21628 8.53756 9.12718 8.93716 8.94897 9.27856C8.77076 9.6122 8.52369 9.87214 8.20778 10.0584C7.89186 10.2368 7.52734 10.326 7.11422 10.326ZM7.11422 9.37167C7.38153 9.37167 7.59619 9.26692 7.7582 9.05743C7.92021 8.84017 8.00121 8.51428 8.00121 8.07977C8.00121 7.64526 7.92021 7.32325 7.7582 7.11376C7.59619 6.8965 7.38153 6.78787 7.11422 6.78787C6.855 6.78787 6.64034 6.8965 6.47023 7.11376C6.30822 7.32325 6.22722 7.64526 6.22722 8.07977C6.22722 8.50652 6.30822 8.82853 6.47023 9.04579C6.64034 9.26304 6.855 9.37167 7.11422 9.37167ZM12.8858 14.1668C12.4808 14.1668 12.1162 14.0776 11.7922 13.8991C11.4763 13.7129 11.2292 13.453 11.051 13.1193C10.8728 12.7779 10.7837 12.3783 10.7837 11.9206C10.7837 11.4628 10.8728 11.067 11.051 10.7334C11.2292 10.3998 11.4763 10.1398 11.7922 9.95361C12.1162 9.76739 12.4808 9.67428 12.8858 9.67428C13.307 9.67428 13.6756 9.76739 13.9915 9.95361C14.3074 10.1398 14.5545 10.3998 14.7327 10.7334C14.9109 11.067 15 11.4628 15 11.9206C15 12.3783 14.9109 12.7779 14.7327 13.1193C14.5545 13.453 14.3074 13.7129 13.9915 13.8991C13.6756 14.0776 13.307 14.1668 12.8858 14.1668ZM12.8858 13.2125C13.1531 13.2125 13.3678 13.1077 13.5298 12.8982C13.6918 12.681 13.7728 12.3551 13.7728 11.9206C13.7728 11.4938 13.6918 11.1718 13.5298 10.9545C13.3678 10.7373 13.1531 10.6287 12.8858 10.6287C12.6266 10.6287 12.4119 10.7373 12.2418 10.9545C12.0798 11.164 11.9988 11.486 11.9988 11.9206C11.9988 12.3551 12.0798 12.681 12.2418 12.8982C12.4119 13.1077 12.6266 13.2125 12.8858 13.2125Z" fill="#1A86D0"/>
<rect x="0.5" y="0.5" width="19" height="19" rx="9.5" stroke="#1A86D0"/>
</svg>
