<svg width="16" height="16" viewBox="0 0 16 16" fill="none" xmlns="http://www.w3.org/2000/svg">
<rect width="16" height="16" rx="8" fill="#EAF0F6"/>
<path d="M5.09842 11.2587L9.74484 4.74099H10.9016L6.25516 11.2587H5.09842ZM5.69137 8.26054C5.36087 8.26054 5.06926 8.18916 4.81652 8.04639C4.56379 7.89742 4.3629 7.68947 4.21385 7.42256C4.07128 7.14943 4 6.82976 4 6.46352C4 6.09729 4.07128 5.78072 4.21385 5.5138C4.3629 5.24689 4.56379 5.03894 4.81652 4.88997C5.06926 4.74099 5.36087 4.6665 5.69137 4.6665C6.02187 4.6665 6.31349 4.74099 6.56622 4.88997C6.81895 5.03894 7.01661 5.24689 7.15917 5.5138C7.30174 5.78072 7.37303 6.09729 7.37303 6.46352C7.37303 6.82976 7.30174 7.14943 7.15917 7.42256C7.01661 7.68947 6.81895 7.89742 6.56622 8.04639C6.31349 8.18916 6.02187 8.26054 5.69137 8.26054ZM5.69137 7.49704C5.90522 7.49704 6.07695 7.41324 6.20656 7.24565C6.33617 7.07184 6.40097 6.81113 6.40097 6.46352C6.40097 6.11591 6.33617 5.85831 6.20656 5.69071C6.07695 5.51691 5.90522 5.43 5.69137 5.43C5.484 5.43 5.31227 5.51691 5.17618 5.69071C5.04658 5.85831 4.98177 6.11591 4.98177 6.46352C4.98177 6.80493 5.04658 7.06253 5.17618 7.23634C5.31227 7.41014 5.484 7.49704 5.69137 7.49704ZM10.3086 11.3332C9.98461 11.3332 9.69299 11.2618 9.43378 11.119C9.18105 10.97 8.98339 10.7621 8.84083 10.4952C8.69826 10.2221 8.62697 9.90238 8.62697 9.53615C8.62697 9.16992 8.69826 8.85334 8.84083 8.58643C8.98339 8.31951 9.18105 8.11157 9.43378 7.96259C9.69299 7.81362 9.98461 7.73913 10.3086 7.73913C10.6456 7.73913 10.9405 7.81362 11.1932 7.96259C11.4459 8.11157 11.6436 8.31951 11.7861 8.58643C11.9287 8.85334 12 9.16992 12 9.53615C12 9.90238 11.9287 10.2221 11.7861 10.4952C11.6436 10.7621 11.4459 10.97 11.1932 11.119C10.9405 11.2618 10.6456 11.3332 10.3086 11.3332ZM10.3086 10.5697C10.5225 10.5697 10.6942 10.4859 10.8238 10.3183C10.9534 10.1445 11.0182 9.88376 11.0182 9.53615C11.0182 9.19475 10.9534 8.93714 10.8238 8.76334C10.6942 8.58953 10.5225 8.50263 10.3086 8.50263C10.1013 8.50263 9.92953 8.58953 9.79344 8.76334C9.66383 8.93094 9.59903 9.18854 9.59903 9.53615C9.59903 9.88376 9.66383 10.1445 9.79344 10.3183C9.92953 10.4859 10.1013 10.5697 10.3086 10.5697Z" fill="#9DA8AF"/>
</svg>
