<svg width="144" height="144" viewBox="0 0 144 144" fill="none" xmlns="http://www.w3.org/2000/svg">
<path opacity="0.5" d="M72 144C91.0956 144 109.409 136.414 122.912 122.912C136.414 109.409 144 91.0956 144 72C144 52.9044 136.414 34.5909 122.912 21.0883C109.409 7.5857 91.0956 3.71805e-06 72 0L72 72V144Z" fill="#E9ECEF"/>
<path d="M72 0C52.9044 -2.27713e-07 34.5909 7.58569 21.0883 21.0883C7.5857 34.5909 1.66939e-06 52.9044 0 72C-1.66939e-06 91.0956 7.58569 109.409 21.0883 122.912C34.5909 136.414 52.9044 144 72 144L72 72V0Z" fill="#E9ECEF"/>
</svg>
