<svg width="20" height="20" viewBox="0 0 20 20" fill="none" xmlns="http://www.w3.org/2000/svg">
    <path fill-rule="evenodd" clip-rule="evenodd" d="M1 8C1 6.89543 1.89543 6 3 6H17C18.1046 6 19 6.89543 19 8V12C19 13.1046 18.1046 14 17 14H3C1.89543 14 1 13.1046 1 12V8Z" stroke="currentColor" stroke-linecap="round" stroke-linejoin="round"/>
    <path d="M6.77384 9.0199L5.75175 9.59154V8.5V8.45H5.70175H5.29825H5.24787L5.24825 8.50037L5.25638 9.59118L4.23493 9.0199L4.19232 8.99606L4.16748 9.0381L3.95695 9.39446L3.93029 9.43958L3.97662 9.46409L4.98957 10L3.97662 10.5359L3.92981 10.5607L3.95722 10.606L4.16774 10.9541L4.19261 10.9952L4.23468 10.972L5.25638 10.4082L5.24825 11.4996L5.24787 11.55H5.29825H5.70175H5.75175V11.5V10.4079L6.77409 10.972L6.81695 10.9956L6.8415 10.9533L7.04326 10.6052L7.06924 10.5604L7.02353 10.536L6.01853 10L7.02353 9.46401L7.06877 9.43988L7.04351 9.39526L6.84176 9.0389L6.81725 8.99562L6.77384 9.0199Z" fill="currentColor" stroke="currentColor" stroke-width="0.1"/>
    <path d="M11.2738 9.0199L10.2518 9.59154V8.5V8.45H10.2018H9.79825H9.74787L9.74825 8.50037L9.75638 9.59118L8.73493 9.0199L8.69232 8.99606L8.66748 9.0381L8.45695 9.39446L8.43029 9.43958L8.47662 9.46409L9.48957 10L8.47662 10.5359L8.42981 10.5607L8.45722 10.606L8.66774 10.9541L8.69261 10.9952L8.73468 10.972L9.75638 10.4082L9.74825 11.4996L9.74787 11.55H9.79825H10.2018H10.2518V11.5V10.4079L11.2741 10.972L11.317 10.9956L11.3415 10.9533L11.5433 10.6052L11.5692 10.5604L11.5235 10.536L10.5185 10L11.5235 9.46401L11.5688 9.43988L11.5435 9.39526L11.3418 9.0389L11.3173 8.99562L11.2738 9.0199Z" fill="currentColor" stroke="currentColor" stroke-width="0.1"/>
    <path d="M15.7738 9.0199L14.7518 9.59154V8.5V8.45H14.7018H14.2982H14.2479L14.2482 8.50037L14.2564 9.59118L13.2349 9.0199L13.1923 8.99606L13.1675 9.0381L12.957 9.39446L12.9303 9.43958L12.9766 9.46409L13.9896 10L12.9766 10.5359L12.9298 10.5607L12.9572 10.606L13.1677 10.9541L13.1926 10.9952L13.2347 10.972L14.2564 10.4082L14.2482 11.4996L14.2479 11.55H14.2982H14.7018H14.7518V11.5V10.4079L15.7741 10.972L15.817 10.9956L15.8415 10.9533L16.0433 10.6052L16.0692 10.5604L16.0235 10.536L15.0185 10L16.0235 9.46401L16.0688 9.43988L16.0435 9.39526L15.8418 9.0389L15.8173 8.99562L15.7738 9.0199Z" fill="currentColor" stroke="currentColor" stroke-width="0.1"/>
</svg>