<svg width="25" height="24" viewBox="0 0 25 24" fill="none" xmlns="http://www.w3.org/2000/svg">
    <rect x="2.16699" y="5" width="21" height="14" rx="1.5" stroke="currentColor"/>
    <path d="M10.1014 16.3285L14.7478 10.0715H15.9045L11.2581 16.3285H10.1014ZM10.6943 13.4503C10.3638 13.4503 10.0722 13.3818 9.81945 13.2447C9.56672 13.1017 9.36583 12.902 9.21678 12.6458C9.07421 12.3836 9.00293 12.0767 9.00293 11.7251C9.00293 11.3736 9.07421 11.0696 9.21678 10.8134C9.36583 10.5572 9.56672 10.3575 9.81945 10.2145C10.0722 10.0715 10.3638 10 10.6943 10C11.0248 10 11.3164 10.0715 11.5692 10.2145C11.8219 10.3575 12.0195 10.5572 12.1621 10.8134C12.3047 11.0696 12.376 11.3736 12.376 11.7251C12.376 12.0767 12.3047 12.3836 12.1621 12.6458C12.0195 12.902 11.8219 13.1017 11.5692 13.2447C11.3164 13.3818 11.0248 13.4503 10.6943 13.4503ZM10.6943 12.7173C10.9082 12.7173 11.0799 12.6369 11.2095 12.476C11.3391 12.3091 11.4039 12.0588 11.4039 11.7251C11.4039 11.3914 11.3391 11.1441 11.2095 10.9832C11.0799 10.8164 10.9082 10.733 10.6943 10.733C10.4869 10.733 10.3152 10.8164 10.1791 10.9832C10.0495 11.1441 9.9847 11.3914 9.9847 11.7251C9.9847 12.0529 10.0495 12.3002 10.1791 12.467C10.3152 12.6339 10.4869 12.7173 10.6943 12.7173ZM15.3116 16.4C14.9875 16.4 14.6959 16.3315 14.4367 16.1944C14.184 16.0514 13.9863 15.8518 13.8438 15.5955C13.7012 15.3333 13.6299 15.0264 13.6299 14.6749C13.6299 14.3233 13.7012 14.0194 13.8438 13.7631C13.9863 13.5069 14.184 13.3073 14.4367 13.1642C14.6959 13.0212 14.9875 12.9497 15.3116 12.9497C15.6485 12.9497 15.9434 13.0212 16.1961 13.1642C16.4489 13.3073 16.6465 13.5069 16.7891 13.7631C16.9316 14.0194 17.0029 14.3233 17.0029 14.6749C17.0029 15.0264 16.9316 15.3333 16.7891 15.5955C16.6465 15.8518 16.4489 16.0514 16.1961 16.1944C15.9434 16.3315 15.6485 16.4 15.3116 16.4ZM15.3116 15.667C15.5254 15.667 15.6971 15.5866 15.8267 15.4257C15.9564 15.2588 16.0212 15.0086 16.0212 14.6749C16.0212 14.3471 15.9564 14.0998 15.8267 13.933C15.6971 13.7661 15.5254 13.6827 15.3116 13.6827C15.1042 13.6827 14.9325 13.7661 14.7964 13.933C14.6668 14.0939 14.602 14.3412 14.602 14.6749C14.602 15.0086 14.6668 15.2588 14.7964 15.4257C14.9325 15.5866 15.1042 15.667 15.3116 15.667Z" fill="currentColor"/>
</svg>
