<svg width="25" height="24" viewBox="0 0 25 24" fill="none" xmlns="http://www.w3.org/2000/svg">
    <circle cx="12.5" cy="12" r="8.25" stroke="currentColor" stroke-width="1.5"/>
    <path d="M14.4578 8.11083C13.8535 7.65651 13.1724 7.5 12.3088 7.5C11.6541 7.5 11.0938 7.6326 10.6499 7.92823C9.99512 8.36951 9.6875 9.11077 9.6875 10.2824H11.375C11.375 9.96941 11.3442 9.63247 11.5288 9.34336C11.7134 9.05425 11.9705 8.83252 12.4121 8.83252C12.8604 8.83252 13.0911 8.96078 13.3086 9.22598C13.4932 9.45205 13.5635 9.7216 13.5635 10.0085C13.5635 10.2563 13.436 10.4846 13.2844 10.6911C13.2009 10.8128 13.0911 10.9215 12.9526 11.0259C12.9526 11.0259 12.0408 11.5628 11.72 12.0714C11.4805 12.4497 11.3948 12.9236 11.375 13.4909C11.3728 13.5322 11.3882 13.617 11.5332 13.617C11.676 13.617 12.7637 13.617 12.8911 13.617C13.0186 13.617 13.0449 13.5214 13.0471 13.4822C13.0559 13.2757 13.0823 12.9583 13.1196 12.8388C13.1921 12.6127 13.3328 12.4149 13.5525 12.2453L14.0073 11.9345C14.4182 11.6171 14.7456 11.3584 14.8906 11.1541C15.1389 10.8194 15.3125 10.4063 15.3125 9.91724C15.3125 9.11946 15.0159 8.53037 14.4578 8.11083ZM12.1924 14.4822C11.6233 14.4648 11.1531 14.8561 11.1333 15.4669C11.1157 16.0799 11.5618 16.482 12.1331 16.4994C12.7263 16.5168 13.1855 16.1386 13.2031 15.5277C13.2207 14.9169 12.7856 14.4996 12.1924 14.4822Z" fill="currentColor"/>
</svg>
