<svg width="20" height="20" viewBox="0 0 20 20" fill="none" xmlns="http://www.w3.org/2000/svg">
    <path d="M5.65682 4.68977L3.99947 3.06547C3.94207 3.00922 3.89097 2.98922 3.84616 3.00546C3.80135 3.0217 3.77879 3.07389 3.77849 3.16202V7.51741C3.77849 7.59772 3.80918 7.66796 3.87056 7.72812C3.93194 7.78828 4.00361 7.81836 4.08556 7.81836H8.52956C8.61948 7.81836 8.67273 7.79625 8.68931 7.75203C8.70588 7.70781 8.68547 7.65773 8.62808 7.60178L6.375 5.75463C7.26721 5.14491 8.86087 4.57407 9.91667 4.57407C10.866 4.57407 12.2585 4.9039 13.0648 5.36111C13.8711 5.81832 14.5659 6.53851 15.0324 7.3287C15.4989 8.1189 15.8194 9.54649 15.8194 10.4769C15.8194 11.4072 15.398 12.5863 14.9315 13.3765C14.465 14.1667 13.4728 14.9051 12.6665 15.3623C11.8602 15.8195 10.866 15.9861 9.91667 15.9861C8.96737 15.9861 7.57479 15.6563 6.76852 15.1991C5.96225 14.7419 5.26744 14.0217 4.80093 13.2315C4.33441 12.4413 3.92172 11.1549 3.92172 10.2246H2.83333C2.83333 11.1631 3.01948 12.0614 3.39177 12.9196C3.76406 13.7777 4.2674 14.5177 4.9018 15.1394C5.5362 15.7612 6.29121 16.2545 7.16685 16.6194C8.04248 16.9842 8.95909 17.1667 9.91667 17.1667C10.8742 17.1667 11.7909 16.9842 12.6665 16.6194C13.5421 16.2545 14.2971 15.7612 14.9315 15.1394C15.5659 14.5177 16.0693 13.7777 16.4416 12.9196C16.8139 12.0614 17 11.1631 17 10.2246C17 9.28609 16.8139 8.38776 16.4416 7.52959C16.0693 6.67142 15.5659 5.93146 14.9315 5.30971C14.2971 4.68797 13.5421 4.19466 12.6665 3.82979C11.7909 3.46493 10.8742 3.28249 9.91667 3.28249C8.34525 3.28249 6.9253 3.75128 5.65682 4.68977Z" fill="#495057"/>
</svg>
