<svg width="24" height="24" viewBox="0 0 24 24" fill="none" xmlns="http://www.w3.org/2000/svg">
    <path fill-rule="evenodd" clip-rule="evenodd" d="M23.5 16.5C23.5 19.5376 21.0376 22 18 22C14.9624 22 12.5 19.5376 12.5 16.5C12.5 13.4624 14.9624 11 18 11C21.0376 11 23.5 13.4624 23.5 16.5ZM16.4012 13.8407C16.1083 13.5478 15.6334 13.5479 15.3405 13.8407C15.0477 14.1336 15.0477 14.6085 15.3406 14.9014L16.9392 16.5L15.3406 18.0987C15.0477 18.3916 15.0477 18.8665 15.3405 19.1594C15.6334 19.4522 16.1083 19.4523 16.4012 19.1594L17.9999 17.5607L19.5986 19.1594C19.8915 19.4523 20.3664 19.4522 20.6593 19.1594C20.9522 18.8665 20.9522 18.3916 20.6593 18.0987L19.0606 16.5L20.6593 14.9014C20.9522 14.6085 20.9522 14.1336 20.6593 13.8407C20.3664 13.5479 19.8915 13.5478 19.5986 13.8407L17.9999 15.4394L16.4012 13.8407Z" fill="#FD5F00"/>
    <path fill-rule="evenodd" clip-rule="evenodd" d="M13.1799 3.32019C12.3002 2.44006 11.2403 2 10.0002 2C8.76049 2.00038 7.70003 2.44044 6.81995 3.32019C5.93986 4.19994 5.49981 5.25988 5.49981 6.5V10.2502C5.49981 10.7099 5.65487 11.1999 5.96498 11.72C6.27509 12.2401 6.62008 12.5002 6.99994 12.5002V13.6252C6.99994 13.7249 6.96994 13.8324 6.90994 13.9475C6.84994 14.0626 6.77495 14.1502 6.68495 14.2102L1.31499 17.66C1.22499 17.7103 1.14999 17.7928 1.09 17.9075C1.03 18.0223 1 18.1297 1 18.2298V19.6248C1 19.7249 1.0375 19.8125 1.1125 19.8875C1.18749 19.9625 1.27505 20 1.37517 20H11.9365C11.3409 18.9704 11 17.775 11 16.5C11 13.9126 12.4038 11.6531 14.4912 10.4416C14.4971 10.3772 14.5 10.3134 14.5 10.2502V6.5C14.4996 5.26025 14.0596 4.20031 13.1799 3.32019Z" fill="#FD5F00"/>
</svg>
