<svg width="16" height="16" viewBox="0 0 16 16" xmlns="http://www.w3.org/2000/svg">
<path d="M8 0C3.58169 0 0 3.58169 0 8C0 12.4183 3.58169 16 8 16C12.4183 16 16 12.4183 16 8C16 3.58169 12.4183 0 8 0Z"/>
<path d="M11.8934 4.60071L10.4645 11.805C10.4645 11.805 10.2646 12.3046 9.71508 12.0648L6.4177 9.53683L5.2187 8.95733L3.20033 8.27783C3.20033 8.27783 2.89058 8.16796 2.86058 7.92815C2.83058 7.68833 3.21033 7.55846 3.21033 7.55846L11.2338 4.41096C11.2338 4.41096 11.8933 4.12121 11.8933 4.60084" fill="white"/>
<path d="M6.1634 11.7245C6.1634 11.7245 6.06715 11.7155 5.94715 11.3357C5.82734 10.9561 5.21777 8.95769 5.21777 8.95769L10.0639 5.88019C10.0639 5.88019 10.3437 5.71031 10.3337 5.88019C10.3337 5.88019 10.3836 5.91019 10.2337 6.05006C10.0839 6.19 6.42684 9.47731 6.42684 9.47731" fill="#D2E5F1"/>
<path d="M7.68175 10.5064L6.37756 11.6955C6.37756 11.6955 6.27556 11.7729 6.16406 11.7244L6.41381 9.51562" fill="#B5CFE4"/>
</svg>
