<svg width="20" height="20" viewBox="0 0 20 20" fill="none" xmlns="http://www.w3.org/2000/svg">
    <circle cx="10" cy="10" r="10" fill="#1A86D0" fill-opacity="0.1"/>
    <path d="M5.66878 10.6067V12.0562C5.66878 12.4328 5.89836 12.7836 6.26569 12.9641L9.13548 14.3723C9.47985 14.5426 9.8931 14.5426 10.2375 14.3723L13.1073 12.9641C13.4746 12.7836 13.7042 12.4328 13.7042 12.0562V10.6067L10.2375 12.309C9.8931 12.4792 9.47985 12.4792 9.13548 12.309L5.66878 10.6067ZM9.13548 5.6238L4.29702 7.99663C3.90099 8.19265 3.90099 8.70848 4.29702 8.9045L9.13548 11.2773C9.47985 11.4476 9.8931 11.4476 10.2375 11.2773L14.8521 9.01282V12.0614C14.8521 12.3451 15.1104 12.5772 15.426 12.5772C15.7417 12.5772 16 12.3451 16 12.0614V8.75491C16 8.56405 15.8852 8.39382 15.7015 8.30097L10.2375 5.6238C9.8931 5.45873 9.47985 5.45873 9.13548 5.6238Z" fill="#1A86D0"/>
</svg>
