<svg width="16" height="16" viewBox="0 0 16 16" xmlns="http://www.w3.org/2000/svg">
<path fill-rule="evenodd" clip-rule="evenodd" d="M6.5002 3.73341C6.5002 3.42045 6.75391 3.16675 7.06687 3.16675H9.2002C9.51316 3.16675 9.76687 3.42045 9.76687 3.73341V4.30005H6.5002V3.73341ZM5.99445 5.30005L6.0002 5.30008L6.00596 5.30005H10.2611L10.2669 5.30008L10.2726 5.30005H11.3669V12.2667C11.3669 12.5797 11.1132 12.8334 10.8002 12.8334H5.4669C5.15394 12.8334 4.90023 12.5797 4.90023 12.2667V5.30005H5.99445ZM5.5002 4.30005V3.73341C5.5002 2.86817 6.20162 2.16675 7.06687 2.16675H9.2002C10.0654 2.16675 10.7669 2.86817 10.7669 3.73341V4.30005H12.9334C13.2095 4.30005 13.4334 4.52391 13.4334 4.80005C13.4334 5.07619 13.2095 5.30005 12.9334 5.30005H12.3669V12.2667C12.3669 13.132 11.6655 13.8334 10.8002 13.8334H5.4669C4.60166 13.8334 3.90023 13.132 3.90023 12.2667V5.30005H3.33337C3.05723 5.30005 2.83337 5.07619 2.83337 4.80005C2.83337 4.52391 3.05723 4.30005 3.33337 4.30005H4.40004H5.5002ZM7.06673 6.96672C7.34287 6.96672 7.56673 7.19057 7.56673 7.46672V10.6667C7.56673 10.9429 7.34287 11.1667 7.06673 11.1667C6.79059 11.1667 6.56673 10.9429 6.56673 10.6667V7.46672C6.56673 7.19057 6.79059 6.96672 7.06673 6.96672ZM9.70013 7.46672C9.70013 7.19057 9.47628 6.96672 9.20013 6.96672C8.92399 6.96672 8.70013 7.19057 8.70013 7.46672V10.6667C8.70013 10.9429 8.92399 11.1667 9.20013 11.1667C9.47628 11.1667 9.70013 10.9429 9.70013 10.6667V7.46672Z" fill=""/>
</svg>
