<svg width="16" height="16" viewBox="0 0 16 16" xmlns="http://www.w3.org/2000/svg">
<path d="M2.66699 5.59967H2.16699C2.16699 5.87582 2.39085 6.09967 2.66699 6.09967V5.59967ZM14.0003 5.59967V6.09967C14.2765 6.09967 14.5003 5.87582 14.5003 5.59967H14.0003ZM14.0003 3.33301H14.5003C14.5003 3.05687 14.2765 2.83301 14.0003 2.83301V3.33301ZM2.66699 3.33301V2.83301C2.39085 2.83301 2.16699 3.05687 2.16699 3.33301H2.66699ZM3.42255 13.1552H2.92255C2.92255 13.4314 3.14641 13.6552 3.42255 13.6552V13.1552ZM13.2448 13.1552V13.6552C13.5209 13.6552 13.7448 13.4314 13.7448 13.1552H13.2448ZM8.33366 7.33301L8.74968 7.05566L8.33366 6.43162L7.91763 7.05566L8.33366 7.33301ZM14.5003 5.59967V3.33301H13.5003V5.59967H14.5003ZM14.0003 2.83301H2.66699V3.83301H14.0003V2.83301ZM2.16699 3.33301V5.59967H3.16699V3.33301H2.16699ZM2.66699 6.09967H3.42255V5.09967H2.66699V6.09967ZM2.92255 5.59967V13.1552H3.92255V5.59967H2.92255ZM3.42255 13.6552H13.2448V12.6552H3.42255V13.6552ZM3.42255 6.09967H13.2448V5.09967H3.42255V6.09967ZM13.2448 6.09967H14.0003V5.09967H13.2448V6.09967ZM13.7448 13.1552V5.59967H12.7448V13.1552H13.7448ZM8.83366 11.333V7.33301H7.83366V11.333H8.83366ZM7.91763 7.61036L9.25097 9.61036L10.083 9.05566L8.74968 7.05566L7.91763 7.61036ZM7.91763 7.05566L6.5843 9.05566L7.41635 9.61036L8.74968 7.61036L7.91763 7.05566Z"/>
</svg>
