<svg width="79" height="57" viewBox="0 0 79 57" fill="none" xmlns="http://www.w3.org/2000/svg">
    <path d="M70.5357 0.286133H8.46428C3.78958 0.286133 0 4.07572 0 8.75041V48.2503C0 52.925 3.78958 56.7146 8.46428 56.7146H70.5357C75.2104 56.7146 79 52.925 79 48.2503V8.75041C79 4.07572 75.2104 0.286133 70.5357 0.286133ZM73.357 48.2503C73.357 49.8086 72.0938 51.0718 70.5356 51.0718H8.46428C6.90599 51.0718 5.6428 49.8086 5.6428 48.2503V46.597L16.9286 35.3112L26.2196 44.6023C27.3213 45.7038 29.1074 45.7038 30.209 44.6023L53.6072 21.2041L73.3572 40.9542V48.2503H73.357ZM73.357 32.9751L55.6019 15.22C54.5002 14.1184 52.7141 14.1184 51.6124 15.22L28.2143 38.6179L18.9233 29.3269C17.8216 28.2254 16.0355 28.2254 14.9338 29.3269L5.6428 38.6179V8.75041C5.6428 7.19213 6.90599 5.92893 8.46428 5.92893H70.5357C72.094 5.92893 73.3572 7.19213 73.3572 8.75041V32.9751H73.357Z" fill="#C1CCD3"/>
    <path d="M25.3979 11.5708C20.7232 11.5708 16.9336 15.3604 16.9336 20.0351C16.9336 24.7098 20.7232 28.4994 25.3979 28.4994C30.0726 28.4994 33.8621 24.7098 33.8621 20.0351C33.8621 15.3604 30.0726 11.5708 25.3979 11.5708ZM25.3979 22.8566C23.8396 22.8566 22.5764 21.5934 22.5764 20.0351C22.5764 18.4768 23.8396 17.2136 25.3979 17.2136C26.9562 17.2136 28.2193 18.4768 28.2193 20.0351C28.2193 21.5934 26.9562 22.8566 25.3979 22.8566Z" fill="#C1CCD3"/>
</svg>
