<svg width="144" height="145" viewBox="0 0 144 145" fill="none" xmlns="http://www.w3.org/2000/svg">
<g clip-path="url(#clip0_2386_119814)">
<mask id="mask0_2386_119814" style="mask-type:alpha" maskUnits="userSpaceOnUse" x="0" y="0" width="144" height="145">
<path d="M71.9996 144.292C111.764 144.292 143.999 112.057 143.999 72.2926C143.999 32.5283 111.764 0.292969 71.9996 0.292969C32.2353 0.292969 0 32.5283 0 72.2926C0 112.057 32.2353 144.292 71.9996 144.292Z" fill="#E6E7E2"/>
</mask>
<g mask="url(#mask0_2386_119814)">
<path d="M71.9996 144.292C111.764 144.292 143.999 112.057 143.999 72.2926C143.999 32.5283 111.764 0.292969 71.9996 0.292969C32.2353 0.292969 0 32.5283 0 72.2926C0 112.057 32.2353 144.292 71.9996 144.292Z" fill="#E6E7E2"/>
<path d="M96.9756 118.114H96.9603C95.3982 116.932 93.7627 115.88 92.0399 114.931C91.9955 114.902 91.9519 114.873 91.8937 114.859C83.7458 110.361 78.2268 101.688 78.2268 91.7152L65.8886 91.6562C65.8886 101.659 60.3253 110.376 52.1046 114.858C52.1046 114.858 52.0901 114.858 52.0755 114.872C50.3374 115.821 48.6736 116.888 47.0962 118.055C36.8749 125.663 30.2607 137.826 30.2607 151.552H113.738C113.738 137.856 107.153 125.721 96.9756 118.114Z" fill="#ECC19C"/>
<path d="M113.738 151.548H30.2607C30.2607 137.823 36.8749 125.66 47.0962 118.052C48.6736 116.884 50.3374 115.818 52.0748 114.869C52.0901 114.854 52.1046 114.854 52.1046 114.854C53.4478 114.11 54.7328 113.262 55.9153 112.299C60.0038 116.49 65.7133 119.089 72.0359 119.089C78.3439 119.089 84.0389 116.49 88.1266 112.313C89.2945 113.277 90.5658 114.124 91.8937 114.854C91.9519 114.869 91.9962 114.898 92.0399 114.927C93.7627 115.876 95.3982 116.928 96.9603 118.11H96.9756C107.153 125.718 113.738 137.852 113.738 151.548Z" fill="#168EF7"/>
<path d="M39.9648 29.4453V62.2299C39.9648 84.4067 59.4331 102.384 72.0009 102.384C84.5672 102.384 104.037 84.4067 104.037 62.2299V29.4453H39.9648Z" fill="#ECC19C"/>
<path d="M98.8176 23.4101C91.8353 14.6675 81.236 9.07812 69.3799 9.07812C48.3167 9.07812 31.2578 26.6598 31.2578 48.3414C31.2578 59.8492 36.0543 70.1967 43.7131 77.3727C41.7401 72.4209 40.638 66.8705 40.638 61.0095C40.638 51.5903 43.5004 42.964 48.2586 36.33C53.3068 38.574 61.4884 39.386 70.4621 38.1484C79.3594 36.93 86.9409 33.9903 91.2154 30.4896C99.0105 37.3747 104.078 48.4769 104.078 61.0095C104.078 67.4308 102.762 73.4656 100.403 78.7648C107.926 75.6506 113.458 64.5492 113.458 51.3385C113.458 37.2002 107.114 25.5378 98.8176 23.4101Z" fill="#494846"/>
</g>
</g>
<defs>
<clipPath id="clip0_2386_119814">
<rect width="144" height="144" fill="white" transform="translate(0 0.291016)"/>
</clipPath>
</defs>
</svg>
