<svg width="16" height="17" viewBox="0 0 16 17" fill="none" xmlns="http://www.w3.org/2000/svg">
<g clip-path="url(#clip0_5863_152300)">
<path d="M8 0.499512C9.0815 0.499512 10.1167 0.709746 11.1057 1.13022C12.0946 1.55068 12.9474 2.11917 13.6638 2.83566C14.3803 3.55216 14.9488 4.40488 15.3693 5.39383C15.7898 6.38278 16 7.41801 16 8.49951C16 9.58101 15.7898 10.6162 15.3693 11.6052C14.9488 12.5941 14.3803 13.4469 13.6638 14.1634C12.9474 14.8799 12.0946 15.4483 11.1057 15.8688C10.1167 16.2893 9.0815 16.4995 8 16.4995C6.9185 16.4995 5.88327 16.2893 4.89432 15.8688C3.90537 15.4483 3.05265 14.8799 2.33615 14.1634C1.61965 13.4469 1.05117 12.5941 0.630703 11.6052C0.210234 10.6162 0 9.58101 0 8.49951C0 7.41801 0.210234 6.38278 0.630703 5.39383C1.05117 4.40488 1.61965 3.55216 2.33615 2.83566C3.05265 2.11917 3.90537 1.55068 4.89432 1.13022C5.88327 0.709746 6.9185 0.499512 8 0.499512ZM9.44183 4.34041H6.55765C6.37289 4.34041 6.22505 4.40748 6.11413 4.54163C6.00321 4.67578 5.96629 4.83523 6.00338 5.01998L6.80775 9.20717C6.84484 9.39192 6.94415 9.55138 7.10568 9.68552C7.26721 9.81967 7.44053 9.88675 7.62563 9.88675H8.37437C8.55912 9.88675 8.73244 9.81967 8.89432 9.68552C9.0562 9.55138 9.15551 9.39192 9.19225 9.20717L9.99662 5.01998C10.0337 4.83523 9.99679 4.67578 9.88587 4.54163C9.77495 4.40748 9.62711 4.34041 9.44235 4.34041H9.44183ZM9.03991 11.2729H6.96009C6.86754 11.2729 6.7866 11.3076 6.71728 11.3769C6.64795 11.4463 6.61328 11.5272 6.61328 11.6198V13.6996C6.61328 13.7921 6.64795 13.8731 6.71728 13.9424C6.7866 14.0117 6.86754 14.0464 6.96009 14.0464H9.03991C9.13246 14.0464 9.2134 14.0117 9.28272 13.9424C9.35205 13.8731 9.38671 13.7921 9.38671 13.6996V11.6198C9.38671 11.5272 9.35205 11.4463 9.28272 11.3769C9.2134 11.3076 9.13246 11.2729 9.03991 11.2729Z" fill="#FD5F00"/>
</g>
<defs>
<clipPath id="clip0_5863_152300">
<rect width="16" height="16" fill="white" transform="translate(0 0.499512)"/>
</clipPath>
</defs>
</svg>
