<svg width="16" height="16" viewBox="0 0 16 16" fill="none" xmlns="http://www.w3.org/2000/svg">
<path fill-rule="evenodd" clip-rule="evenodd" d="M2 8C2 6.13623 2 5.20435 2.30448 4.46927C2.71046 3.48915 3.48915 2.71046 4.46927 2.30448C5.20435 2 6.13623 2 8 2C9.86377 2 10.7956 2 11.5307 2.30448C12.5108 2.71046 13.2895 3.48915 13.6955 4.46927C14 5.20435 14 6.13623 14 8C14 9.86377 14 10.7956 13.6955 11.5307C13.2895 12.5108 12.5108 13.2895 11.5307 13.6955C10.7956 14 9.86377 14 8 14C6.13623 14 5.20435 14 4.46927 13.6955C3.48915 13.2895 2.71046 12.5108 2.30448 11.5307C2 10.7956 2 9.86377 2 8ZM6.5 6.5C6.5 5.67157 7.17157 5 8 5C8.82843 5 9.5 5.67157 9.5 6.5C9.5 7.32843 8.82843 8 8 8C7.17157 8 6.5 7.32843 6.5 6.5ZM5.6158 8.79473C5.24805 8.91732 5 9.26147 5 9.64911C5 10.3952 5.60481 11 6.35089 11H9.64911C10.3952 11 11 10.3952 11 9.64911C11 9.26147 10.7519 8.91732 10.3842 8.79473L9.97434 8.65811C9.66644 8.55548 9.33356 8.55548 9.02566 8.65811L8.5 8.83333C8.17544 8.94152 7.82456 8.94152 7.5 8.83333L6.97434 8.65811C6.66644 8.55548 6.33356 8.55548 6.02566 8.65811L5.6158 8.79473Z"/>
</svg>
