<svg width="16" height="16" viewBox="0 0 16 16" fill="none" xmlns="http://www.w3.org/2000/svg">
<path d="M2.30448 4.46927C2 5.20435 2 6.13623 2 8C2 9.86377 2 10.7956 2.30448 11.5307C2.71046 12.5108 3.48915 13.2895 4.46927 13.6955C5.20435 14 6.13623 14 8 14C9.86377 14 10.7956 14 11.5307 13.6955C12.5108 13.2895 13.2895 12.5108 13.6955 11.5307C14 10.7956 14 9.86377 14 8C14 6.66321 14 5.80583 13.8877 5.15662L7.84211 11.0471L4.4766 7.76794C4.17993 7.47888 4.17376 7.00404 4.46283 6.70737C4.75189 6.4107 5.22673 6.40453 5.5234 6.6936L7.8421 8.95285L13.2565 3.67726C12.8247 3.07185 12.2288 2.59363 11.5307 2.30448C10.7956 2 9.86377 2 8 2C6.13623 2 5.20435 2 4.46927 2.30448C3.48915 2.71046 2.71046 3.48915 2.30448 4.46927Z"/>
</svg>
