<svg width="16" height="16" viewBox="0 0 16 16" fill="none" xmlns="http://www.w3.org/2000/svg">
<path d="M13.1176 6.18001C12.79 5.48368 12.1384 5.00979 10.8352 4.06202L9.17634 2.8556C8.6089 2.44291 8.32519 2.23657 8 2.23657C7.67482 2.23657 7.3911 2.44291 6.82366 2.8556L5.16483 4.06202C3.86164 5.00979 3.21005 5.48368 2.88241 6.18001C2.55477 6.87633 2.60503 7.68046 2.70554 9.28871L2.8828 12.1248C2.93834 13.0134 2.9661 13.4577 3.25475 13.7289C3.54341 14.0001 3.98857 14.0001 4.8789 14.0001L6 14.0001V10.0001C6 9.44779 6.44772 9.00007 7 9.00007H9C9.55229 9.00007 10 9.44779 10 10.0001V14.0001L11.1211 14.0001C12.0114 14.0001 12.4566 14.0001 12.7452 13.7289C13.0339 13.4577 13.0617 13.0134 13.1172 12.1248L13.2945 9.28871C13.395 7.68047 13.4452 6.87633 13.1176 6.18001Z"/>
</svg>
