<svg width="16" height="16" viewBox="0 0 16 16" fill="none" xmlns="http://www.w3.org/2000/svg">
<path d="M7.99935 2.66669C8.72035 2.66669 9.4105 2.80684 10.0698 3.08716C10.7291 3.36747 11.2976 3.74646 11.7752 4.22412C12.2529 4.70178 12.6319 5.27027 12.9122 5.92957C13.1925 6.58887 13.3327 7.27902 13.3327 8.00002C13.3327 8.72102 13.1925 9.41117 12.9122 10.0705C12.6319 10.7298 12.2529 11.2983 11.7752 11.7759C11.2976 12.2536 10.7291 12.6326 10.0698 12.9129C9.4105 13.1932 8.72035 13.3334 7.99935 13.3334C7.27835 13.3334 6.5882 13.1932 5.9289 12.9129C5.26959 12.6326 4.70111 12.2536 4.22345 11.7759C3.74579 11.2983 3.3668 10.7298 3.08648 10.0705C2.80617 9.41117 2.66602 8.72102 2.66602 8.00002C2.66602 7.27902 2.80617 6.58887 3.08648 5.92957C3.3668 5.27027 3.74579 4.70178 4.22345 4.22412C4.70111 3.74646 5.26959 3.36747 5.9289 3.08716C6.5882 2.80684 7.27835 2.66669 7.99935 2.66669ZM8.96057 5.22728H7.03778C6.91461 5.22728 6.81605 5.272 6.7421 5.36143C6.66815 5.45086 6.64354 5.55716 6.66827 5.68034L7.20451 8.47179C7.22924 8.59496 7.29545 8.70126 7.40314 8.7907C7.51082 8.88013 7.62637 8.92484 7.74977 8.92484H8.24893C8.3721 8.92484 8.48764 8.88013 8.59556 8.7907C8.70348 8.70126 8.76969 8.59496 8.79418 8.47179L9.33043 5.68034C9.35516 5.55716 9.33055 5.45086 9.2566 5.36143C9.18265 5.272 9.08409 5.22728 8.96092 5.22728H8.96057ZM8.69262 9.84897H7.30608C7.24438 9.84897 7.19042 9.87208 7.1442 9.9183C7.09798 9.96452 7.07487 10.0185 7.07487 10.0802V11.4667C7.07487 11.5284 7.09798 11.5824 7.1442 11.6286C7.19042 11.6748 7.24438 11.6979 7.30608 11.6979H8.69262C8.75432 11.6979 8.80828 11.6748 8.8545 11.6286C8.90072 11.5824 8.92383 11.5284 8.92383 11.4667V10.0802C8.92383 10.0185 8.90072 9.96452 8.8545 9.9183C8.80828 9.87208 8.75432 9.84897 8.69262 9.84897Z" fill="#FDA700"/>
</svg>
