<svg width="48" height="48" viewBox="0 0 48 48" fill="none" xmlns="http://www.w3.org/2000/svg">
<rect x="0.5" y="0.5" width="47" height="47" rx="23.5" fill="#F9FBFD" stroke="#EAF0F6"/>
<path d="M33.4286 15.4287H14.5714C13.1513 15.4287 12 16.58 12 18.0001V30.0001C12 31.4203 13.1513 32.5715 14.5714 32.5715H33.4286C34.8487 32.5715 36 31.4203 36 30.0001V18.0001C36 16.58 34.8487 15.4287 33.4286 15.4287ZM34.2857 30.0001C34.2857 30.4735 33.9019 30.8573 33.4285 30.8573H14.5714C14.098 30.8573 13.7143 30.4735 13.7143 30.0001V29.4978L17.1429 26.0692L19.9654 28.8918C20.3001 29.2265 20.8427 29.2265 21.1774 28.8918L28.2857 21.7835L34.2857 27.7836V30.0001H34.2857ZM34.2857 25.3595L28.8917 19.9656C28.557 19.6309 28.0144 19.6309 27.6797 19.9656L20.5714 27.0738L17.7488 24.2512C17.4142 23.9166 16.8715 23.9166 16.5369 24.2512L13.7143 27.0738V18.0001C13.7143 17.5267 14.098 17.143 14.5714 17.143H33.4286C33.902 17.143 34.2857 17.5267 34.2857 18.0001V25.3595H34.2857Z" fill="#C1CCD3"/>
<path d="M19.7142 18.8569C18.2941 18.8569 17.1428 20.0082 17.1428 21.4284C17.1428 22.8485 18.2941 23.9998 19.7142 23.9998C21.1344 23.9998 22.2857 22.8485 22.2857 21.4284C22.2857 20.0082 21.1344 18.8569 19.7142 18.8569ZM19.7142 22.2855C19.2408 22.2855 18.8571 21.9018 18.8571 21.4284C18.8571 20.955 19.2408 20.5712 19.7142 20.5712C20.1877 20.5712 20.5714 20.955 20.5714 21.4284C20.5714 21.9018 20.1877 22.2855 19.7142 22.2855Z" fill="#C1CCD3"/>
</svg>
