<svg width="80" height="80" viewBox="0 0 80 80" fill="none" xmlns="http://www.w3.org/2000/svg">
    <rect x="0.5" y="0.5" width="79" height="79" rx="39.5" fill="#F9FBFD" stroke="#EAF0F6"/>
    <path d="M54.7033 50.16C48.9717 48.8367 43.635 47.6767 46.22 42.7967C54.085 27.9433 48.305 20 40 20C31.53 20 25.8917 28.2483 33.78 42.7967C36.4433 47.705 30.905 48.865 25.2967 50.16C20.3317 51.3067 20 53.7317 20 57.9317L20.0083 60H23.3333C23.3333 54.7767 23.125 54.0833 26.3967 53.3283C31.1483 52.2333 35.635 51.1983 37.2717 47.5683C37.87 46.2433 38.2583 44.0633 36.7083 41.21C33.2783 34.8783 32.4117 29.395 34.3367 26.1667C36.5933 22.375 43.38 22.3933 45.615 26.11C47.5317 29.295 46.68 34.8083 43.2767 41.2367C41.76 44.1017 42.1583 46.275 42.76 47.5933C44.41 51.205 48.9383 52.25 53.7333 53.3567C56.865 54.0833 56.6667 54.8267 56.6667 60H59.9917L60 57.9317C60 53.7317 59.6683 51.3067 54.7033 50.16Z" fill="#C1CCD3"/>
</svg>
