<svg width="16" height="16" viewBox="0 0 16 16" fill="none" xmlns="http://www.w3.org/2000/svg">
<path d="M8 2C8.81113 2 9.58755 2.15768 10.3293 2.47303C11.071 2.78838 11.7105 3.21474 12.2479 3.75211C12.7853 4.28948 13.2116 4.92903 13.527 5.67074C13.8423 6.41245 14 7.18887 14 8C14 8.81113 13.8423 9.58755 13.527 10.3293C13.2116 11.071 12.7853 11.7105 12.2479 12.2479C11.7105 12.7853 11.071 13.2116 10.3293 13.527C9.58755 13.8423 8.81113 14 8 14C7.18887 14 6.41245 13.8423 5.67074 13.527C4.92903 13.2116 4.28948 12.7853 3.75211 12.2479C3.21474 11.7105 2.78838 11.071 2.47303 10.3293C2.15768 9.58755 2 8.81113 2 8C2 7.18887 2.15768 6.41245 2.47303 5.67074C2.78838 4.92903 3.21474 4.28948 3.75211 3.75211C4.28948 3.21474 4.92903 2.78838 5.67074 2.47303C6.41245 2.15768 7.18887 2 8 2ZM8 3.55986C7.19589 3.55986 6.45236 3.75744 5.7694 4.15261C5.08644 4.54777 4.54738 5.08683 4.15222 5.76979C3.75705 6.45275 3.55947 7.19628 3.55947 8.00039C3.55947 8.83232 3.78474 9.61225 4.23528 10.3402L10.3394 4.23606C9.61146 3.78552 8.83153 3.56025 7.99961 3.56025L8 3.55986ZM11.7955 5.723L5.7226 11.7959C6.44352 12.2257 7.20265 12.4405 8 12.4405C8.80411 12.4405 9.54764 12.2429 10.2306 11.8478C10.9136 11.4526 11.4526 10.9136 11.8478 10.2306C12.2429 9.54764 12.4405 8.80411 12.4405 8C12.4405 7.20265 12.2257 6.44352 11.7959 5.72261L11.7955 5.723Z" fill="#FD5F00"/>
</svg>
