<svg width="16" height="16" viewBox="0 0 16 16" fill="none" xmlns="http://www.w3.org/2000/svg">
<path d="M6 6.66675V8.00008H4.66667V6.66675H6ZM8.66667 6.66675V8.00008H7.33333V6.66675H8.66667ZM11.3333 6.66675V8.00008H10V6.66675H11.3333ZM12.6667 2.00008C13.0203 2.00008 13.3594 2.14056 13.6095 2.39061C13.8595 2.64065 14 2.97979 14 3.33341V12.6667C14 13.0204 13.8595 13.3595 13.6095 13.6096C13.3594 13.8596 13.0203 14.0001 12.6667 14.0001H3.33333C2.59333 14.0001 2 13.4001 2 12.6667V3.33341C2 2.97979 2.14048 2.64065 2.39052 2.39061C2.64057 2.14056 2.97971 2.00008 3.33333 2.00008H4V0.666748H5.33333V2.00008H10.6667V0.666748H12V2.00008H12.6667ZM12.6667 12.6667V5.33341H3.33333V12.6667H12.6667ZM6 9.33341V10.6667H4.66667V9.33341H6ZM8.66667 9.33341V10.6667H7.33333V9.33341H8.66667ZM11.3333 9.33341V10.6667H10V9.33341H11.3333Z" fill="white"/>
</svg>
