<svg width="12" height="12" viewBox="0 0 12 12" fill="none" xmlns="http://www.w3.org/2000/svg">
<path d="M6 0C6.81113 0 7.58755 0.157676 8.32926 0.473028C9.07097 0.788379 9.71052 1.21474 10.2479 1.75211C10.7853 2.28948 11.2116 2.92903 11.527 3.67074C11.8423 4.41245 12 5.18887 12 6C12 6.81113 11.8423 7.58755 11.527 8.32926C11.2116 9.07097 10.7853 9.71052 10.2479 10.2479C9.71052 10.7853 9.07097 11.2116 8.32926 11.527C7.58755 11.8423 6.81113 12 6 12C5.18887 12 4.41245 11.8423 3.67074 11.527C2.92903 11.2116 2.28948 10.7853 1.75211 10.2479C1.21474 9.71052 0.788379 9.07097 0.473027 8.32926C0.157676 7.58755 0 6.81113 0 6C0 5.18887 0.157676 4.41245 0.473027 3.67074C0.788379 2.92903 1.21474 2.28948 1.75211 1.75211C2.28948 1.21474 2.92903 0.788379 3.67074 0.473028C4.41245 0.157676 5.18887 0 6 0ZM6 1.55986C5.19589 1.55986 4.45236 1.75744 3.7694 2.15261C3.08644 2.54777 2.54738 3.08683 2.15222 3.76979C1.75705 4.45275 1.55947 5.19628 1.55947 6.00039C1.55947 6.83232 1.78474 7.61225 2.23528 8.34018L8.3394 2.23606C7.61146 1.78552 6.83153 1.56025 5.99961 1.56025L6 1.55986ZM9.79553 3.723L3.7226 9.79592C4.44352 10.2257 5.20265 10.4405 6 10.4405C6.80411 10.4405 7.54764 10.2429 8.2306 9.84778C8.91356 9.45262 9.45262 8.91356 9.84778 8.2306C10.2429 7.54764 10.4405 6.80411 10.4405 6C10.4405 5.20265 10.2257 4.44352 9.79592 3.72261L9.79553 3.723Z" fill="#FD5F00"/>
</svg>
