<svg width="80" height="77" viewBox="0 0 80 77" fill="none" xmlns="http://www.w3.org/2000/svg">
<rect width="80" height="80" rx="8" fill="#1A86D0" fill-opacity="0.2"/>
<path d="M34.9363 35.354V45H33.3763V44.103C33.1076 44.4323 32.774 44.6793 32.3753 44.844C31.9853 45.0087 31.552 45.091 31.0753 45.091C30.408 45.091 29.8056 44.9437 29.2683 44.649C28.7396 44.3543 28.3236 43.9383 28.0203 43.401C27.717 42.855 27.5653 42.231 27.5653 41.529C27.5653 40.827 27.717 40.2073 28.0203 39.67C28.3236 39.1327 28.7396 38.7167 29.2683 38.422C29.8056 38.1273 30.408 37.98 31.0753 37.98C31.5346 37.98 31.955 38.058 32.3363 38.214C32.7176 38.37 33.0426 38.604 33.3113 38.916V35.354H34.9363ZM31.2703 43.7C31.6603 43.7 32.0113 43.6133 32.3233 43.44C32.6353 43.258 32.8823 43.0023 33.0643 42.673C33.2463 42.3437 33.3373 41.9623 33.3373 41.529C33.3373 41.0957 33.2463 40.7143 33.0643 40.385C32.8823 40.0557 32.6353 39.8043 32.3233 39.631C32.0113 39.449 31.6603 39.358 31.2703 39.358C30.8803 39.358 30.5293 39.449 30.2173 39.631C29.9053 39.8043 29.6583 40.0557 29.4763 40.385C29.2943 40.7143 29.2033 41.0957 29.2033 41.529C29.2033 41.9623 29.2943 42.3437 29.4763 42.673C29.6583 43.0023 29.9053 43.258 30.2173 43.44C30.5293 43.6133 30.8803 43.7 31.2703 43.7ZM40.1821 45.091C39.4801 45.091 38.8474 44.9393 38.2841 44.636C37.7208 44.3327 37.2788 43.9123 36.9581 43.375C36.6461 42.829 36.4901 42.2137 36.4901 41.529C36.4901 40.8443 36.6461 40.2333 36.9581 39.696C37.2788 39.1587 37.7208 38.7383 38.2841 38.435C38.8474 38.1317 39.4801 37.98 40.1821 37.98C40.8928 37.98 41.5298 38.1317 42.0931 38.435C42.6564 38.7383 43.0941 39.1587 43.4061 39.696C43.7268 40.2333 43.8871 40.8443 43.8871 41.529C43.8871 42.2137 43.7268 42.829 43.4061 43.375C43.0941 43.9123 42.6564 44.3327 42.0931 44.636C41.5298 44.9393 40.8928 45.091 40.1821 45.091ZM40.1821 43.7C40.7801 43.7 41.2741 43.5007 41.6641 43.102C42.0541 42.7033 42.2491 42.179 42.2491 41.529C42.2491 40.879 42.0541 40.3547 41.6641 39.956C41.2741 39.5573 40.7801 39.358 40.1821 39.358C39.5841 39.358 39.0901 39.5573 38.7001 39.956C38.3188 40.3547 38.1281 40.879 38.1281 41.529C38.1281 42.179 38.3188 42.7033 38.7001 43.102C39.0901 43.5007 39.5841 43.7 40.1821 43.7ZM48.626 45.091C47.9067 45.091 47.261 44.9393 46.689 44.636C46.117 44.3327 45.6707 43.9123 45.35 43.375C45.0293 42.829 44.869 42.2137 44.869 41.529C44.869 40.8443 45.0293 40.2333 45.35 39.696C45.6707 39.1587 46.1127 38.7383 46.676 38.435C47.248 38.1317 47.898 37.98 48.626 37.98C49.3107 37.98 49.9087 38.1187 50.42 38.396C50.94 38.6733 51.33 39.072 51.59 39.592L50.342 40.32C50.1427 39.9993 49.8913 39.761 49.588 39.605C49.2933 39.4403 48.9683 39.358 48.613 39.358C48.0063 39.358 47.5037 39.5573 47.105 39.956C46.7063 40.346 46.507 40.8703 46.507 41.529C46.507 42.1877 46.702 42.7163 47.092 43.115C47.4907 43.505 47.9977 43.7 48.613 43.7C48.9683 43.7 49.2933 43.622 49.588 43.466C49.8913 43.3013 50.1427 43.0587 50.342 42.738L51.59 43.466C51.3213 43.986 50.927 44.389 50.407 44.675C49.8957 44.9523 49.302 45.091 48.626 45.091Z" fill="#1A86D0"/>
</svg>
