<svg width="80" height="77" viewBox="0 0 80 77" fill="none" xmlns="http://www.w3.org/2000/svg">
<rect width="80" height="80" rx="8" fill="#1A86D0" fill-opacity="0.2"/>
<path d="M32.3054 35.354V45H30.7454V44.103C30.4768 44.4323 30.1431 44.6793 29.7444 44.844C29.3544 45.0087 28.9211 45.091 28.4444 45.091C27.7771 45.091 27.1748 44.9437 26.6374 44.649C26.1088 44.3543 25.6928 43.9383 25.3894 43.401C25.0861 42.855 24.9344 42.231 24.9344 41.529C24.9344 40.827 25.0861 40.2073 25.3894 39.67C25.6928 39.1327 26.1088 38.7167 26.6374 38.422C27.1748 38.1273 27.7771 37.98 28.4444 37.98C28.9038 37.98 29.3241 38.058 29.7054 38.214C30.0868 38.37 30.4118 38.604 30.6804 38.916V35.354H32.3054ZM28.6394 43.7C29.0294 43.7 29.3804 43.6133 29.6924 43.44C30.0044 43.258 30.2514 43.0023 30.4334 42.673C30.6154 42.3437 30.7064 41.9623 30.7064 41.529C30.7064 41.0957 30.6154 40.7143 30.4334 40.385C30.2514 40.0557 30.0044 39.8043 29.6924 39.631C29.3804 39.449 29.0294 39.358 28.6394 39.358C28.2494 39.358 27.8984 39.449 27.5864 39.631C27.2744 39.8043 27.0274 40.0557 26.8454 40.385C26.6634 40.7143 26.5724 41.0957 26.5724 41.529C26.5724 41.9623 26.6634 42.3437 26.8454 42.673C27.0274 43.0023 27.2744 43.258 27.5864 43.44C27.8984 43.6133 28.2494 43.7 28.6394 43.7ZM37.5512 45.091C36.8492 45.091 36.2166 44.9393 35.6532 44.636C35.0899 44.3327 34.6479 43.9123 34.3272 43.375C34.0152 42.829 33.8592 42.2137 33.8592 41.529C33.8592 40.8443 34.0152 40.2333 34.3272 39.696C34.6479 39.1587 35.0899 38.7383 35.6532 38.435C36.2166 38.1317 36.8492 37.98 37.5512 37.98C38.2619 37.98 38.8989 38.1317 39.4622 38.435C40.0256 38.7383 40.4632 39.1587 40.7752 39.696C41.0959 40.2333 41.2562 40.8443 41.2562 41.529C41.2562 42.2137 41.0959 42.829 40.7752 43.375C40.4632 43.9123 40.0256 44.3327 39.4622 44.636C38.8989 44.9393 38.2619 45.091 37.5512 45.091ZM37.5512 43.7C38.1492 43.7 38.6432 43.5007 39.0332 43.102C39.4232 42.7033 39.6182 42.179 39.6182 41.529C39.6182 40.879 39.4232 40.3547 39.0332 39.956C38.6432 39.5573 38.1492 39.358 37.5512 39.358C36.9532 39.358 36.4592 39.5573 36.0692 39.956C35.6879 40.3547 35.4972 40.879 35.4972 41.529C35.4972 42.179 35.6879 42.7033 36.0692 43.102C36.4592 43.5007 36.9532 43.7 37.5512 43.7ZM45.9951 45.091C45.2758 45.091 44.6301 44.9393 44.0581 44.636C43.4861 44.3327 43.0398 43.9123 42.7191 43.375C42.3985 42.829 42.2381 42.2137 42.2381 41.529C42.2381 40.8443 42.3985 40.2333 42.7191 39.696C43.0398 39.1587 43.4818 38.7383 44.0451 38.435C44.6171 38.1317 45.2671 37.98 45.9951 37.98C46.6798 37.98 47.2778 38.1187 47.7891 38.396C48.3091 38.6733 48.6991 39.072 48.9591 39.592L47.7111 40.32C47.5118 39.9993 47.2605 39.761 46.9571 39.605C46.6625 39.4403 46.3375 39.358 45.9821 39.358C45.3755 39.358 44.8728 39.5573 44.4741 39.956C44.0755 40.346 43.8761 40.8703 43.8761 41.529C43.8761 42.1877 44.0711 42.7163 44.4611 43.115C44.8598 43.505 45.3668 43.7 45.9821 43.7C46.3375 43.7 46.6625 43.622 46.9571 43.466C47.2605 43.3013 47.5118 43.0587 47.7111 42.738L48.9591 43.466C48.6905 43.986 48.2961 44.389 47.7761 44.675C47.2648 44.9523 46.6711 45.091 45.9951 45.091ZM54.5934 45L52.8124 42.595L51.0184 45H49.2244L51.9284 41.477L49.3414 38.058H51.1484L52.8514 40.333L54.5544 38.058H56.3094L53.7094 41.451L56.4264 45H54.5934Z" fill="#1A86D0"/>
</svg>
