<svg width="145" height="144" viewBox="0 0 145 144" fill="none" xmlns="http://www.w3.org/2000/svg">
<path d="M128.708 31.2097C128.703 31.1575 128.694 31.1068 128.686 31.0561C128.683 31.0392 128.681 31.0217 128.678 31.0048C128.666 30.9442 128.65 30.885 128.633 30.8267C128.631 30.8197 128.63 30.8121 128.627 30.805C128.609 30.745 128.588 30.6864 128.564 30.6289C128.562 30.623 128.56 30.6168 128.558 30.6108C128.535 30.5559 128.509 30.5026 128.482 30.4502C128.477 30.4415 128.474 30.4325 128.469 30.4237C128.443 30.375 128.414 30.3282 128.384 30.2817C128.377 30.2699 128.37 30.2575 128.363 30.2459C128.334 30.2025 128.302 30.1614 128.27 30.1202C128.259 30.1067 128.25 30.0926 128.239 30.0794C128.199 30.0306 128.156 29.9841 128.112 29.939C128.108 29.9348 128.105 29.9303 128.1 29.9261L98.7931 0.618834C98.788 0.613761 98.7824 0.609534 98.777 0.604462C98.7331 0.561346 98.6877 0.51964 98.6401 0.48047C98.6246 0.467789 98.6082 0.45708 98.5925 0.444963C98.5536 0.41481 98.515 0.384658 98.4741 0.357323C98.4597 0.347742 98.4445 0.339851 98.4301 0.330552C98.3862 0.302654 98.3422 0.275037 98.2963 0.250521C98.2861 0.245166 98.2754 0.240658 98.265 0.235585C98.214 0.209378 98.1622 0.184016 98.1089 0.161753C98.1021 0.158935 98.0951 0.156963 98.088 0.154145C98.0311 0.131319 97.9736 0.109902 97.9145 0.0918669C97.9068 0.0896125 97.8992 0.0882035 97.8916 0.0859491C97.8336 0.0690411 97.7747 0.0535421 97.7147 0.0414247C97.6969 0.0377613 97.6786 0.0363523 97.6606 0.0332524C97.6107 0.0245166 97.5608 0.0157808 97.5095 0.0107084C97.4396 0.0036634 97.3692 0 97.2984 0H27.4119C21.2743 0 16.2808 4.9935 16.2808 11.1311V132.869C16.2808 139.007 21.2743 144 27.4119 144H117.588C123.726 144 128.719 139.007 128.719 132.869V31.4207C128.719 31.35 128.716 31.2796 128.708 31.2097ZM99.4119 7.21578L121.503 29.3072H106.316C102.509 29.3072 99.4119 26.2103 99.4119 22.4031V7.21578ZM117.588 139.773H27.4119C23.6051 139.773 20.5078 136.676 20.5078 132.869V11.1311C20.5078 7.32399 23.6051 4.22701 27.4119 4.22701H95.1849V22.4031C95.1849 28.5407 100.178 33.5342 106.316 33.5342H124.492V132.869C124.492 136.676 121.395 139.773 117.588 139.773Z" fill="#005792"/>
<path d="M63.5283 69.0855C62.8997 68.3998 61.814 68.3426 61.1283 68.9712C60.4426 69.5998 60.3854 70.6855 61.014 71.3712L69.6425 80.7426C69.9854 81.0855 70.3854 81.3141 70.8425 81.3141C70.8425 81.3141 70.8425 81.3141 70.8997 81.3141C71.3568 81.3141 71.814 81.1426 72.0997 80.7998L93.9283 59.0283C94.614 58.3426 94.614 57.2569 93.9283 56.6283C93.2425 55.9998 92.1568 55.9426 91.5283 56.6283L70.9568 77.1426L63.5283 69.0855Z" fill="#21AE8C"/>
<path d="M93.5291 71.4285C92.5576 71.4285 91.8148 72.1713 91.8148 73.1428C91.8148 83.7713 83.1291 92.4571 72.5005 92.4571C61.8719 92.4571 53.1862 83.7713 53.1862 73.1428C53.1862 62.5142 61.8719 53.8285 72.5005 53.8285C73.4719 53.8285 74.2148 53.0856 74.2148 52.1142C74.2148 51.1428 73.4719 50.3999 72.5005 50.3999C59.9862 50.3999 49.7576 60.6285 49.7576 73.1428C49.7576 85.657 59.9862 95.8856 72.5005 95.8856C85.0148 95.8856 95.2434 85.657 95.2434 73.1428C95.2434 72.1713 94.5005 71.4285 93.5291 71.4285Z" fill="#21AE8C"/>
</svg>
