<svg width="16" height="16" viewBox="0 0 16 16" fill="none" xmlns="http://www.w3.org/2000/svg">
<path d="M7.99947 0.593506C9.04847 0.593506 10.0485 0.795673 10.9995 1.20001C11.9505 1.60434 12.7705 2.15101 13.4595 2.84001C14.1485 3.52901 14.6951 4.34901 15.0995 5.30001C15.5038 6.25101 15.706 7.25101 15.706 8.30001C15.706 9.34901 15.5038 10.349 15.0995 11.3C14.6951 12.251 14.1485 13.071 13.4595 13.76C12.7705 14.449 11.9505 14.9957 10.9995 15.4C10.0485 15.8043 9.04847 16.0065 7.99947 16.0065C6.95047 16.0065 5.95047 15.8043 4.99947 15.4C4.04847 14.9957 3.22847 14.449 2.53947 13.76C1.85047 13.071 1.3038 12.251 0.899469 11.3C0.495135 10.349 0.292969 9.34901 0.292969 8.30001C0.292969 7.25101 0.495135 6.25101 0.899469 5.30001C1.3038 4.34901 1.85047 3.52901 2.53947 2.84001C3.22847 2.15101 4.04847 1.60434 4.99947 1.20001C5.95047 0.795673 6.95047 0.593506 7.99947 0.593506ZM8.99947 4.30001H6.99947C6.91047 4.30001 6.83263 4.33334 6.76597 4.40001C6.6993 4.46667 6.66597 4.54451 6.66597 4.63351V8.30001H4.83947C4.6528 8.30001 4.5373 8.35117 4.49297 8.45351C4.44864 8.55584 4.48414 8.67801 4.59947 8.82001L7.57297 12.4865C7.68864 12.6288 7.8308 12.7 7.99947 12.7C8.16814 12.7 8.3103 12.6288 8.42597 12.4865L11.3995 8.82001C11.5151 8.67767 11.5506 8.55551 11.506 8.45351C11.4613 8.35151 11.3458 8.30034 11.1595 8.30001H9.33297V4.63351C9.33297 4.54451 9.29963 4.46667 9.23297 4.40001C9.1663 4.33334 9.08847 4.30001 8.99947 4.30001Z" fill="#F9FBFD"/>
</svg>
