<svg width="24" height="24" viewBox="0 0 24 24" fill="none" xmlns="http://www.w3.org/2000/svg">
<path d="M11.5597 0C13.1332 0 14.6332 0.30325 16.0597 0.90975C17.4862 1.51625 18.7162 2.33625 19.7497 3.36975C20.7832 4.40325 21.6032 5.63325 22.2097 7.05975C22.8162 8.48625 23.1195 9.98625 23.1195 11.5597C23.1195 13.1332 22.8162 14.6332 22.2097 16.0597C21.6032 17.4862 20.7832 18.7162 19.7497 19.7497C18.7162 20.7832 17.4862 21.6032 16.0597 22.2097C14.6332 22.8162 13.1332 23.1195 11.5597 23.1195C9.98625 23.1195 8.48625 22.8162 7.05975 22.2097C5.63325 21.6032 4.40325 20.7832 3.36975 19.7497C2.33625 18.7162 1.51625 17.4862 0.90975 16.0597C0.30325 14.6332 0 13.1332 0 11.5597C0 9.98625 0.30325 8.48625 0.90975 7.05975C1.51625 5.63325 2.33625 4.40325 3.36975 3.36975C4.40325 2.33625 5.63325 1.51625 7.05975 0.90975C8.48625 0.30325 9.98625 0 11.5597 0ZM13.0597 5.55975H10.0597C9.92625 5.55975 9.8095 5.60975 9.7095 5.70975C9.6095 5.80975 9.5595 5.9265 9.5595 6.06V11.5597H6.81975C6.53975 11.5597 6.3665 11.6365 6.3 11.79C6.2335 11.9435 6.28675 12.1267 6.45975 12.3397L10.92 17.8395C11.0935 18.053 11.3067 18.1597 11.5597 18.1597C11.8127 18.1597 12.026 18.053 12.1995 17.8395L16.6597 12.3397C16.8332 12.1263 16.8865 11.943 16.8195 11.79C16.7525 11.637 16.5792 11.5602 16.2997 11.5597H13.56V6.06C13.56 5.9265 13.51 5.80975 13.41 5.70975C13.31 5.60975 13.1932 5.55975 13.0597 5.55975Z" fill="#F9FBFD"/>
</svg>
