<svg width="23" height="23" viewBox="0 0 23 23" fill="none" xmlns="http://www.w3.org/2000/svg">
<path d="M11.6077 0.543945C13.7837 0.543945 15.7277 0.991945 17.4397 1.88795C19.1517 2.78395 20.4797 4.03195 21.4237 5.63195C22.3837 7.23195 22.8637 9.03995 22.8637 11.0559C22.8637 13.1359 22.4557 14.7679 21.6397 15.9519C20.8237 17.1199 19.6957 17.7039 18.2557 17.7039C17.4877 17.7039 16.8397 17.5279 16.3117 17.1759C15.7837 16.8079 15.4157 16.2879 15.2077 15.6159C14.2477 17.0079 12.8077 17.7039 10.8877 17.7039C9.79974 17.7039 8.81574 17.4479 7.93574 16.9359C7.05574 16.4079 6.36774 15.6799 5.87174 14.7519C5.37574 13.8239 5.12774 12.7679 5.12774 11.5839C5.12774 10.4159 5.37574 9.37595 5.87174 8.46395C6.36774 7.53595 7.05574 6.81595 7.93574 6.30395C8.81574 5.77595 9.79974 5.51195 10.8877 5.51195C11.7357 5.51195 12.4957 5.65595 13.1677 5.94395C13.8557 6.23195 14.4317 6.65595 14.8957 7.21595V5.65595H17.5597V13.8159C17.5597 14.3919 17.6717 14.8079 17.8957 15.0639C18.1357 15.3199 18.4397 15.4479 18.8077 15.4479C19.4637 15.4479 19.9597 15.0799 20.2957 14.3439C20.6477 13.5919 20.8237 12.5119 20.8237 11.1039C20.8237 9.40795 20.4317 7.91195 19.6477 6.61595C18.8797 5.31995 17.7997 4.31195 16.4077 3.59195C15.0157 2.87195 13.4157 2.51195 11.6077 2.51195C9.78374 2.51195 8.16774 2.89595 6.75974 3.66395C5.35174 4.41595 4.26374 5.47195 3.49574 6.83195C2.72774 8.19195 2.34374 9.73595 2.34374 11.4639C2.34374 13.2239 2.71974 14.7839 3.47174 16.1439C4.23974 17.5039 5.31974 18.5599 6.71174 19.3119C8.10374 20.0799 9.70374 20.4639 11.5117 20.4639C12.2957 20.4639 13.0877 20.3759 13.8877 20.1999C14.7037 20.0239 15.4637 19.7599 16.1677 19.4079L16.8157 21.3279C16.1117 21.6959 15.2797 21.9759 14.3197 22.1679C13.3757 22.3599 12.4397 22.4559 11.5117 22.4559C9.27174 22.4559 7.28774 21.9839 5.55974 21.0399C3.84774 20.0959 2.51174 18.7919 1.55174 17.1279C0.607742 15.4639 0.135742 13.5759 0.135742 11.4639C0.135742 9.38395 0.615742 7.51995 1.57574 5.87195C2.53574 4.20795 3.87974 2.90395 5.60774 1.95995C7.35174 1.01595 9.35174 0.543945 11.6077 0.543945ZM11.3917 15.3759C12.4317 15.3759 13.2797 15.0399 13.9357 14.3679C14.6077 13.6799 14.9437 12.7519 14.9437 11.5839C14.9437 10.4319 14.6077 9.51995 13.9357 8.84795C13.2797 8.17595 12.4317 7.83995 11.3917 7.83995C10.3357 7.83995 9.47974 8.18395 8.82374 8.87195C8.16774 9.54395 7.83974 10.4479 7.83974 11.5839C7.83974 12.7359 8.16774 13.6559 8.82374 14.3439C9.47974 15.0319 10.3357 15.3759 11.3917 15.3759Z" fill="#C1CCD3"/>
</svg>
