<svg width="16" height="16" viewBox="0 0 16 16" fill="none" xmlns="http://www.w3.org/2000/svg">
<path d="M8 1C4.13402 1 1 4.13402 1 8C1 11.866 4.13402 15 8 15C11.866 15 15 11.866 15 8C15 4.13402 11.866 1 8 1ZM12.2898 12.2898C11.2261 13.3503 9.80565 13.9768 8.30525 14.0472C6.80485 14.1177 5.33197 13.627 4.1736 12.6708C3.01524 11.7146 2.25436 10.3613 2.03923 8.87478C1.82411 7.38821 2.17014 5.8748 3.00991 4.62943C3.84968 3.38407 5.12302 2.49595 6.58183 2.13815C8.04065 1.78034 9.58042 1.97848 10.9011 2.69394C12.2218 3.40941 13.2289 4.59095 13.726 6.00834C14.2231 7.42574 14.1747 8.97745 13.5903 10.3611C13.2857 11.0821 12.844 11.7371 12.2898 12.2898Z" fill="#495057"/>
<path d="M5 6H6V7H5V6Z" fill="#495057"/>
<path d="M10 6H11V7H10V6Z" fill="#495057"/>
<path d="M10.0915 10.0727C9.93421 10.4277 9.66095 10.732 9.30737 10.9461C8.95379 11.1601 8.53628 11.274 8.10929 11.2727H7.89071C7.4637 11.274 7.04618 11.1601 6.69258 10.9461C6.33899 10.732 6.06571 10.4277 5.9084 10.0727L5.87589 10H5L5.15331 10.3427C5.37215 10.832 5.7499 11.2513 6.23782 11.5467C6.72575 11.8421 7.30147 12 7.89071 12H8.10929C8.69853 12 9.27425 11.8421 9.76218 11.5467C10.2501 11.2513 10.6278 10.832 10.8467 10.3427L11 10H10.124L10.0915 10.0727Z" fill="#495057"/>
</svg>
