<svg width="18" height="18" viewBox="0 0 18 18" fill="none" xmlns="http://www.w3.org/2000/svg">
<path d="M9.00059 0.666992C10.1488 0.666992 11.1302 1.07446 11.9448 1.88939C12.7593 2.70432 13.1668 3.68574 13.1671 4.83366V8.30606C13.1671 8.7321 13.0236 9.18574 12.7364 9.66699C12.4493 10.1482 12.1298 10.389 11.7781 10.3894V11.4311C11.7781 11.5238 11.8059 11.6232 11.8614 11.7295C11.917 11.8357 11.9864 11.9168 12.0698 11.9727L17.042 15.167C17.1253 15.2132 17.1948 15.2896 17.2503 15.3962C17.3059 15.5028 17.3337 15.6022 17.3337 15.6946V16.9863C17.3337 17.079 17.2989 17.1601 17.2295 17.2295C17.1601 17.2989 17.079 17.3337 16.9863 17.3337H1.01438C0.921672 17.3337 0.840598 17.2989 0.771156 17.2295C0.701713 17.1601 0.666992 17.079 0.666992 16.9863V15.6946C0.666992 15.6019 0.694769 15.5024 0.750323 15.3962C0.805877 15.2899 0.875319 15.2135 0.95865 15.167L5.93089 11.9727C6.01422 11.9172 6.08366 11.8361 6.13922 11.7295C6.19477 11.6229 6.22255 11.5234 6.22255 11.4311V10.3894C5.87082 10.3894 5.55139 10.1486 5.26425 9.66699C4.9771 9.1854 4.83353 8.73175 4.83353 8.30606V4.83366C4.83353 3.6854 5.24098 2.70397 6.05589 1.88939C6.87079 1.0748 7.85218 0.667339 9.00007 0.666992H9.00059Z" fill="#C1CCD3"/>
</svg>
