<svg width="14" height="11" viewBox="0 0 14 11" fill="none" xmlns="http://www.w3.org/2000/svg">
<path d="M7.00105 0.333008C7.57416 0.333008 8.13496 0.408926 8.68344 0.560764C9.23192 0.712601 9.72104 0.911634 10.1508 1.15786C10.5806 1.40409 10.9877 1.68246 11.3721 1.99297C11.7565 2.30348 12.0867 2.62398 12.3627 2.95448C12.6386 3.28498 12.8762 3.60548 13.0753 3.91599C13.2745 4.22649 13.423 4.50486 13.5207 4.75109C13.6184 4.99732 13.6673 5.19129 13.6673 5.33301C13.6673 5.47472 13.6184 5.66869 13.5207 5.91492C13.423 6.16115 13.2727 6.43952 13.0698 6.75003C12.867 7.06054 12.6276 7.38104 12.3517 7.71154C12.0757 8.04204 11.7455 8.36254 11.3611 8.67305C10.9767 8.98355 10.5696 9.26192 10.1398 9.50815C9.71003 9.75438 9.22091 9.95341 8.67243 10.1053C8.12395 10.2571 7.56669 10.333 7.00065 10.333C6.43461 10.333 5.87736 10.2571 5.32888 10.1053C4.7804 9.95341 4.29127 9.75438 3.8615 9.50815C3.43173 9.26192 3.02463 8.98355 2.6402 8.67305C2.25576 8.36254 1.92557 8.04204 1.64963 7.71154C1.37369 7.38104 1.1343 7.06054 0.931469 6.75003C0.728639 6.43952 0.57835 6.16115 0.480604 5.91492C0.382858 5.66869 0.333984 5.47472 0.333984 5.33301C0.333984 5.19129 0.382858 4.99732 0.480604 4.75109C0.57835 4.50486 0.726804 4.22649 0.925966 3.91599C1.12513 3.60548 1.36268 3.28498 1.63862 2.95448C1.91457 2.62398 2.24476 2.30348 2.62919 1.99297C3.01362 1.68246 3.42072 1.40409 3.85049 1.15786C4.28026 0.911634 4.76939 0.712601 5.31787 0.560764C5.86635 0.408926 6.42715 0.333008 7.00026 0.333008H7.00105ZM10.0199 3.01521C9.91509 2.91399 9.8522 2.8735 9.83123 2.89374C9.81027 2.91399 9.8277 2.98826 9.88351 3.11656C10.0583 3.50122 10.1457 3.9027 10.1457 4.32101C10.1457 5.15789 9.83818 5.87317 9.22314 6.46685C8.60809 7.06054 7.8674 7.3575 7.00105 7.35776C6.13469 7.35801 5.394 7.06104 4.77895 6.46685C4.16391 5.87266 3.85639 5.15738 3.85639 4.32101C3.85639 3.92295 3.93671 3.53829 4.09735 3.16705C4.15317 3.03875 4.16889 2.96447 4.14452 2.94423C4.12015 2.92398 4.05896 2.96447 3.96095 3.0657C3.47169 3.53133 2.9126 4.15222 2.28367 4.92836C2.19274 5.03642 2.14033 5.17307 2.12644 5.33832C2.11255 5.50357 2.144 5.64693 2.22078 5.7684C2.3746 6.01134 2.53878 6.25086 2.71331 6.48697C2.88784 6.72308 3.13246 6.9998 3.44719 7.31714C3.76192 7.63448 4.08516 7.90779 4.41693 8.13706C4.74869 8.36634 5.14347 8.56372 5.60128 8.72923C6.05909 8.89473 6.52555 8.97735 7.00065 8.9771C7.47576 8.97685 7.94221 8.89587 8.40002 8.73416C8.85783 8.57246 9.25262 8.37507 9.58438 8.142C9.91614 7.90893 10.2394 7.63397 10.5541 7.31714C10.8688 7.00031 11.1135 6.72536 11.288 6.49228C11.4625 6.25921 11.6267 6.02134 11.7805 5.77865C11.8573 5.65718 11.8888 5.51382 11.8749 5.34857C11.861 5.18332 11.8121 5.04325 11.7282 4.92836C11.0993 4.13881 10.5297 3.50109 10.0195 3.01521H10.0199ZM5.40788 4.04771L5.04114 4.41212C4.93632 4.51334 4.86818 4.64329 4.83674 4.80196C4.80529 4.96063 4.82101 5.1007 4.88391 5.22217C5.14255 5.68097 5.4675 6.07233 5.85875 6.39625C5.97065 6.48406 6.10521 6.52113 6.26244 6.50747C6.41968 6.4938 6.54717 6.43648 6.64491 6.33551L7.01166 5.99122C7.10941 5.89 7.15304 5.77701 7.14255 5.65225C7.13207 5.52749 7.07442 5.41449 6.9696 5.31327C6.66221 5.01643 6.35128 4.62165 6.03682 4.12894C5.96003 4.00747 5.86216 3.94003 5.74318 3.92662C5.62421 3.9132 5.51244 3.95369 5.40788 4.04809V4.04771Z" fill="#C1CCD3"/>
</svg>
