<svg width="64" height="64" viewBox="0 0 64 64" fill="none" xmlns="http://www.w3.org/2000/svg">
<rect width="64" height="64" fill="#002B49"/>
<path d="M15.1819 18H20.3819V46H15.1819V18ZM39.5953 24.4C42.2886 24.4 44.4486 25.1867 46.0753 26.76C47.702 28.3333 48.5153 30.6667 48.5153 33.76V46H43.5153V34.4C43.5153 32.5333 43.0753 31.1333 42.1953 30.2C41.3153 29.24 40.062 28.76 38.4353 28.76C36.5953 28.76 35.142 29.32 34.0753 30.44C33.0086 31.5333 32.4753 33.12 32.4753 35.2V46H27.4753V24.64H32.2353V27.4C33.062 26.4133 34.102 25.6667 35.3553 25.16C36.6086 24.6533 38.022 24.4 39.5953 24.4Z" fill="white"/>
</svg>
