<svg width="144" height="144" viewBox="0 0 144 144" fill="none" xmlns="http://www.w3.org/2000/svg">
<mask id="mask0" mask-type="alpha" maskUnits="userSpaceOnUse" x="0" y="0" width="144" height="145">
<path d="M71.9996 144C111.764 144 143.999 111.765 143.999 72.0006C143.999 32.2363 111.764 0.000976562 71.9996 0.000976562C32.2353 0.000976562 0 32.2363 0 72.0006C0 111.765 32.2353 144 71.9996 144Z" fill="#E6E7E2"/>
</mask>
<g mask="url(#mask0)">
<path d="M71.9996 144C111.764 144 143.999 111.765 143.999 72.0006C143.999 32.2363 111.764 0.000976562 71.9996 0.000976562C32.2353 0.000976562 0 32.2363 0 72.0006C0 111.765 32.2353 144 71.9996 144Z" fill="#E6E7E2"/>
<path d="M96.9766 117.822H96.9613C95.3992 116.64 93.7636 115.588 92.0408 114.639C91.9965 114.61 91.9528 114.581 91.8947 114.567C83.7467 110.069 78.2278 101.396 78.2278 91.4232L65.8896 91.3643C65.8896 101.367 60.3262 110.084 52.1056 114.566C52.1056 114.566 52.0911 114.566 52.0765 114.58C50.3384 115.529 48.6745 116.596 47.0971 117.764C36.8759 125.371 30.2617 137.534 30.2617 151.26H113.739C113.739 137.564 107.154 125.429 96.9766 117.822Z" fill="#ECC19C"/>
<path d="M113.737 151.255H30.2598C30.2598 137.53 36.8739 125.367 47.0952 117.759C48.6726 116.591 50.3365 115.525 52.0738 114.576C52.0891 114.561 52.1036 114.561 52.1036 114.561C53.4468 113.817 54.7319 112.969 55.9143 112.006C60.0028 116.197 65.7124 118.796 72.0349 118.796C78.3429 118.796 84.0379 116.197 88.1256 112.02C89.2936 112.984 90.5648 113.831 91.8927 114.561C91.9509 114.576 91.9953 114.605 92.0389 114.634C93.7617 115.583 95.3972 116.635 96.9593 117.817H96.9746C107.152 125.425 113.737 137.559 113.737 151.255Z" fill="#168EF7"/>
<path d="M39.9648 29.1533V61.9379C39.9648 84.1147 59.4331 102.092 72.0009 102.092C84.5672 102.092 104.037 84.1147 104.037 61.9379V29.1533H39.9648Z" fill="#ECC19C"/>
<path d="M98.8176 23.1191C91.8353 14.3765 81.236 8.78711 69.3799 8.78711C48.3167 8.78711 31.2578 26.3688 31.2578 48.0504C31.2578 59.5582 36.0543 69.9057 43.7131 77.0817C41.7401 72.1298 40.638 66.5795 40.638 60.7185C40.638 51.2993 43.5004 42.673 48.2586 36.039C53.3068 38.283 61.4884 39.095 70.4621 37.8574C79.3594 36.639 86.9409 33.6993 91.2154 30.1986C99.0105 37.0837 104.078 48.1858 104.078 60.7185C104.078 67.1398 102.762 73.1745 100.403 78.4738C107.926 75.3596 113.458 64.2582 113.458 51.0475C113.458 36.9092 107.114 25.2467 98.8176 23.1191Z" fill="#494846"/>
</g>
</svg>
