<svg width="16" height="16" viewBox="0 0 16 16" fill="none" xmlns="http://www.w3.org/2000/svg">
<path d="M7.99935 1.33334C8.35297 1.33334 8.69211 1.47382 8.94216 1.72387C9.19221 1.97392 9.33268 2.31305 9.33268 2.66668C9.33268 3.0203 9.19221 3.35944 8.94216 3.60949C8.69211 3.85953 8.35297 4.00001 7.99935 4.00001C7.64573 4.00001 7.30659 3.85953 7.05654 3.60949C6.80649 3.35944 6.66602 3.0203 6.66602 2.66668C6.66602 2.31305 6.80649 1.97392 7.05654 1.72387C7.30659 1.47382 7.64573 1.33334 7.99935 1.33334ZM6.99935 4.66668H8.99935C9.35297 4.66668 9.69211 4.80715 9.94216 5.0572C10.1922 5.30725 10.3327 5.64639 10.3327 6.00001V9.66668H9.33268V14.6667H6.66602V9.66668H5.66602V6.00001C5.66602 5.64639 5.80649 5.30725 6.05654 5.0572C6.30659 4.80715 6.64573 4.66668 6.99935 4.66668Z" fill="#C1CCD3"/>
</svg>
