<svg width="16" height="16" viewBox="0 0 16 16" fill="none" xmlns="http://www.w3.org/2000/svg">
<path d="M8 0C9.0815 0 10.1167 0.210235 11.1057 0.630703C12.0946 1.05117 12.9474 1.61965 13.6638 2.33615C14.3803 3.05265 14.9488 3.90537 15.3693 4.89432C15.7898 5.88327 16 6.9185 16 8C16 9.0815 15.7898 10.1167 15.3693 11.1057C14.9488 12.0946 14.3803 12.9474 13.6638 13.6639C12.9474 14.3803 12.0946 14.9488 11.1057 15.3693C10.1167 15.7898 9.0815 16 8 16C6.9185 16 5.88327 15.7898 4.89432 15.3693C3.90537 14.9488 3.05265 14.3803 2.33615 13.6639C1.61965 12.9474 1.05117 12.0946 0.630703 11.1057C0.210234 10.1167 0 9.0815 0 8C0 6.9185 0.210234 5.88327 0.630703 4.89432C1.05117 3.90537 1.61965 3.05265 2.33615 2.33615C3.05265 1.61965 3.90537 1.05117 4.89432 0.630703C5.88327 0.210235 6.9185 0 8 0ZM9.44183 3.84089H6.55765C6.37289 3.84089 6.22505 3.90797 6.11413 4.04212C6.00321 4.17626 5.96629 4.33572 6.00338 4.52047L6.80775 8.70766C6.84484 8.89241 6.94415 9.05186 7.10568 9.18601C7.26721 9.32016 7.44053 9.38724 7.62563 9.38724H8.37437C8.55912 9.38724 8.73244 9.32016 8.89432 9.18601C9.0562 9.05186 9.15551 8.89241 9.19225 8.70766L9.99662 4.52047C10.0337 4.33572 9.99679 4.17626 9.88587 4.04212C9.77495 3.90797 9.62711 3.84089 9.44235 3.84089H9.44183ZM9.03991 10.7734H6.96009C6.86754 10.7734 6.7866 10.8081 6.71728 10.8774C6.64795 10.9467 6.61328 11.0277 6.61328 11.1202V13.2001C6.61328 13.2926 6.64795 13.3735 6.71728 13.4429C6.7866 13.5122 6.86754 13.5469 6.96009 13.5469H9.03991C9.13246 13.5469 9.2134 13.5122 9.28272 13.4429C9.35205 13.3735 9.38671 13.2926 9.38671 13.2001V11.1202C9.38671 11.0277 9.35205 10.9467 9.28272 10.8774C9.2134 10.8081 9.13246 10.7734 9.03991 10.7734Z" fill="#FD5F00"/>
</svg>
