<svg width="40" height="40" viewBox="0 0 40 40" fill="none" xmlns="http://www.w3.org/2000/svg">
<path d="M23.3335 19.9997H25.8335V24.6997L29.9002 27.0497L28.6502 29.2163L23.3335 26.1497V19.9997ZM6.66683 3.33301H30.0002C30.8842 3.33301 31.7321 3.6842 32.3572 4.30932C32.9823 4.93444 33.3335 5.78229 33.3335 6.66634V16.833C35.4002 18.933 36.6668 21.8163 36.6668 24.9997C36.6668 28.0939 35.4377 31.0613 33.2497 33.2493C31.0618 35.4372 28.0944 36.6663 25.0002 36.6663C21.8168 36.6663 18.9335 35.3997 16.8335 33.333H6.66683C5.78277 33.333 4.93493 32.9818 4.30981 32.3567C3.68469 31.7316 3.3335 30.8837 3.3335 29.9997V6.66634C3.3335 5.78229 3.68469 4.93444 4.30981 4.30932C4.93493 3.6842 5.78277 3.33301 6.66683 3.33301ZM6.66683 24.9997V29.9997H14.4502C13.7335 28.483 13.3335 26.783 13.3335 24.9997H6.66683ZM6.66683 13.333H16.6668V8.33301H6.66683V13.333ZM30.0002 13.333V8.33301H20.0002V13.333H30.0002ZM6.66683 21.6663H13.8168C14.3835 19.7497 15.4335 18.033 16.8335 16.6663H6.66683V21.6663ZM25.0002 16.9163C22.8563 16.9163 20.8003 17.768 19.2844 19.2839C17.7685 20.7998 16.9168 22.8558 16.9168 24.9997C16.9168 29.4663 20.5335 33.083 25.0002 33.083C26.0617 33.083 27.1128 32.8739 28.0935 32.4677C29.0742 32.0615 29.9653 31.4661 30.7159 30.7155C31.4666 29.9648 32.062 29.0737 32.4682 28.093C32.8744 27.1123 33.0835 26.0612 33.0835 24.9997C33.0835 20.533 29.4668 16.9163 25.0002 16.9163Z" fill="#C1CCD3"/>
</svg>
