<svg width="20" height="20" viewBox="0 0 20 20" fill="none" xmlns="http://www.w3.org/2000/svg">
<rect width="20" height="20" rx="10" fill="#D3EFE8"/>
<path d="M15.8334 5V6.40351C15.8334 13.1593 12.1021 16.2281 7.50004 16.2281H6.17921C6.32643 14.1144 6.97782 12.8351 8.67782 11.3151C9.51393 10.5677 9.4431 10.1361 9.03129 10.3839C6.19518 12.0891 4.78685 14.3937 4.72435 18.0737L4.72226 18.3333H3.33337C3.33337 17.3768 3.41393 16.5088 3.57365 15.7144C3.41393 14.8063 3.33337 13.574 3.33337 12.0175C3.33337 8.14176 6.4424 5 10.2778 5C11.6667 5 13.0556 5.70175 15.8334 5Z" fill="#21AE8C"/>
</svg>
