<svg width="12" height="11" viewBox="0 0 12 11" fill="none" xmlns="http://www.w3.org/2000/svg">
<path d="M0.0580419 5.32036L5.88752 0.0606651C5.93759 0.0202218 5.99553 0 6.06135 0C6.12717 0 6.18206 0.0202218 6.22601 0.0606651L11.9427 5.32036C11.9927 5.36642 12.01 5.40395 11.9945 5.43293C11.979 5.46191 11.9398 5.47629 11.8771 5.47607H10.2315V10.4503C10.2315 10.508 10.208 10.5585 10.161 10.6018C10.114 10.645 10.0591 10.6667 9.99633 10.6667H7.64557C7.58281 10.6667 7.52792 10.645 7.48091 10.6018C7.43389 10.5585 7.41039 10.508 7.41039 10.4503V7.20616H4.58961V10.4503C4.58961 10.508 4.56611 10.5585 4.51909 10.6018C4.47208 10.645 4.41719 10.6667 4.35443 10.6667H2.00367C1.94091 10.6667 1.88602 10.645 1.83901 10.6018C1.79199 10.5585 1.76849 10.508 1.76849 10.4503V5.47607H0.12292C0.0601575 5.47607 0.0210193 5.46169 0.00550506 5.43293C-0.0100092 5.40416 0.00797323 5.36664 0.0580419 5.32036Z" fill="#495057"/>
</svg>
