<svg width="80" height="80" viewBox="0 0 80 80" fill="none" xmlns="http://www.w3.org/2000/svg">
<rect width="80" height="80" rx="8" fill="#FD5F00" fill-opacity="0.2"/>
<path d="M34.0961 37.98C34.7721 37.98 35.3745 38.1273 35.9031 38.422C36.4405 38.7167 36.8608 39.1327 37.1641 39.67C37.4675 40.2073 37.6191 40.827 37.6191 41.529C37.6191 42.231 37.4675 42.855 37.1641 43.401C36.8608 43.9383 36.4405 44.3543 35.9031 44.649C35.3745 44.9437 34.7721 45.091 34.0961 45.091C33.1601 45.091 32.4191 44.779 31.8731 44.155V47.522H30.2481V38.058H31.7951V38.968C32.0638 38.6387 32.3931 38.3917 32.7831 38.227C33.1818 38.0623 33.6195 37.98 34.0961 37.98ZM33.9141 43.7C34.5121 43.7 35.0018 43.5007 35.3831 43.102C35.7731 42.7033 35.9681 42.179 35.9681 41.529C35.9681 40.879 35.7731 40.3547 35.3831 39.956C35.0018 39.5573 34.5121 39.358 33.9141 39.358C33.5241 39.358 33.1731 39.449 32.8611 39.631C32.5491 39.8043 32.3021 40.0557 32.1201 40.385C31.9381 40.7143 31.8471 41.0957 31.8471 41.529C31.8471 41.9623 31.9381 42.3437 32.1201 42.673C32.3021 43.0023 32.5491 43.258 32.8611 43.44C33.1731 43.6133 33.5241 43.7 33.9141 43.7ZM45.9592 35.354V45H44.3992V44.103C44.1306 44.4323 43.7969 44.6793 43.3982 44.844C43.0082 45.0087 42.5749 45.091 42.0982 45.091C41.4309 45.091 40.8286 44.9437 40.2912 44.649C39.7626 44.3543 39.3466 43.9383 39.0432 43.401C38.7399 42.855 38.5882 42.231 38.5882 41.529C38.5882 40.827 38.7399 40.2073 39.0432 39.67C39.3466 39.1327 39.7626 38.7167 40.2912 38.422C40.8286 38.1273 41.4309 37.98 42.0982 37.98C42.5576 37.98 42.9779 38.058 43.3592 38.214C43.7406 38.37 44.0656 38.604 44.3342 38.916V35.354H45.9592ZM42.2932 43.7C42.6832 43.7 43.0342 43.6133 43.3462 43.44C43.6582 43.258 43.9052 43.0023 44.0872 42.673C44.2692 42.3437 44.3602 41.9623 44.3602 41.529C44.3602 41.0957 44.2692 40.7143 44.0872 40.385C43.9052 40.0557 43.6582 39.8043 43.3462 39.631C43.0342 39.449 42.6832 39.358 42.2932 39.358C41.9032 39.358 41.5522 39.449 41.2402 39.631C40.9282 39.8043 40.6812 40.0557 40.4992 40.385C40.3172 40.7143 40.2262 41.0957 40.2262 41.529C40.2262 41.9623 40.3172 42.3437 40.4992 42.673C40.6812 43.0023 40.9282 43.258 41.2402 43.44C41.5522 43.6133 41.9032 43.7 42.2932 43.7ZM50.906 36.576C50.2214 36.576 49.879 36.9487 49.879 37.694V38.11H51.79V39.41H49.931V45H48.306V39.41H47.162V38.11H48.306V37.668C48.306 36.9227 48.5227 36.3377 48.956 35.913C49.3894 35.4797 50.0004 35.263 50.789 35.263C51.413 35.263 51.9027 35.3887 52.258 35.64L51.803 36.862C51.5257 36.6713 51.2267 36.576 50.906 36.576Z" fill="#FD5F00"/>
</svg>
