<svg width="20" height="21" viewBox="0 0 20 21" fill="none" xmlns="http://www.w3.org/2000/svg">
<path d="M0.0200396 3.52252L2.79567 0.747331C2.98971 0.553325 3.21823 0.473452 3.48123 0.507714C3.74423 0.541975 3.95561 0.667672 4.11538 0.884805L6.49716 4.20797C6.65693 4.43623 6.71968 4.69041 6.68541 4.9705C6.65115 5.25059 6.537 5.48764 6.34296 5.68164L4.30428 7.70329C5.46936 9.32515 6.77151 10.8556 8.21073 12.2946C9.64995 13.7335 11.1748 15.0297 12.7854 16.183L14.8241 14.1614C15.0181 13.9674 15.2608 13.8588 15.552 13.8357C15.8433 13.8126 16.0975 13.8811 16.3147 14.0413L19.6043 16.3713C19.8215 16.531 19.95 16.7451 19.9898 17.0137C20.0297 17.2822 19.9526 17.5135 19.7585 17.7075L16.9655 20.4827C16.9313 20.4942 16.8771 20.5 16.803 20.5C16.7289 20.5 16.5603 20.4887 16.2973 20.466C16.0343 20.4433 15.763 20.409 15.4833 20.3632C15.2036 20.3173 14.8465 20.2345 14.4122 20.1146C13.9779 19.9946 13.5352 19.8432 13.0841 19.6604C12.6331 19.4775 12.1191 19.2349 11.5421 18.9325C10.9652 18.6302 10.3854 18.2876 9.80286 17.9047C9.22032 17.5218 8.58638 17.0479 7.90104 16.483C7.2157 15.9182 6.53614 15.2987 5.86236 14.6246C5.01725 13.7796 4.25481 12.9203 3.57504 12.0466C2.89526 11.1729 2.35556 10.3821 1.95592 9.67419C1.55628 8.96626 1.2136 8.28381 0.927903 7.62685C0.642201 6.96988 0.445166 6.39878 0.336796 5.91355C0.228426 5.42832 0.142759 5.00284 0.0797928 4.63709C0.0168271 4.27135 -0.00887325 3.99726 0.00269189 3.81481L0.0200396 3.52252Z" fill="#C1CCD3"/>
</svg>
