<svg width="16" height="18" viewBox="0 0 16 18" fill="none" xmlns="http://www.w3.org/2000/svg">
<path d="M12.0907 0.666992H13.4543C13.6452 0.666992 13.8066 0.734178 13.9385 0.868548C14.0704 1.00292 14.1364 1.16732 14.1364 1.36176V2.05601H14.8179C15.0088 2.05601 15.1702 2.1232 15.3021 2.25757C15.434 2.39194 15.5 2.55634 15.5 2.75078V4.83405H0.502045V2.75078C0.502045 2.55634 0.568003 2.39194 0.699918 2.25757C0.831834 2.1232 0.993234 2.05601 1.18412 2.05601H1.86568V1.36176C1.86568 1.16732 1.93164 1.00292 2.06355 0.868548C2.19547 0.734178 2.35687 0.666992 2.54776 0.666992H3.91139C4.10228 0.666992 4.26368 0.734178 4.39559 0.868548C4.52751 1.00292 4.59347 1.16732 4.59347 1.36176V2.05601H11.4106V1.36176C11.4106 1.16732 11.4766 1.00292 11.6085 0.868548C11.7404 0.734178 11.9018 0.666992 12.0927 0.666992H12.0907ZM15.499 6.22255V16.6389C15.499 16.8333 15.433 16.9977 15.3011 17.1321C15.1692 17.2665 15.0078 17.3337 14.8169 17.3337H1.18207C0.991189 17.3337 0.829788 17.2665 0.697873 17.1321C0.565958 16.9977 0.5 16.8333 0.5 16.6389V6.22255H15.498H15.499ZM1.86466 9.00007V10.3891H3.2283V9.00007H1.86466ZM4.59142 9.00007V10.3891H5.95506V9.00007H4.59142ZM7.31818 9.00007V10.3891H8.68182V9.00007H7.31818ZM10.0455 9.00007V10.3891H11.4091V9.00007H10.0455ZM12.7722 9.00007V10.3891H14.1359V9.00007H12.7722ZM1.86466 11.7776V13.1666H3.2283V11.7776H1.86466ZM4.59142 11.7776V13.1666H5.95506V11.7776H4.59142ZM7.31818 11.7776V13.1666H8.68182V11.7776H7.31818ZM10.0455 11.7776V13.1666H11.4091V11.7776H10.0455ZM12.7722 11.7776V13.1666H14.1359V11.7776H12.7722ZM1.86466 14.5556V15.9446H3.2283V14.5556H1.86466ZM4.59142 14.5556V15.9446H5.95506V14.5556H4.59142ZM7.31818 14.5556V15.9446H8.68182V14.5556H7.31818ZM10.0455 14.5556V15.9446H11.4091V14.5556H10.0455ZM12.7722 14.5556V15.9446H14.1359V14.5556H12.7722Z" fill="#C1CCD3"/>
</svg>
