<svg width="24" height="24" viewBox="0 0 24 24" fill="none" xmlns="http://www.w3.org/2000/svg">
<path d="M21.4286 3.42865H2.57143C1.15127 3.42865 0 4.57992 0 6.00008V18C0 19.4202 1.15127 20.5715 2.57143 20.5715H21.4286C22.8487 20.5715 24 19.4202 24 18V6.00008C24 4.57992 22.8487 3.42865 21.4286 3.42865ZM22.2857 18C22.2857 18.4735 21.9019 18.8572 21.4285 18.8572H2.57143C2.09802 18.8572 1.71427 18.4735 1.71427 18V17.4978L5.14285 14.0692L7.96545 16.8918C8.30013 17.2264 8.84274 17.2264 9.17743 16.8918L16.2857 9.78349L22.2857 15.7835V18H22.2857ZM22.2857 13.3595L16.8917 7.96551C16.557 7.63087 16.0144 7.63087 15.6797 7.96551L8.57144 15.0737L5.74885 12.2512C5.41416 11.9165 4.87155 11.9165 4.53686 12.2512L1.71427 15.0737V6.00008C1.71427 5.52667 2.09802 5.14292 2.57143 5.14292H21.4286C21.902 5.14292 22.2857 5.52667 22.2857 6.00008V13.3595H22.2857Z" fill="#C1CCD3"/>
<path d="M7.71596 6.85712C6.2958 6.85712 5.14453 8.00838 5.14453 9.42854C5.14453 10.8487 6.2958 12 7.71596 12C9.13612 12 10.2874 10.8487 10.2874 9.42854C10.2874 8.00838 9.13612 6.85712 7.71596 6.85712ZM7.71596 10.2857C7.24255 10.2857 6.8588 9.90195 6.8588 9.42854C6.8588 8.95514 7.24255 8.57138 7.71596 8.57138C8.18936 8.57138 8.57311 8.95514 8.57311 9.42854C8.57311 9.90195 8.18936 10.2857 7.71596 10.2857Z" fill="#C1CCD3"/>
</svg>
