<svg width="10" height="12" viewBox="0 0 10 12" fill="none" xmlns="http://www.w3.org/2000/svg">
<path d="M9.66683 9.80948V11.3333H0.333496V9.80948C0.333496 9.80948 0.333496 6.76186 5.00016 6.76186C9.66683 6.76186 9.66683 9.80948 9.66683 9.80948ZM7.3335 2.95234C7.3335 2.50027 7.19665 2.05835 6.94026 1.68247C6.68387 1.30658 6.31945 1.01362 5.89309 0.840617C5.46673 0.667616 4.99757 0.622352 4.54495 0.710546C4.09233 0.798741 3.67657 1.01643 3.35025 1.3361C3.02392 1.65576 2.8017 2.06304 2.71166 2.50642C2.62163 2.94981 2.66784 3.40939 2.84444 3.82705C3.02105 4.24471 3.32012 4.60168 3.70383 4.85284C4.08755 5.104 4.53867 5.23805 5.00016 5.23805C5.619 5.23805 6.21249 4.99724 6.65008 4.56858C7.08766 4.13993 7.3335 3.55855 7.3335 2.95234Z" fill="white"/>
</svg>
