<svg width="20" height="20" viewBox="0 0 14 14" fill="none" xmlns="http://www.w3.org/2000/svg">
<path d="M8.33337 7.00004H9.33337V8.88004L10.96 9.82004L10.46 10.6867L8.33337 9.46004V7.00004ZM1.66671 0.333374H11C11.3537 0.333374 11.6928 0.47385 11.9429 0.723898C12.1929 0.973947 12.3334 1.31309 12.3334 1.66671V5.73337C13.16 6.57337 13.6667 7.72671 13.6667 9.00004C13.6667 10.2377 13.175 11.4247 12.2999 12.2999C11.4247 13.175 10.2377 13.6667 9.00004 13.6667C7.72671 13.6667 6.57337 13.16 5.73337 12.3334H1.66671C1.31309 12.3334 0.973947 12.1929 0.723898 11.9429C0.47385 11.6928 0.333374 11.3537 0.333374 11V1.66671C0.333374 1.31309 0.47385 0.973947 0.723898 0.723898C0.973947 0.47385 1.31309 0.333374 1.66671 0.333374ZM1.66671 9.00004V11H4.78004C4.49337 10.3934 4.33337 9.71337 4.33337 9.00004H1.66671ZM1.66671 4.33337H5.66671V2.33337H1.66671V4.33337ZM11 4.33337V2.33337H7.00004V4.33337H11ZM1.66671 7.66671H4.52671C4.75337 6.90004 5.17337 6.21337 5.73337 5.66671H1.66671V7.66671ZM9.00004 5.76671C8.14251 5.76671 7.3201 6.10736 6.71373 6.71373C6.10736 7.3201 5.76671 8.14251 5.76671 9.00004C5.76671 10.7867 7.21337 12.2334 9.00004 12.2334C9.42465 12.2334 9.8451 12.1497 10.2374 11.9873C10.6297 11.8248 10.9861 11.5866 11.2864 11.2864C11.5866 10.9861 11.8248 10.6297 11.9873 10.2374C12.1497 9.8451 12.2334 9.42465 12.2334 9.00004C12.2334 7.21337 10.7867 5.76671 9.00004 5.76671Z" fill="currentColor"/>
</svg>
