<svg width="24" height="24" viewBox="0 0 24 24" fill="none" xmlns="http://www.w3.org/2000/svg">
<path d="M7.46921 14.7372C7.56119 14.7372 7.64764 14.6805 7.68083 14.5888L8.18959 13.192C8.28065 13.1969 8.37194 13.2008 8.46345 13.2008C8.59347 13.2008 8.72486 13.195 8.85557 13.1844L9.35234 14.5496C9.38577 14.6409 9.47221 14.698 9.56396 14.6978C9.58955 14.6978 9.6156 14.6934 9.64073 14.6844L11.7375 13.9216C11.7938 13.9009 11.8394 13.8592 11.8648 13.805C11.8902 13.7511 11.8927 13.6888 11.8722 13.6328L11.3636 12.237C11.5414 12.1042 11.7099 11.9592 11.8678 11.8036L13.1281 12.5288C13.1636 12.5491 13.2023 12.5588 13.2401 12.5588C13.318 12.5588 13.3938 12.5182 13.4356 12.4461L14.5511 10.5138C14.5808 10.462 14.5889 10.4007 14.5734 10.343C14.5582 10.2854 14.5206 10.2361 14.4685 10.2061L13.1829 9.46382C13.2336 9.24828 13.2696 9.02813 13.2903 8.80522L14.7205 8.55349C14.7793 8.54312 14.8316 8.50992 14.8662 8.46082C14.9003 8.41195 14.9134 8.35132 14.9033 8.29254L14.5163 6.09521C14.5059 6.03643 14.4727 5.9841 14.4238 5.94975C14.3747 5.91564 14.3141 5.90203 14.2553 5.91241L12.7929 6.17036C12.6937 5.9735 12.5796 5.78147 12.4522 5.59682L13.3858 4.4841C13.4658 4.38866 13.4533 4.24666 13.3581 4.16667L11.6488 2.73237C11.6029 2.69387 11.5437 2.6752 11.4844 2.6805C11.425 2.6858 11.3699 2.71439 11.3314 2.76026L10.377 3.89765C10.1723 3.80959 9.96184 3.73582 9.74746 3.67704V2.22522C9.74746 2.10074 9.64649 2 9.52224 2H7.29125C7.16677 2 7.0658 2.10097 7.0658 2.22522V3.70978C6.85303 3.77363 6.64418 3.85293 6.44155 3.94583L5.5084 2.8331C5.4699 2.78723 5.41504 2.75865 5.35556 2.75357C5.29609 2.7485 5.23685 2.76718 5.19097 2.80544L3.48166 4.23975C3.43578 4.27824 3.4072 4.33334 3.40213 4.39281C3.39706 4.45229 3.41573 4.51153 3.45399 4.55717L4.40858 5.69457C4.28595 5.88129 4.17668 6.07585 4.08193 6.27617L2.65201 6.02398C2.52937 6.00208 2.41273 6.08415 2.39106 6.20679L2.00355 8.40388C1.99341 8.46267 2.00678 8.52329 2.0409 8.57216C2.07525 8.62126 2.12757 8.65446 2.18636 8.66483L3.64902 8.92233C3.67506 9.14386 3.71633 9.36331 3.77235 9.57793L2.51485 10.3038C2.46298 10.3338 2.42541 10.3829 2.40996 10.4408C2.39452 10.4984 2.40259 10.5602 2.43232 10.6118L3.54781 12.544C3.57755 12.5959 3.62688 12.6335 3.68451 12.6489C3.70365 12.6538 3.72324 12.6565 3.7426 12.6565C3.78179 12.6565 3.82075 12.6462 3.85533 12.6261L5.14187 11.8834C5.30393 12.0357 5.47659 12.1771 5.65801 12.3059L5.161 13.6713C5.11836 13.7882 5.17875 13.9173 5.29563 13.9601L7.39176 14.7232C7.41758 14.7331 7.4434 14.7372 7.46921 14.7372ZM8.46322 11.1731C6.9079 11.1731 5.64256 9.90804 5.64256 8.35294C5.64256 6.79784 6.9079 5.53274 8.46322 5.53274C10.0183 5.53274 11.2834 6.79807 11.2834 8.35294C11.2837 9.90804 10.0186 11.1731 8.46322 11.1731Z" fill="#FFFFFF"/>
<path d="M21.9969 15.5418L21.7285 14.0181C21.7184 13.9593 21.6852 13.9072 21.6361 13.8726C21.587 13.8385 21.5266 13.8249 21.468 13.8353L20.504 14.0056C20.4475 13.8977 20.3846 13.7919 20.3161 13.6889L20.9295 12.957C21.0095 12.8618 20.9971 12.7198 20.9019 12.6398L19.7163 11.6455C19.6211 11.5655 19.4789 11.578 19.3989 11.6734L18.7703 12.4228C18.6561 12.3758 18.5402 12.3348 18.4226 12.3007V11.3465C18.4226 11.2221 18.3217 11.1211 18.1972 11.1211H16.6501C16.5257 11.1211 16.4249 11.2221 16.4249 11.3465V12.3249C16.3071 12.3622 16.1919 12.4053 16.0798 12.4549L15.4664 11.7239C15.4284 11.678 15.3733 11.6494 15.3136 11.6444C15.2539 11.6391 15.1949 11.6577 15.1492 11.6962L13.9637 12.6909C13.8684 12.7709 13.856 12.9129 13.936 13.0081L14.5651 13.7583C14.4992 13.862 14.4385 13.9692 14.3848 14.0789L13.445 13.9132C13.3221 13.8913 13.2055 13.9733 13.1838 14.0957L12.9148 15.6193C12.9044 15.678 12.918 15.7389 12.9521 15.7878C12.9865 15.8364 13.0388 15.8698 13.0978 15.8802L14.0619 16.0499C14.0782 16.1714 14.1008 16.2924 14.1299 16.4113L13.3032 16.889C13.1956 16.9514 13.1587 17.0888 13.2207 17.1965L13.9943 18.5365C14.036 18.6087 14.1116 18.6492 14.1896 18.6492C14.2278 18.6492 14.2666 18.6393 14.3018 18.619L15.1504 18.1294C15.2414 18.2124 15.3364 18.2903 15.4346 18.3625L15.108 19.2606C15.0655 19.3774 15.1257 19.5068 15.2426 19.5494L16.6965 20.0782C16.7211 20.0875 16.7474 20.0921 16.7735 20.0921C16.8064 20.0921 16.8387 20.0849 16.8687 20.0709C16.9226 20.0457 16.9648 19.9999 16.9853 19.9436L17.32 19.0236C17.3675 19.0254 17.4152 19.0271 17.463 19.0271C17.5372 19.0271 17.6123 19.0241 17.688 19.0192L18.0144 19.9169C18.0478 20.0082 18.1342 20.0653 18.226 20.0653C18.2513 20.0653 18.2776 20.0607 18.303 20.0515L19.7576 19.5224C19.8136 19.5022 19.8592 19.4602 19.8846 19.4063C19.91 19.3519 19.9125 19.2899 19.892 19.2338L19.5566 18.314C19.6534 18.2396 19.7461 18.1596 19.8348 18.075L20.664 18.5515C20.6993 18.5718 20.7378 18.5815 20.7758 18.5815C20.8539 18.5815 20.9295 18.5411 20.9713 18.469L21.7447 17.1292C21.7744 17.0771 21.7827 17.0158 21.767 16.9581C21.752 16.9005 21.7142 16.8512 21.6621 16.8214L20.8145 16.3323C20.8408 16.2122 20.8606 16.0909 20.874 15.9687L21.8141 15.8028C21.9367 15.7809 22.0183 15.664 21.9969 15.5418ZM19.3498 15.5955C19.3498 16.6359 18.5035 17.4823 17.4632 17.4823C16.4226 17.4823 15.5762 16.6359 15.5762 15.5955C15.5762 14.5549 16.4226 13.7087 17.4632 13.7087C18.5035 13.7087 19.3498 14.5549 19.3498 15.5955Z" fill="#FFFFFF"/>
<path d="M12.7312 17.6898C12.7208 17.6307 12.6877 17.5784 12.6386 17.5441C12.5894 17.5097 12.5291 17.4966 12.4705 17.5069L11.7563 17.6328C11.722 17.5696 11.6849 17.5072 11.6457 17.4465L12.0991 16.9055C12.1789 16.8103 12.1664 16.6683 12.0712 16.5883L11.1498 15.8151C11.0546 15.7352 10.9124 15.7476 10.8326 15.8428L10.3668 16.3979C10.2997 16.3714 10.2312 16.3474 10.1618 16.326V15.6208C10.1618 15.4963 10.0609 15.3951 9.93638 15.3951H8.73352C8.60904 15.3951 8.5083 15.4961 8.5083 15.6208V16.3458C8.43961 16.3686 8.37206 16.3942 8.30544 16.4223L7.85177 15.8818C7.81328 15.8361 7.75841 15.8075 7.69871 15.8022C7.639 15.7969 7.57999 15.8156 7.53435 15.8541L6.61295 16.6275C6.56731 16.6658 6.53873 16.7209 6.53342 16.7806C6.52835 16.8398 6.54702 16.8993 6.58529 16.9449L7.05118 17.4998C7.01314 17.5616 6.97764 17.6247 6.94491 17.6891L6.25057 17.5667C6.12817 17.545 6.01129 17.6268 5.98962 17.7492L5.78077 18.9341C5.7704 18.9931 5.78377 19.0537 5.81812 19.1026C5.85246 19.1515 5.90479 19.1847 5.96358 19.1951L6.6775 19.3207C6.68787 19.3921 6.70147 19.4634 6.71761 19.5341L6.10673 19.8864C6.05509 19.9164 6.01729 19.9655 6.00184 20.0233C5.9864 20.0809 5.99447 20.1425 6.0242 20.1941L6.62563 21.2361C6.65537 21.2882 6.7047 21.326 6.76233 21.3412C6.78146 21.3463 6.80106 21.3488 6.82065 21.3488C6.85984 21.3488 6.8988 21.3387 6.93338 21.3186L7.56132 20.9558C7.61549 21.0037 7.67174 21.0496 7.72914 21.0929L7.48755 21.7566C7.46726 21.8126 7.4698 21.8749 7.49516 21.9288C7.52052 21.983 7.56639 22.0249 7.62217 22.0455L8.75265 22.4567C8.77801 22.4659 8.80406 22.4705 8.82965 22.4705C8.92139 22.4705 9.00784 22.4136 9.04127 22.3223L9.28954 21.6404C9.31489 21.6413 9.34048 21.642 9.36561 21.642C9.4124 21.642 9.4592 21.6404 9.50577 21.6381L9.74712 22.3009C9.78055 22.3922 9.86699 22.4491 9.95874 22.4491C9.98433 22.4491 10.0104 22.4447 10.0357 22.4353L11.166 22.0242C11.2222 22.0035 11.2679 21.9618 11.2932 21.9076C11.3184 21.8537 11.3211 21.7916 11.3006 21.7354L11.0523 21.054C11.1088 21.0093 11.1632 20.9622 11.2158 20.9134L11.8285 21.2658C11.8638 21.2861 11.9025 21.2958 11.9405 21.2958C12.0182 21.2958 12.0941 21.2555 12.1358 21.1833L12.737 20.1413C12.7667 20.0897 12.775 20.0284 12.7598 19.9705C12.7444 19.9129 12.7066 19.8638 12.6547 19.8336L12.0267 19.4715C12.0413 19.4005 12.053 19.329 12.0618 19.2568L12.7564 19.1349C12.8154 19.1245 12.8675 19.0915 12.902 19.0424C12.9362 18.9933 12.9498 18.933 12.9392 18.8742L12.7312 17.6898ZM10.7824 18.9247C10.7824 19.7061 10.1468 20.3414 9.36561 20.3414C8.58437 20.3414 7.94883 19.7059 7.94883 18.9247C7.94883 18.1436 8.58437 17.5083 9.36561 17.5083C10.1468 17.5083 10.7824 18.1439 10.7824 18.9247Z" fill="#FFFFFF"/>
</svg>
