<svg width="16" height="16" viewBox="0 0 16 16" fill="none" xmlns="http://www.w3.org/2000/svg">
<path d="M13.75 1.75C13.6906 1.75 13.6297 1.76094 13.5688 1.78594L4.5625 5.40469H2C1.8625 5.40469 1.75 5.52031 1.75 5.66406V10.3359C1.75 10.4797 1.8625 10.5953 2 10.5953H3.5875C3.52969 10.7766 3.5 10.9688 3.5 11.1641C3.5 12.1938 4.34063 13.0312 5.375 13.0312C6.24062 13.0312 6.97031 12.4437 7.18594 11.65L13.5703 14.2156C13.6313 14.2391 13.6922 14.2516 13.7516 14.2516C14.0156 14.2516 14.2516 14.0297 14.2516 13.7328V2.26875C14.25 1.97187 14.0156 1.75 13.75 1.75ZM5.375 11.9109C4.96094 11.9109 4.625 11.5766 4.625 11.1641C4.625 10.9891 4.68594 10.8219 4.79688 10.6891L6.12344 11.2219C6.09219 11.6062 5.76875 11.9109 5.375 11.9109Z" fill="white"/>
</svg>
