<svg width="16" height="16" viewBox="0 0 16 16" fill="none" xmlns="http://www.w3.org/2000/svg">
<path d="M9.3335 7.99998H10.3335V9.87998L11.9602 10.82L11.4602 11.6866L9.3335 10.46V7.99998ZM2.66683 1.33331H12.0002C12.3538 1.33331 12.6929 1.47379 12.943 1.72384C13.193 1.97389 13.3335 2.31302 13.3335 2.66665V6.73331C14.1602 7.57331 14.6668 8.72665 14.6668 9.99998C14.6668 11.2377 14.1752 12.4246 13.3 13.2998C12.4248 14.175 11.2378 14.6666 10.0002 14.6666C8.72683 14.6666 7.5735 14.16 6.7335 13.3333H2.66683C2.31321 13.3333 1.97407 13.1928 1.72402 12.9428C1.47397 12.6927 1.3335 12.3536 1.3335 12V2.66665C1.3335 2.31302 1.47397 1.97389 1.72402 1.72384C1.97407 1.47379 2.31321 1.33331 2.66683 1.33331ZM2.66683 9.99998V12H5.78016C5.4935 11.3933 5.3335 10.7133 5.3335 9.99998H2.66683ZM2.66683 5.33331H6.66683V3.33331H2.66683V5.33331ZM12.0002 5.33331V3.33331H8.00016V5.33331H12.0002ZM2.66683 8.66665H5.52683C5.7535 7.89998 6.1735 7.21331 6.7335 6.66665H2.66683V8.66665ZM10.0002 6.76665C9.14263 6.76665 8.32022 7.1073 7.71385 7.71367C7.10748 8.32004 6.76683 9.14245 6.76683 9.99998C6.76683 11.7866 8.2135 13.2333 10.0002 13.2333C10.4248 13.2333 10.8452 13.1497 11.2375 12.9872C11.6298 12.8247 11.9862 12.5865 12.2865 12.2863C12.5867 11.986 12.8249 11.6296 12.9874 11.2373C13.1499 10.845 13.2335 10.4246 13.2335 9.99998C13.2335 8.21331 11.7868 6.76665 10.0002 6.76665Z" fill="white"/>
</svg>
