<svg width="16" height="16" viewBox="0 0 16 16" fill="none" xmlns="http://www.w3.org/2000/svg">
<path d="M9.33398 8.00001H10.334V9.88001L11.9607 10.82L11.4607 11.6867L9.33398 10.46V8.00001ZM2.66732 1.33334H12.0007C12.3543 1.33334 12.6934 1.47382 12.9435 1.72387C13.1935 1.97392 13.334 2.31305 13.334 2.66668V6.73334C14.1607 7.57334 14.6673 8.72668 14.6673 10C14.6673 11.2377 14.1757 12.4247 13.3005 13.2998C12.4253 14.175 11.2383 14.6667 10.0007 14.6667C8.72732 14.6667 7.57398 14.16 6.73398 13.3333H2.66732C2.3137 13.3333 1.97456 13.1929 1.72451 12.9428C1.47446 12.6928 1.33398 12.3536 1.33398 12V2.66668C1.33398 2.31305 1.47446 1.97392 1.72451 1.72387C1.97456 1.47382 2.3137 1.33334 2.66732 1.33334ZM2.66732 10V12H5.78065C5.49398 11.3933 5.33398 10.7133 5.33398 10H2.66732ZM2.66732 5.33334H6.66732V3.33334H2.66732V5.33334ZM12.0007 5.33334V3.33334H8.00065V5.33334H12.0007ZM2.66732 8.66668H5.52732C5.75398 7.90001 6.17399 7.21334 6.73398 6.66668H2.66732V8.66668ZM10.0007 6.76668C9.14312 6.76668 8.32071 7.10733 7.71434 7.7137C7.10797 8.32007 6.76732 9.14248 6.76732 10C6.76732 11.7867 8.21398 13.2333 10.0007 13.2333C10.4253 13.2333 10.8457 13.1497 11.238 12.9872C11.6303 12.8247 11.9867 12.5866 12.287 12.2863C12.5872 11.9861 12.8254 11.6296 12.9879 11.2374C13.1504 10.8451 13.234 10.4246 13.234 10C13.234 8.21334 11.7873 6.76668 10.0007 6.76668Z" fill="#C1CCD3"/>
</svg>
