<svg width="16" height="16" viewBox="0 0 16 16" fill="none" xmlns="http://www.w3.org/2000/svg">
<path d="M3.33301 4.80005H4.39967H12.933" stroke="#495057" stroke-linecap="round" stroke-linejoin="round"/>
<path d="M12.3671 4.79995C12.3671 4.52381 12.1432 4.29995 11.8671 4.29995C11.5909 4.29995 11.3671 4.52381 11.3671 4.79995H12.3671ZM4.90039 4.79995C4.90039 4.52381 4.67653 4.29995 4.40039 4.29995C4.12425 4.29995 3.90039 4.52381 3.90039 4.79995H4.90039ZM5.50036 4.79996C5.50036 5.0761 5.72422 5.29996 6.00036 5.29996C6.2765 5.29996 6.50036 5.0761 6.50036 4.79996H5.50036ZM9.76703 4.79996C9.76703 5.0761 9.99088 5.29996 10.267 5.29996C10.5432 5.29996 10.767 5.0761 10.767 4.79996H9.76703ZM11.3671 4.79995V12.2666H12.3671V4.79995H11.3671ZM11.3671 12.2666C11.3671 12.5796 11.1134 12.8333 10.8004 12.8333V13.8333C11.6656 13.8333 12.3671 13.1319 12.3671 12.2666H11.3671ZM10.8004 12.8333H5.46706V13.8333H10.8004V12.8333ZM5.46706 12.8333C5.1541 12.8333 4.90039 12.5796 4.90039 12.2666H3.90039C3.90039 13.1319 4.60181 13.8333 5.46706 13.8333V12.8333ZM4.90039 12.2666V4.79995H3.90039V12.2666H4.90039ZM6.50036 4.79996V3.73329H5.50036V4.79996H6.50036ZM6.50036 3.73329C6.50036 3.42033 6.75406 3.16663 7.06703 3.16663V2.16663C6.20178 2.16663 5.50036 2.86805 5.50036 3.73329H6.50036ZM7.06703 3.16663H9.20036V2.16663H7.06703V3.16663ZM9.20036 3.16663C9.51332 3.16663 9.76703 3.42033 9.76703 3.73329H10.767C10.767 2.86805 10.0656 2.16663 9.20036 2.16663V3.16663ZM9.76703 3.73329V4.79996H10.767V3.73329H9.76703Z" fill="#495057"/>
<path d="M7.06641 7.46667V10.6667" stroke="#495057" stroke-linecap="round" stroke-linejoin="round"/>
<path d="M9.2002 7.46667V10.6667" stroke="#495057" stroke-linecap="round" stroke-linejoin="round"/>
</svg>
