<svg width="80" height="80" viewBox="0 0 80 80" fill="none" xmlns="http://www.w3.org/2000/svg">
<rect width="80" height="80" rx="8" fill="#21AE8C" fill-opacity="0.2"/>
<path d="M36.5358 45L34.7548 42.595L32.9608 45H31.1668L33.8708 41.477L31.2838 38.058H33.0908L34.7938 40.333L36.4968 38.058H38.2518L35.6518 41.451L38.3688 45H36.5358ZM39.568 35.354H41.193V45H39.568V35.354ZM45.4708 45.091C44.9074 45.091 44.3571 45.0173 43.8198 44.87C43.2824 44.7227 42.8534 44.5363 42.5328 44.311L43.1568 43.076C43.4688 43.284 43.8414 43.453 44.2748 43.583C44.7168 43.7043 45.1501 43.765 45.5748 43.765C46.5454 43.765 47.0308 43.5093 47.0308 42.998C47.0308 42.7553 46.9051 42.5863 46.6538 42.491C46.4111 42.3957 46.0168 42.3047 45.4708 42.218C44.8988 42.1313 44.4308 42.0317 44.0668 41.919C43.7114 41.8063 43.3994 41.6113 43.1308 41.334C42.8708 41.048 42.7408 40.6537 42.7408 40.151C42.7408 39.4923 43.0138 38.968 43.5598 38.578C44.1144 38.1793 44.8598 37.98 45.7958 37.98C46.2724 37.98 46.7491 38.0363 47.2258 38.149C47.7024 38.253 48.0924 38.396 48.3958 38.578L47.7718 39.813C47.1824 39.4663 46.5194 39.293 45.7828 39.293C45.3061 39.293 44.9421 39.3667 44.6908 39.514C44.4481 39.6527 44.3268 39.839 44.3268 40.073C44.3268 40.333 44.4568 40.5193 44.7168 40.632C44.9854 40.736 45.3971 40.8357 45.9518 40.931C46.5064 41.0177 46.9614 41.1173 47.3168 41.23C47.6721 41.3427 47.9754 41.5333 48.2268 41.802C48.4868 42.0707 48.6168 42.452 48.6168 42.946C48.6168 43.596 48.3351 44.116 47.7718 44.506C47.2084 44.896 46.4414 45.091 45.4708 45.091Z" fill="#21AE8C"/>
</svg>
