<svg width="80" height="80" viewBox="0 0 80 80" fill="none" xmlns="http://www.w3.org/2000/svg">
<rect width="80" height="80" rx="8" fill="#21AE8C" fill-opacity="0.2"/>
<path d="M32.8732 45L31.0922 42.595L29.2982 45H27.5042L30.2082 41.477L27.6212 38.058H29.4282L31.1312 40.333L32.8342 38.058H34.5892L31.9892 41.451L34.7062 45H32.8732ZM35.9054 35.354H37.5304V45H35.9054V35.354ZM41.8082 45.091C41.2448 45.091 40.6945 45.0173 40.1572 44.87C39.6198 44.7227 39.1908 44.5363 38.8702 44.311L39.4942 43.076C39.8062 43.284 40.1788 43.453 40.6122 43.583C41.0542 43.7043 41.4875 43.765 41.9122 43.765C42.8828 43.765 43.3682 43.5093 43.3682 42.998C43.3682 42.7553 43.2425 42.5863 42.9912 42.491C42.7485 42.3957 42.3542 42.3047 41.8082 42.218C41.2362 42.1313 40.7682 42.0317 40.4042 41.919C40.0488 41.8063 39.7368 41.6113 39.4682 41.334C39.2082 41.048 39.0782 40.6537 39.0782 40.151C39.0782 39.4923 39.3512 38.968 39.8972 38.578C40.4518 38.1793 41.1972 37.98 42.1332 37.98C42.6098 37.98 43.0865 38.0363 43.5632 38.149C44.0398 38.253 44.4298 38.396 44.7332 38.578L44.1092 39.813C43.5198 39.4663 42.8568 39.293 42.1202 39.293C41.6435 39.293 41.2795 39.3667 41.0282 39.514C40.7855 39.6527 40.6642 39.839 40.6642 40.073C40.6642 40.333 40.7942 40.5193 41.0542 40.632C41.3228 40.736 41.7345 40.8357 42.2892 40.931C42.8438 41.0177 43.2988 41.1173 43.6542 41.23C44.0095 41.3427 44.3128 41.5333 44.5642 41.802C44.8242 42.0707 44.9542 42.452 44.9542 42.946C44.9542 43.596 44.6725 44.116 44.1092 44.506C43.5458 44.896 42.7788 45.091 41.8082 45.091ZM50.6466 45L48.8656 42.595L47.0716 45H45.2776L47.9816 41.477L45.3946 38.058H47.2016L48.9046 40.333L50.6076 38.058H52.3626L49.7626 41.451L52.4796 45H50.6466Z" fill="#21AE8C"/>
</svg>
